SplineFontDB: 3.0
FontName: Kaippada
FullName: Kaippada
FamilyName: Kaippada
Weight: Book
Copyright: Copyright 2014 Santhosh Thottingal, Kavya Manohar, Swathanthra Malayalam Computing (http://smc.org.in)
Version: 0.1
ItalicAngle: 0
UnderlinePosition: -942
UnderlineWidth: 61
Ascent: 1434
Descent: 614
sfntRevision: 0x00060000
LayerCount: 2
Layer: 0 1 "Back"  1
Layer: 1 1 "Fore"  0
XUID: [1021 393 960756424 4828222]
FSType: 8
OS2Version: 1
OS2_WeightWidthSlopeOnly: 0
OS2_UseTypoMetrics: 1
CreationTime: 1201144287
ModificationTime: 1412174511
PfmFamily: 65
TTFWeight: 400
TTFWidth: 5
LineGap: 0
VLineGap: 0
OS2TypoAscent: 0
OS2TypoAOffset: 1
OS2TypoDescent: 0
OS2TypoDOffset: 1
OS2TypoLinegap: 0
OS2WinAscent: 0
OS2WinAOffset: 1
OS2WinDescent: 0
OS2WinDOffset: 1
HheadAscent: 0
HheadAOffset: 1
HheadDescent: 0
HheadDOffset: 1
OS2SubXSize: 1327
OS2SubYSize: 1225
OS2SubXOff: 0
OS2SubYOff: 150
OS2SupXSize: 1327
OS2SupYSize: 1427
OS2SupXOff: 0
OS2SupYOff: 977
OS2StrikeYSize: 98
OS2StrikeYPos: 512
OS2Vendor: 'PfEd'
OS2CodePages: 00000001.00000000
OS2UnicodeRanges: 80800003.00002000.00000000.00000000
Lookup: 4 0 0 "'akhn' Akhand in Malay+AQEA-lam lookup 0"  {"'akhn' Akhand in Malay+AQEA-lam lookup 0 subtable"  } ['akhn' ('mlym' <'dflt' > ) ]
Lookup: 4 0 0 "'akhn' Akhand in Malay+AQEA-lam2 lookup 0"  {"'akhn' Akhand in Malay+AQEA-lam2 lookup 0 subtable"  } ['akhn' ('mlm2' <'dflt' > ) ]
Lookup: 4 0 0 "'pref' Pre Base Forms in Malay+AQEA-lam2 lookup 1"  {"'pref' Pre Base Forms in Malay+AQEA-lam2 lookup 1 subtable"  } ['pref' ('mlm2' <'dflt' > ) ]
Lookup: 4 0 0 "'half' Half Forms in Malay+AQEA-lam lookup 1"  {"'half' Half Forms in Malay+AQEA-lam lookup 1 subtable"  } ['half' ('mlym' <'dflt' > ) ]
Lookup: 4 0 0 "'blwf' Below Base Forms in Malay+AQEA-lam lookup 2"  {"'blwf' Below Base Forms in Malay+AQEA-lam lookup 2 subtable"  } ['blwf' ('mlym' <'dflt' > ) ]

StartChar: .notdef
Encoding: 121 -1 0
Width: 692
GlyphClass: 2
Flags: MW
LayerCount: 2
Fore
SplineSet
45 1 m 1,0,-1
 45 1119 l 1,1,-1
 606 1119 l 1,2,-1
 606 1 l 1,3,-1
 45 1 l 1,0,-1
102 55 m 1,4,-1
 552 55 l 1,5,-1
 552 1063 l 1,6,-1
 102 1063 l 1,7,-1
 102 55 l 1,4,-1
EndSplineSet
Validated: 1
EndChar

StartChar: exclam
Encoding: 1 33 2
Width: 409
GlyphClass: 2
Flags: MW
LayerCount: 2
Fore
SplineSet
130.238 985.92 m 0,0,1
 134.061 1006.61 134.061 1006.61 149.565 1021.51 c 128,-1,2
 165.069 1036.4 165.069 1036.4 185.741 1039.13 c 0,3,4
 212.074 1042.62 212.074 1042.62 233.647 1026.08 c 128,-1,5
 255.221 1009.55 255.221 1009.55 258.703 983.22 c 0,6,7
 304.026 640.571 304.026 640.571 292.115 433.632 c 1,8,9
 290.038 421.13 290.038 421.13 292.112 399.293 c 128,-1,10
 294.187 377.456 294.187 377.456 289.815 351.166 c 128,-1,11
 285.443 324.876 285.443 324.876 277.795 302.174 c 128,-1,12
 270.147 279.472 270.147 279.472 248.624 265.239 c 128,-1,13
 227.102 251.008 227.102 251.008 194.873 253.287 c 0,14,15
 169.984 255.048 169.984 255.048 152.282 266.765 c 128,-1,16
 134.579 278.48 134.579 278.48 125.807 293.461 c 128,-1,17
 117.033 308.441 117.033 308.441 112.053 331.52 c 128,-1,18
 107.072 354.598 107.072 354.598 106.369 371.149 c 128,-1,19
 105.666 387.7 105.666 387.7 105.445 411.021 c 128,-1,20
 105.226 434.342 105.226 434.342 104.714 441.872 c 0,21,22
 90.8281 646.22 90.8281 646.22 128.089 975.095 c 0,23,24
 128.62 979.785 128.62 979.785 130.238 985.92 c 0,0,1
158.149 70.2197 m 0,25,26
 163.83 75.8613 163.83 75.8613 170.599 79.9219 c 0,27,28
 193.38 93.585 193.38 93.585 219.747 86.9883 c 128,-1,29
 246.115 80.3916 246.115 80.3916 259.776 57.6191 c 0,30,31
 309.688 -25.5811 309.688 -25.5811 314.914 -93.3672 c 0,32,33
 318.067 -134.26 318.067 -134.26 303.066 -171.409 c 128,-1,34
 288.066 -208.559 288.066 -208.559 247.895 -225.158 c 0,35,36
 212.518 -239.776 212.518 -239.776 177.667 -225.519 c 128,-1,37
 142.815 -211.261 142.815 -211.261 124.237 -182.031 c 0,38,39
 77.4795 -108.468 77.4795 -108.468 125.438 11.1289 c 0,40,41
 133.444 31.0967 133.444 31.0967 144.121 51.8721 c 0,42,43
 149.195 61.7461 149.195 61.7461 158.149 70.2197 c 0,25,26
EndSplineSet
EndChar

StartChar: numbersign
Encoding: 3 35 4
Width: 1113
GlyphClass: 2
Flags: MW
LayerCount: 2
Fore
SplineSet
68.2783 379.7 m 128,-1,1
 68.2783 406.256 68.2783 406.256 87.4974 425.478 c 128,-1,2
 106.717 444.7 106.717 444.7 133.278 444.7 c 2,3,-1
 261.11 444.7 l 1,4,-1
 304.297 581.46 l 1,5,-1
 228.279 581.46 l 2,6,7
 201.717 581.458 201.717 581.458 182.498 600.679 c 128,-1,8
 163.279 619.903 163.279 619.903 163.279 646.46 c 128,-1,9
 163.279 673.016 163.279 673.016 182.498 692.238 c 128,-1,10
 201.717 711.46 201.717 711.46 228.279 711.46 c 2,11,-1
 345.35 711.46 l 1,12,-1
 418.017 941.574 l 2,13,14
 426.016 966.902 426.016 966.902 450.133 979.441 c 128,-1,15
 474.251 991.98 474.251 991.98 499.574 983.983 c 128,-1,16
 524.897 975.986 524.897 975.986 537.439 951.87 c 128,-1,17
 549.982 927.755 549.982 927.755 541.983 902.426 c 2,18,-1
 481.678 711.46 l 1,19,-1
 676.391 711.46 l 1,20,-1
 741.413 917.363 l 2,21,22
 749.412 942.691 749.412 942.691 773.529 955.23 c 128,-1,23
 797.646 967.769 797.646 967.769 822.969 959.772 c 128,-1,24
 848.292 951.774 848.292 951.774 860.835 927.659 c 128,-1,25
 873.378 903.544 873.378 903.544 865.378 878.216 c 2,26,-1
 812.719 711.46 l 1,27,-1
 948.207 711.46 l 2,28,29
 974.763 711.458 974.763 711.458 993.985 692.238 c 128,-1,30
 1013.21 673.02 1013.21 673.02 1013.21 646.46 c 128,-1,31
 1013.21 619.898 1013.21 619.898 993.985 600.679 c 128,-1,32
 974.763 581.46 974.763 581.46 948.207 581.46 c 2,33,-1
 771.666 581.46 l 1,34,-1
 728.479 444.7 l 1,35,-1
 853.206 444.7 l 2,36,37
 879.762 444.699 879.762 444.699 898.984 425.478 c 128,-1,38
 918.206 406.26 918.206 406.26 918.206 379.7 c 128,-1,39
 918.206 353.138 918.206 353.138 898.984 333.919 c 128,-1,40
 879.762 314.7 879.762 314.7 853.206 314.7 c 2,41,-1
 687.426 314.7 l 1,42,-1
 577.378 -33.7835 l 2,43,44
 569.381 -59.1067 569.381 -59.1067 545.266 -71.6491 c 128,-1,45
 521.151 -84.1915 521.151 -84.1915 495.822 -76.1928 c 128,-1,46
 470.493 -68.1942 470.493 -68.1942 457.955 -44.077 c 128,-1,47
 445.416 -19.9598 445.416 -19.9598 453.413 5.36359 c 2,48,-1
 551.098 314.7 l 1,49,-1
 356.385 314.7 l 1,50,-1
 253.983 -9.57354 l 2,51,52
 245.986 -34.8967 245.986 -34.8967 221.871 -47.4391 c 128,-1,53
 197.755 -59.9815 197.755 -59.9815 172.426 -51.9829 c 128,-1,54
 147.098 -43.9843 147.098 -43.9843 134.559 -19.8669 c 128,-1,55
 122.02 4.25037 122.02 4.25037 130.017 29.5735 c 2,56,-1
 220.057 314.7 l 1,57,-1
 133.278 314.7 l 2,58,59
 106.717 314.699 106.717 314.699 87.4974 333.919 c 128,-1,0
 68.2783 353.143 68.2783 353.143 68.2783 379.7 c 128,-1,1
592.151 444.7 m 1,60,-1
 635.338 581.46 l 1,61,-1
 440.625 581.46 l 1,62,-1
 397.438 444.7 l 1,63,-1
 592.151 444.7 l 1,60,-1
EndSplineSet
EndChar

StartChar: dollar
Encoding: 4 36 5
Width: 955
GlyphClass: 2
Flags: MW
LayerCount: 2
Fore
SplineSet
676.672 795.68 m 128,-1,1
 654.107 781.684 654.107 781.684 627.641 787.886 c 128,-1,2
 601.174 794.089 601.174 794.089 587.175 816.662 c 0,3,4
 542.788 888.236 542.788 888.236 463.802 924.79 c 1,5,6
 462.774 789.897 462.774 789.897 461.746 655.003 c 1,7,8
 463.377 654.533 463.377 654.533 496.057 645.146 c 0,9,10
 660.575 597.894 660.575 597.894 727.189 535.724 c 0,11,12
 858.642 413.039 858.642 413.039 844.686 242.72 c 0,13,14
 838.328 165.123 838.328 165.123 799.553 95.4102 c 128,-1,15
 760.778 25.6975 760.778 25.6975 693.558 -25.7876 c 0,16,17
 592.731 -103.014 592.731 -103.014 455.986 -100.778 c 1,18,-1
 455.269 -194.93 l 2,19,20
 455.066 -221.485 455.066 -221.485 435.701 -240.56 c 128,-1,21
 416.336 -259.635 416.336 -259.635 389.775 -259.433 c 128,-1,22
 363.214 -259.23 363.214 -259.23 344.142 -239.862 c 128,-1,23
 325.07 -220.494 325.07 -220.494 325.397 -177.568 c 128,-1,24
 325.724 -134.641 325.724 -134.641 326.176 -75.3435 c 1,25,26
 255.622 -48.0962 255.622 -48.0962 193.278 11.6481 c 128,-1,27
 130.934 71.3924 130.934 71.3924 101.008 157.605 c 0,28,29
 92.2999 182.692 92.2999 182.692 104.153 207.154 c 128,-1,30
 116.006 231.615 116.006 231.615 141.099 240.326 c 128,-1,31
 166.192 249.036 166.192 249.036 190.652 237.179 c 128,-1,32
 215.111 225.322 215.111 225.322 229.296 184.459 c 0,33,34
 252.164 118.58 252.164 118.58 327.28 69.457 c 1,35,36
 329.151 314.934 329.151 314.934 331.021 560.412 c 1,37,38
 130.425 635.698 130.425 635.698 94.5013 792.772 c 0,39,40
 66.0972 916.942 66.0972 916.942 155.1 1004.18 c 0,41,42
 226.5 1074.17 226.5 1074.17 334.979 1079.71 c 1,43,44
 335.304 1122.34 335.304 1122.34 354.672 1141.41 c 128,-1,45
 374.039 1160.48 374.039 1160.48 400.595 1160.28 c 128,-1,46
 427.149 1160.08 427.149 1160.08 446.225 1140.72 c 128,-1,47
 465.3 1121.35 465.3 1121.35 465.139 1100.16 c 128,-1,48
 464.977 1078.96 464.977 1078.96 464.856 1063.14 c 1,49,50
 615.303 1017.97 615.303 1017.97 697.654 885.178 c 0,51,52
 711.652 862.601 711.652 862.601 705.446 836.139 c 128,-1,0
 699.24 809.676 699.24 809.676 676.672 795.68 c 128,-1,1
333.985 949.282 m 1,53,54
 279.709 944.29 279.709 944.29 255.058 920.127 c 128,-1,55
 230.407 895.963 230.407 895.963 222.423 873.7 c 0,56,57
 203.98 822.27 203.98 822.27 241.223 775.55 c 128,-1,58
 278.466 728.831 278.466 728.831 332.097 701.608 c 1,59,60
 333.041 825.445 333.041 825.445 333.985 949.282 c 1,53,54
456.977 29.2738 m 1,61,62
 549.076 27.3005 549.076 27.3005 619.74 81.4234 c 0,63,64
 706.478 147.858 706.478 147.858 715.12 253.334 c 0,65,66
 729.867 433.305 729.867 433.305 508.922 505.473 c 0,67,68
 495.817 509.753 495.817 509.753 460.717 519.982 c 1,69,-1
 456.977 29.2738 l 1,61,62
EndSplineSet
EndChar

StartChar: percent
Encoding: 5 37 6
Width: 972
GlyphClass: 2
Flags: MW
LayerCount: 2
Fore
SplineSet
618.146 344.941 m 1,0,1
 636.967 349.024 636.967 349.024 654.436 342.802 c 0,2,3
 915.592 249.771 915.592 249.771 918.593 96.4268 c 0,4,5
 919.725 38.5801 919.725 38.5801 871.747 -22.8018 c 128,-1,6
 823.77 -84.1836 823.77 -84.1836 722.347 -101.994 c 0,7,8
 599.088 -123.641 599.088 -123.641 525.962 -42.9395 c 0,9,10
 468.194 20.8125 468.194 20.8125 470.917 126.223 c 1,11,-1
 240.711 -62.5654 l 2,12,13
 206.258 -90.8193 206.258 -90.8193 174.999 -72.9033 c 128,-1,14
 143.74 -54.9863 143.74 -54.9863 136.861 -28.6855 c 128,-1,15
 129.983 -2.38379 129.983 -2.38379 143.397 20.5322 c 2,16,-1
 607.914 814.082 l 1,17,-1
 538.984 779.214 l 2,18,19
 529.683 774.367 529.683 774.367 518.873 769.98 c 1,20,21
 513.422 712.988 513.422 712.988 481.062 668.768 c 128,-1,22
 448.701 624.547 448.701 624.547 396.2 602.203 c 0,23,24
 304.12 563.015 304.12 563.015 209.604 599.911 c 1,25,26
 103.752 642.527 103.752 642.527 93.8311 745.398 c 0,27,28
 80.3809 884.858 80.3809 884.858 278.331 1044.52 c 0,29,30
 299.01 1061.2 299.01 1061.2 326.035 1058.3 c 0,31,32
 358.668 1054.8 358.668 1054.8 375.149 1026.91 c 1,33,34
 396.921 1033.71 396.921 1033.71 418.898 1025.78 c 128,-1,35
 440.875 1017.84 440.875 1017.84 452.248 998.802 c 0,36,37
 481.48 949.874 481.48 949.874 498.299 904.319 c 1,38,-1
 746.153 1029.7 l 2,39,40
 769.848 1041.68 769.848 1041.68 795.678 1033.21 c 128,-1,41
 821.508 1024.73 821.508 1024.73 835.496 997.079 c 128,-1,42
 849.483 969.429 849.483 969.429 831.589 938.858 c 2,43,-1
 438.986 268.162 l 1,44,-1
 534.061 346.131 l 2,45,46
 551.465 360.117 551.465 360.117 575.439 359.624 c 128,-1,47
 599.414 359.132 599.414 359.132 618.146 344.941 c 1,0,1
389.511 782.984 m 1,48,49
 338.401 825.632 338.401 825.632 332 919.9 c 1,50,51
 217.295 819.417 217.295 819.417 223.23 757.878 c 0,52,53
 224.563 744.057 224.563 744.057 230.787 736.537 c 128,-1,54
 237.011 729.017 237.011 729.017 269.506 716.207 c 128,-1,55
 302 703.396 302 703.396 335.271 717.556 c 128,-1,56
 368.54 731.715 368.54 731.715 377.965 744.812 c 128,-1,57
 387.39 757.911 387.39 757.911 389.511 782.984 c 1,48,49
617.745 217.839 m 1,58,59
 581.012 89.915 581.012 89.915 622.296 44.3516 c 0,60,61
 645.488 18.7559 645.488 18.7559 698.965 27.0176 c 128,-1,62
 752.44 35.2803 752.44 35.2803 779.001 68.9355 c 0,63,64
 792.12 84.3818 792.12 84.3818 791.933 94.2197 c 128,-1,65
 791.745 104.058 791.745 104.058 776.147 124.04 c 0,66,67
 737.071 174.105 737.071 174.105 617.745 217.839 c 1,58,59
EndSplineSet
EndChar

StartChar: ampersand
Encoding: 6 38 7
Width: 871
GlyphClass: 2
Flags: MW
LayerCount: 2
Fore
SplineSet
807.695 498.48 m 128,-1,1
 833.107 490.771 833.107 490.771 845.922 466.8 c 128,-1,2
 858.736 442.828 858.736 442.828 851.025 417.41 c 0,3,4
 815.364 299.852 815.364 299.852 731.384 203.435 c 1,5,6
 801.144 109.673 801.144 109.673 790.493 76.5371 c 128,-1,7
 779.842 43.4014 779.842 43.4014 756.213 31.2705 c 128,-1,8
 732.58 19.1396 732.58 19.1396 706.704 27.4609 c 128,-1,9
 680.829 35.7832 680.829 35.7832 667.806 61.1514 c 128,-1,10
 654.781 86.5195 654.781 86.5195 636.188 113.211 c 1,11,12
 501.68 6.90234 501.68 6.90234 368.194 -9.1416 c 0,13,14
 297.327 -17.6592 297.327 -17.6592 239.861 6.68359 c 128,-1,15
 182.396 31.0254 182.396 31.0254 149.794 101.996 c 128,-1,16
 117.191 172.967 117.191 172.967 157.031 303.309 c 0,17,18
 178.617 371.753 178.617 371.753 251.252 466.631 c 1,19,20
 228.639 490.175 228.639 490.175 195.815 529.895 c 128,-1,21
 162.991 569.614 162.991 569.614 135.774 640.604 c 0,22,23
 100.841 731.718 100.841 731.718 106.925 813.121 c 0,24,25
 118.935 973.83 118.935 973.83 247.471 1022.89 c 1,26,27
 350.505 1061.05 350.505 1061.05 460 1011.5 c 128,-1,28
 569.495 961.948 569.495 961.948 603.481 860.743 c 0,29,30
 654.847 707.793 654.847 707.793 496.382 549.328 c 0,31,32
 462.503 515.449 462.503 515.449 430.116 479.051 c 1,33,34
 457.578 456.108 457.578 456.108 499.966 423.276 c 0,35,36
 596.893 348.201 596.893 348.201 644.315 301.824 c 1,37,38
 701.456 372.182 701.456 372.182 726.624 455.15 c 0,39,40
 734.335 480.567 734.335 480.567 758.309 493.379 c 128,-1,0
 782.283 506.19 782.283 506.19 807.695 498.48 c 128,-1,1
347.622 378.571 m 1,41,42
 295.162 308.521 295.162 308.521 275.63 245.266 c 128,-1,43
 256.098 182.01 256.098 182.01 268.423 155.179 c 128,-1,44
 280.749 128.348 280.749 128.348 296.372 121.693 c 128,-1,45
 311.995 115.04 311.995 115.04 352.681 119.93 c 0,46,47
 447.905 131.375 447.905 131.375 550.793 211.445 c 1,48,49
 509.474 251.477 509.474 251.477 443.21 302.802 c 128,-1,50
 376.946 354.128 376.946 354.128 347.622 378.571 c 1,41,42
334.809 567.502 m 1,51,52
 368.649 605.443 368.649 605.443 404.458 641.252 c 0,53,54
 505.968 742.762 505.968 742.762 480.246 819.357 c 0,55,56
 464.291 866.865 464.291 866.865 404.931 893.729 c 128,-1,57
 345.571 920.593 345.571 920.593 305.604 905.633 c 128,-1,58
 265.636 890.673 265.636 890.673 252.974 872.136 c 0,59,60
 235.894 847.13 235.894 847.13 236.986 792.017 c 0,61,62
 239.389 670.895 239.389 670.895 334.809 567.502 c 1,51,52
EndSplineSet
EndChar

StartChar: quotesingle
Encoding: 7 39 8
Width: 368
GlyphClass: 2
Flags: MW
LayerCount: 2
Fore
SplineSet
203.366 953.969 m 128,-1,1
 179.659 940.672 179.659 940.672 148.109 949.55 c 128,-1,2
 116.56 958.428 116.56 958.428 105.115 1005.9 c 128,-1,3
 93.6699 1053.38 93.6699 1053.38 84.243 1112.9 c 0,4,5
 61.4712 1256.67 61.4712 1256.67 100.91 1335.06 c 0,6,7
 141.432 1415.6 141.432 1415.6 215.291 1375.3 c 0,8,9
 266.69 1347.25 266.69 1347.25 272.036 1277.53 c 128,-1,10
 277.383 1207.82 277.383 1207.82 267.773 1142.78 c 128,-1,11
 258.162 1077.74 258.162 1077.74 234.268 992.828 c 0,12,0
 227.074 967.265 227.074 967.265 203.366 953.969 c 128,-1,1
EndSplineSet
EndChar

StartChar: parenleft
Encoding: 8 40 9
Width: 500
GlyphClass: 2
Flags: MW
LayerCount: 2
Fore
SplineSet
380.554 1120.86 m 128,-1,1
 402.892 1106.5 402.892 1106.5 408.668 1079.94 c 128,-1,2
 414.445 1053.38 414.445 1053.38 392.473 1019.2 c 0,3,4
 215.421 743.751 215.421 743.751 207.184 499.984 c 0,5,6
 202.128 350.319 202.128 350.319 235.443 241.2 c 0,7,8
 297.353 38.4242 297.353 38.4242 414.155 -135.742 c 0,9,10
 428.947 -157.794 428.947 -157.794 423.691 -184.465 c 128,-1,11
 418.435 -211.135 418.435 -211.135 396.374 -225.93 c 128,-1,12
 374.31 -240.723 374.31 -240.723 347.644 -235.464 c 128,-1,13
 320.978 -230.204 320.978 -230.204 306.187 -208.149 c 0,14,15
 -110.732 413.529 -110.732 413.529 235.253 1010.89 c 0,16,17
 259.51 1052.77 259.51 1052.77 282.301 1088.22 c 128,-1,18
 305.091 1123.67 305.091 1123.67 331.655 1129.45 c 128,-1,0
 358.219 1135.22 358.219 1135.22 380.554 1120.86 c 128,-1,1
EndSplineSet
EndChar

StartChar: parenright
Encoding: 9 41 10
Width: 537
GlyphClass: 2
Flags: MW
LayerCount: 2
Fore
SplineSet
121.814 1120.86 m 128,-1,1
 144.149 1135.22 144.149 1135.22 170.713 1129.45 c 128,-1,2
 197.277 1123.67 197.277 1123.67 220.065 1088.23 c 0,3,4
 415.668 783.946 415.668 783.946 425.11 504.374 c 0,5,6
 437.044 151.007 437.044 151.007 196.182 -208.149 c 0,7,8
 181.391 -230.204 181.391 -230.204 154.724 -235.464 c 128,-1,9
 128.058 -240.723 128.058 -240.723 105.994 -225.93 c 128,-1,10
 83.9334 -211.135 83.9334 -211.135 78.6773 -184.464 c 128,-1,11
 73.4212 -157.794 73.4212 -157.794 88.213 -135.742 c 0,12,13
 356.415 264.18 356.415 264.18 279.27 626.947 c 0,14,15
 238.351 819.372 238.351 819.372 102.286 1031.03 c 0,16,17
 87.9234 1053.38 87.9234 1053.38 93.6997 1079.94 c 128,-1,0
 99.476 1106.5 99.476 1106.5 121.814 1120.86 c 128,-1,1
EndSplineSet
EndChar

StartChar: asterisk
Encoding: 10 42 11
Width: 1182
GlyphClass: 2
Flags: MW
LayerCount: 2
Fore
SplineSet
257.742 598.681 m 128,-1,1
 238.965 617.458 238.965 617.458 238.962 644.639 c 128,-1,2
 238.96 671.819 238.96 671.819 257.742 690.604 c 2,3,-1
 485.789 918.651 l 1,4,-1
 136.808 1034.98 l 2,5,6
 111.614 1043.38 111.614 1043.38 99.4561 1067.69 c 128,-1,7
 87.2979 1092 87.2979 1092 95.6982 1117.2 c 128,-1,8
 104.098 1142.4 104.098 1142.4 128.411 1154.55 c 128,-1,9
 152.724 1166.71 152.724 1166.71 177.917 1158.31 c 2,10,-1
 524.362 1042.83 l 1,11,-1
 524.362 1352.64 l 2,12,13
 524.362 1364.32 524.362 1364.32 528.085 1378.53 c 128,-1,14
 531.809 1392.75 531.809 1392.75 548.256 1409.19 c 128,-1,15
 564.704 1425.64 564.704 1425.64 591.704 1425.64 c 128,-1,16
 618.704 1425.64 618.704 1425.64 637.704 1406.64 c 128,-1,17
 656.704 1387.64 656.704 1387.64 656.704 1360.64 c 2,18,-1
 656.704 1050.83 l 1,19,-1
 1003.15 1166.31 l 2,20,21
 1028.34 1174.71 1028.34 1174.71 1052.66 1162.55 c 128,-1,22
 1076.97 1150.4 1076.97 1150.4 1085.37 1125.2 c 128,-1,23
 1093.77 1100 1093.77 1100 1081.61 1075.69 c 128,-1,24
 1069.45 1051.38 1069.45 1051.38 1044.26 1042.98 c 2,25,-1
 691.034 925.236 l 1,26,-1
 925.666 690.604 l 2,27,28
 944.444 671.822 944.444 671.822 944.446 644.639 c 128,-1,29
 944.448 617.463 944.448 617.463 925.666 598.681 c 128,-1,30
 906.881 579.899 906.881 579.899 879.7 579.9 c 128,-1,31
 852.52 579.901 852.52 579.901 833.742 598.681 c 2,32,-1
 591.704 840.719 l 1,33,-1
 349.666 598.681 l 2,34,35
 330.881 579.899 330.881 579.899 303.7 579.9 c 128,-1,0
 276.52 579.901 276.52 579.901 257.742 598.681 c 128,-1,1
EndSplineSet
EndChar

StartChar: plus
Encoding: 11 43 12
Width: 1233
GlyphClass: 2
Flags: MW
LayerCount: 2
Fore
SplineSet
1141.13 599 m 128,-1,1
 1141.13 572 1141.13 572 1122.13 553 c 128,-1,2
 1103.13 534 1103.13 534 1076.13 534 c 2,3,-1
 676 534 l 1,4,-1
 676 94.0801 l 2,5,6
 675.998 67.5244 675.998 67.5244 656.778 48.3018 c 128,-1,7
 637.561 29.0801 637.561 29.0801 611 29.0801 c 128,-1,8
 584.438 29.0801 584.438 29.0801 565.219 48.3018 c 128,-1,9
 546 67.5244 546 67.5244 546 94.0801 c 2,10,-1
 546 534 l 1,11,-1
 164.135 534 l 2,12,13
 137.135 534 137.135 534 118.135 553 c 128,-1,14
 99.1348 572 99.1348 572 99.1348 599 c 128,-1,15
 99.1348 626 99.1348 626 118.135 645 c 128,-1,16
 137.135 664 137.135 664 164.135 664 c 2,17,-1
 546 664 l 1,18,-1
 546 1070.08 l 2,19,20
 545.998 1096.64 545.998 1096.64 565.219 1115.86 c 128,-1,21
 584.442 1135.08 584.442 1135.08 611 1135.08 c 128,-1,22
 637.556 1135.08 637.556 1135.08 656.778 1115.86 c 128,-1,23
 676 1096.64 676 1096.64 676 1070.08 c 2,24,-1
 676 664 l 1,25,-1
 1076.13 664 l 2,26,27
 1103.13 664 1103.13 664 1122.13 645 c 128,-1,0
 1141.13 626 1141.13 626 1141.13 599 c 128,-1,1
EndSplineSet
EndChar

StartChar: comma
Encoding: 12 44 13
Width: 445
GlyphClass: 2
Flags: MW
LayerCount: 2
Fore
SplineSet
233.813 -363.666 m 1,0,1
 222.201 -383.603 222.201 -383.603 200.104 -391.82 c 128,-1,2
 178.006 -400.037 178.006 -400.037 156.257 -392.488 c 0,3,4
 131.169 -383.781 131.169 -383.781 119.312 -359.321 c 128,-1,5
 107.454 -334.862 107.454 -334.862 116.163 -309.769 c 0,6,7
 129.68 -270.826 129.68 -270.826 133.471 -233.786 c 0,8,9
 137.187 -197.481 137.187 -197.481 133.51 -173.554 c 0,10,11
 128.848 -143.211 128.848 -143.211 122.248 -112.011 c 0,12,13
 115.886 -81.9326 115.886 -81.9326 109.688 -61.8633 c 0,14,15
 99.6084 -29.2314 99.6084 -29.2314 100.016 7.04102 c 0,16,17
 100.474 47.709 100.474 47.709 117.839 81.9736 c 0,18,19
 135.572 117.002 135.572 117.002 168.126 140.389 c 128,-1,20
 200.68 163.775 200.68 163.775 242.954 156.606 c 0,21,22
 286.187 149.274 286.187 149.274 309.586 116.562 c 128,-1,23
 332.985 83.8506 332.985 83.8506 341.155 41.9873 c 0,24,25
 355.373 -35.2832 355.373 -35.2832 325.212 -140.925 c 0,26,27
 290.719 -261.739 290.719 -261.739 247.716 -345.437 c 0,28,29
 242.643 -355.311 242.643 -355.311 233.813 -363.666 c 1,0,1
EndSplineSet
EndChar

StartChar: hyphen
Encoding: 13 45 14
Width: 783
GlyphClass: 2
Flags: MW
LayerCount: 2
Fore
SplineSet
107 490 m 128,-1,1
 107 517 107 517 126 536 c 128,-1,2
 145 555 145 555 172 555 c 2,3,-1
 613 555 l 2,4,5
 640 555 640 555 659 536 c 128,-1,6
 678 517 678 517 678 490 c 128,-1,7
 678 463 678 463 659 444 c 128,-1,8
 640 425 640 425 613 425 c 2,9,-1
 172 425 l 2,10,11
 145 425 145 425 126 444 c 128,-1,0
 107 463 107 463 107 490 c 128,-1,1
EndSplineSet
EndChar

StartChar: period
Encoding: 14 46 15
Width: 422
GlyphClass: 2
Flags: MW
LayerCount: 2
Fore
SplineSet
100.042 89.084 m 128,-1,1
 99.4307 115.326 99.4307 115.326 107.711 150.617 c 128,-1,2
 115.99 185.908 115.99 185.908 145.496 228.561 c 128,-1,3
 175.002 271.214 175.002 271.214 206.767 265.991 c 0,4,5
 257.646 257.625 257.646 257.625 299.77 172.324 c 0,6,7
 330.541 110.011 330.541 110.011 319.217 66.7314 c 128,-1,8
 307.893 23.4512 307.893 23.4512 280.789 1.50684 c 128,-1,9
 253.686 -20.4375 253.686 -20.4375 217.705 -21.8916 c 128,-1,10
 181.726 -23.3457 181.726 -23.3457 155.112 -6.30762 c 128,-1,11
 128.5 10.7305 128.5 10.7305 114.577 36.7861 c 128,-1,0
 100.653 62.8418 100.653 62.8418 100.042 89.084 c 128,-1,1
EndSplineSet
EndChar

StartChar: slash
Encoding: 15 47 16
Width: 572
GlyphClass: 2
Flags: MW
LayerCount: 2
Fore
SplineSet
607.317 1037.18 m 128,-1,1
 631.353 1025.88 631.353 1025.88 640.576 1000.32 c 128,-1,2
 649.8 974.749 649.8 974.749 638.506 950.705 c 2,3,-1
 126.238 -139.548 l 2,4,5
 114.944 -163.583 114.944 -163.583 89.3779 -172.807 c 128,-1,6
 63.8105 -182.03 63.8105 -182.03 39.7666 -170.736 c 128,-1,7
 15.7256 -159.44 15.7256 -159.44 6.50488 -133.868 c 128,-1,8
 -2.71582 -108.296 -2.71582 -108.296 8.57812 -84.2646 c 2,9,-1
 520.846 1005.99 l 2,10,11
 532.141 1030.03 532.141 1030.03 557.714 1039.25 c 128,-1,0
 583.287 1048.47 583.287 1048.47 607.317 1037.18 c 128,-1,1
EndSplineSet
EndChar

StartChar: zero
Encoding: 16 48 17
Width: 1144
GlyphClass: 2
Flags: MW
LayerCount: 2
Fore
SplineSet
656.363 1225.25 m 1,0,1
 838.146 1192.25 838.146 1192.25 951.8 954.571 c 128,-1,2
 1065.45 716.888 1065.45 716.888 1044.48 496.162 c 128,-1,3
 1023.5 275.437 1023.5 275.437 946.573 182.987 c 0,4,5
 810.283 19.1984 810.283 19.1984 608.707 17.5752 c 0,6,7
 318.88 15.2417 318.88 15.2417 178.484 325.057 c 0,8,9
 87.1367 526.635 87.1367 526.635 102.269 774.717 c 128,-1,10
 117.4 1022.8 117.4 1022.8 213.739 1150.55 c 0,11,12
 386.708 1379.93 386.708 1379.93 631.922 1345.31 c 0,13,14
 658.224 1341.6 658.224 1341.6 674.567 1319.88 c 0,15,16
 717.091 1263.38 717.091 1263.38 656.363 1225.25 c 1,0,1
585.113 1219.57 m 1,17,18
 435.868 1229.21 435.868 1229.21 340.321 1102.5 c 128,-1,19
 244.774 975.795 244.774 975.795 231.817 763.355 c 128,-1,20
 218.859 550.915 218.859 550.915 295.557 381.664 c 0,21,22
 402.389 145.915 402.389 145.915 604.563 147.545 c 128,-1,23
 806.738 149.174 806.738 149.174 878.977 333.081 c 128,-1,24
 951.215 516.989 951.215 516.989 887.073 755.444 c 128,-1,25
 822.93 993.9 822.93 993.9 692.484 1074.01 c 0,26,27
 654.533 1097.32 654.533 1097.32 621.941 1098.96 c 0,28,29
 550.952 1102.52 550.952 1102.52 554.219 1167.45 c 0,30,31
 555.932 1201.52 555.932 1201.52 585.113 1219.57 c 1,17,18
EndSplineSet
EndChar

StartChar: one
Encoding: 17 49 18
Width: 620
GlyphClass: 2
Flags: MW
LayerCount: 2
Fore
SplineSet
116.589 1199.74 m 128,-1,1
 72.9425 1247.9 72.9425 1247.9 111.465 1282.81 c 0,2,3
 224.059 1384.83 224.059 1384.83 320.232 1355.7 c 0,4,5
 513.431 1297.18 513.431 1297.18 520.246 815.852 c 0,6,7
 524.534 513.068 524.534 513.068 465.912 304.694 c 128,-1,8
 407.29 96.3203 407.29 96.3203 354.626 24.3912 c 128,-1,9
 301.961 -47.5379 301.961 -47.5379 249.513 -9.14258 c 128,-1,10
 197.064 29.2605 197.064 29.2605 242.789 91.7069 c 128,-1,11
 288.514 154.153 288.514 154.153 341.397 342.128 c 128,-1,12
 394.28 530.103 394.28 530.103 390.356 807.16 c 128,-1,13
 386.433 1084.22 386.433 1084.22 320.504 1195.5 c 0,14,15
 298.733 1232.25 298.733 1232.25 280.175 1237.84 c 128,-1,16
 261.617 1243.44 261.617 1243.44 210.924 1197.5 c 128,-1,0
 160.23 1151.57 160.23 1151.57 116.589 1199.74 c 128,-1,1
EndSplineSet
EndChar

StartChar: two
Encoding: 18 50 19
Width: 1331
GlyphClass: 2
Flags: MW
LayerCount: 2
Fore
SplineSet
122.74 1031.8 m 128,-1,1
 73.1673 1073.83 73.1673 1073.83 115.205 1123.41 c 0,2,3
 314.52 1358.45 314.52 1358.45 514.62 1374.48 c 128,-1,4
 714.72 1390.5 714.72 1390.5 834.588 1282.06 c 128,-1,5
 954.456 1173.61 954.456 1173.61 965.899 1034.38 c 128,-1,6
 977.342 895.152 977.342 895.152 905.853 779.453 c 0,7,8
 743.515 516.724 743.515 516.724 439.294 185.344 c 1,9,10
 596.788 216.454 596.788 216.454 811.961 182.778 c 128,-1,11
 1027.13 149.102 1027.13 149.102 1117.47 178.822 c 128,-1,12
 1207.81 208.541 1207.81 208.541 1228.13 146.798 c 128,-1,13
 1248.44 85.0513 1248.44 85.0513 1182.99 63.5217 c 0,14,15
 1057.82 22.343 1057.82 22.343 957.092 33.295 c 128,-1,16
 856.365 44.2471 856.365 44.2471 673.478 72.8671 c 128,-1,17
 490.59 101.487 490.59 101.487 269.792 -3.43018 c 0,18,19
 192.721 -40.0527 192.721 -40.0527 167.139 -13.8355 c 0,20,21
 114.707 39.8983 114.707 39.8983 161.229 85.2939 c 2,22,-1
 202.82 125.877 l 2,23,24
 559.14 473.562 559.14 473.562 797.986 848.772 c 1,25,26
 844.328 926.543 844.328 926.543 836.713 1019.13 c 128,-1,27
 829.099 1111.72 829.099 1111.72 749.118 1184.08 c 128,-1,28
 669.137 1256.43 669.137 1256.43 523.935 1244.81 c 128,-1,29
 378.732 1233.18 378.732 1233.18 214.354 1039.33 c 0,30,0
 172.312 989.753 172.312 989.753 122.74 1031.8 c 128,-1,1
EndSplineSet
EndChar

StartChar: three
Encoding: 19 51 20
Width: 1180
GlyphClass: 2
Flags: MW
LayerCount: 2
Fore
SplineSet
124.654 1015.54 m 128,-1,1
 73.5482 1055.7 73.5482 1055.7 113.706 1106.81 c 0,2,3
 300.787 1344.88 300.787 1344.88 497.068 1366.87 c 128,-1,4
 693.35 1388.86 693.35 1388.86 814.697 1282.98 c 128,-1,5
 936.044 1177.1 936.044 1177.1 951.427 1037.94 c 0,6,7
 970.172 868.359 970.172 868.359 914.384 796.766 c 128,-1,8
 858.597 725.172 858.597 725.172 825.758 686.899 c 1,9,10
 977.961 602.814 977.961 602.814 1042.12 414.346 c 128,-1,11
 1106.28 225.877 1106.28 225.877 1068.85 122.716 c 0,12,13
 914.692 -302.181 914.692 -302.181 202.242 241.186 c 0,14,15
 150.563 280.599 150.563 280.599 178.324 317.003 c 0,16,17
 229.396 383.978 229.396 383.978 281.078 344.553 c 0,18,19
 627.023 80.7177 627.023 80.7177 814.51 72.4453 c 0,20,21
 910.78 68.1979 910.78 68.1979 939.633 147.724 c 128,-1,22
 968.486 227.25 968.486 227.25 925.752 352.781 c 128,-1,23
 883.019 478.312 883.019 478.312 823.638 527.839 c 128,-1,24
 764.257 577.365 764.257 577.365 728.77 587.296 c 1,25,26
 641.027 513.806 641.027 513.806 578.797 552.218 c 0,27,28
 536.668 578.223 536.668 578.223 536.467 614.301 c 0,29,30
 535.923 712.149 535.923 712.149 681.654 721.396 c 1,31,32
 727.124 768.333 727.124 768.333 790.81 849.689 c 1,33,34
 832.781 928.051 832.781 928.051 822.59 1020.25 c 128,-1,35
 812.399 1112.46 812.399 1112.46 731.69 1182.88 c 128,-1,36
 650.98 1253.3 650.98 1253.3 510.173 1237.52 c 128,-1,37
 369.365 1221.75 369.365 1221.75 215.924 1026.49 c 0,38,0
 175.758 975.375 175.758 975.375 124.654 1015.54 c 128,-1,1
EndSplineSet
EndChar

StartChar: four
Encoding: 20 52 21
Width: 1496
GlyphClass: 2
Flags: MW
LayerCount: 2
Fore
SplineSet
757.453 1104.4 m 128,-1,1
 784.009 1104.4 784.009 1104.4 803.23 1085.18 c 128,-1,2
 822.453 1065.96 822.453 1065.96 822.453 1039.4 c 2,3,-1
 822.453 722.934 l 1,4,5
 1213.47 770.685 1213.47 770.685 1282.18 744.052 c 0,6,7
 1393.18 701.021 1393.18 701.021 1396.14 623.813 c 0,8,9
 1397.16 597.277 1397.16 597.277 1378.69 577.333 c 128,-1,10
 1360.22 557.389 1360.22 557.389 1335.26 556.432 c 0,11,12
 1280.21 554.32 1280.21 554.32 1267.61 607.734 c 1,13,14
 1199.64 638.552 1199.64 638.552 822.453 591.97 c 1,15,-1
 822.453 89.127 l 2,16,17
 822.452 62.5713 822.452 62.5713 803.23 43.3486 c 128,-1,18
 784.013 24.127 784.013 24.127 757.453 24.127 c 128,-1,19
 730.891 24.127 730.891 24.127 711.672 43.3486 c 128,-1,20
 692.453 62.5713 692.453 62.5713 692.453 89.127 c 2,21,-1
 692.453 575.386 l 1,22,23
 685.84 574.519 685.84 574.519 519.348 552.606 c 128,-1,24
 352.856 530.692 352.856 530.692 287.039 538 c 128,-1,25
 221.221 545.308 221.221 545.308 203.985 549.25 c 128,-1,26
 186.75 553.192 186.75 553.192 166.459 561.494 c 0,27,28
 91.633 592.11 91.633 592.11 98.7931 655.777 c 128,-1,29
 105.953 719.443 105.953 719.443 151.554 773.134 c 0,30,31
 347.091 1003.36 347.091 1003.36 399.008 1070.57 c 128,-1,32
 450.926 1137.77 450.926 1137.77 571.974 1317.22 c 0,33,34
 608.326 1371.11 608.326 1371.11 646.275 1345.51 c 0,35,36
 716.09 1298.41 716.09 1298.41 679.748 1244.52 c 0,37,38
 556.312 1061.54 556.312 1061.54 502.158 991.447 c 128,-1,39
 448.004 921.355 448.004 921.355 346.225 801.521 c 128,-1,40
 244.446 681.688 244.446 681.688 239.529 674.814 c 1,41,42
 323.796 657.989 323.796 657.989 500.672 681.269 c 128,-1,43
 677.548 704.549 677.548 704.549 692.453 706.49 c 1,44,-1
 692.453 1039.4 l 2,45,46
 692.452 1065.96 692.452 1065.96 711.672 1085.18 c 128,-1,0
 730.895 1104.4 730.895 1104.4 757.453 1104.4 c 128,-1,1
EndSplineSet
EndChar

StartChar: five
Encoding: 21 53 22
Width: 1263
GlyphClass: 2
Flags: MW
LayerCount: 2
Fore
SplineSet
1094.33 1288.04 m 128,-1,1
 1115.84 1226.71 1115.84 1226.71 1042.12 1200.85 c 0,2,3
 885.891 1146.06 885.891 1146.06 714.233 1163.59 c 128,-1,4
 542.576 1181.11 542.576 1181.11 412.869 1204.47 c 128,-1,5
 283.162 1227.83 283.162 1227.83 243.497 1208.38 c 1,6,7
 228.971 1177.95 228.971 1177.95 243.361 1053 c 128,-1,8
 257.751 928.056 257.751 928.056 244.735 865.38 c 128,-1,9
 231.719 802.703 231.719 802.703 230.051 792.403 c 128,-1,10
 228.382 782.104 228.382 782.104 228.154 774.705 c 128,-1,11
 227.926 767.305 227.926 767.305 227.741 761.769 c 128,-1,12
 227.557 756.232 227.557 756.232 229.203 752.592 c 128,-1,13
 230.851 748.951 230.851 748.951 231.535 746.702 c 128,-1,14
 232.221 744.452 232.221 744.452 235.129 743.096 c 128,-1,15
 238.037 741.739 238.037 741.739 238.978 741.3 c 128,-1,16
 239.919 740.86 239.919 740.86 243.475 740.312 c 128,-1,17
 247.029 739.764 247.029 739.764 271.373 734.765 c 128,-1,18
 295.717 729.767 295.717 729.767 472.48 774.482 c 128,-1,19
 649.242 819.196 649.242 819.196 710.167 829.12 c 0,20,21
 1224.52 912.898 1224.52 912.898 1155.28 347.073 c 0,22,23
 1113.22 3.29168 1113.22 3.29168 875.013 -27.0186 c 128,-1,24
 636.808 -57.3289 636.808 -57.3289 164.413 237.893 c 0,25,26
 109.298 272.338 109.298 272.338 143.744 327.463 c 128,-1,27
 178.189 382.588 178.189 382.588 233.31 348.135 c 0,28,29
 888.39 -61.2609 888.39 -61.2609 992.454 212.686 c 0,30,31
 1015.19 272.534 1015.19 272.534 1026.24 362.856 c 0,32,33
 1053.18 583.021 1053.18 583.021 985.998 657.207 c 128,-1,34
 918.813 731.392 918.813 731.392 731.068 700.811 c 0,35,36
 675.699 691.792 675.699 691.792 493.416 645.682 c 128,-1,37
 311.133 599.572 311.133 599.572 226.491 613.23 c 128,-1,38
 141.848 626.888 141.848 626.888 115.357 697.756 c 128,-1,39
 88.8505 768.671 88.8505 768.671 108.046 846.849 c 128,-1,40
 127.242 925.027 127.242 925.027 114.448 1036.1 c 0,41,42
 87.9852 1265.86 87.9852 1265.86 169.661 1315.76 c 128,-1,43
 251.337 1365.66 251.337 1365.66 362.834 1345.58 c 0,44,45
 713.199 1282.48 713.199 1282.48 826.906 1292.75 c 128,-1,46
 940.613 1303.02 940.613 1303.02 1006.72 1326.2 c 128,-1,0
 1072.82 1349.38 1072.82 1349.38 1094.33 1288.04 c 128,-1,1
EndSplineSet
EndChar

StartChar: six
Encoding: 22 54 23
Width: 1177
GlyphClass: 2
Flags: MW
LayerCount: 2
Fore
SplineSet
663.362 1314.11 m 0,0,1
 697.401 1258.74 697.401 1258.74 635.375 1220.61 c 0,2,3
 435.19 1097.56 435.19 1097.56 304.624 816.775 c 0,4,5
 233.322 663.435 233.322 663.435 231.026 539.941 c 0,6,7
 223.782 150.232 223.782 150.232 618.428 155.562 c 0,8,9
 828.109 158.394 828.109 158.394 894.699 242.715 c 128,-1,10
 961.288 327.037 961.288 327.037 942.04 411.954 c 128,-1,11
 922.791 496.871 922.791 496.871 843.753 552.657 c 128,-1,12
 764.715 608.443 764.715 608.443 655.599 574.711 c 128,-1,13
 546.482 540.979 546.482 540.979 472.202 470.304 c 128,-1,14
 397.922 399.629 397.922 399.629 353.118 446.725 c 128,-1,15
 308.318 493.821 308.318 493.821 355.404 538.62 c 0,16,17
 478.969 656.178 478.969 656.178 633.197 703.856 c 128,-1,18
 787.425 751.534 787.425 751.534 912.982 662.915 c 128,-1,19
 1038.54 574.295 1038.54 574.295 1070.17 434.751 c 128,-1,20
 1101.8 295.208 1101.8 295.208 996.783 162.224 c 128,-1,21
 891.765 29.2393 891.765 29.2393 620.183 25.5732 c 0,22,23
 245.647 20.5181 245.647 20.5181 131.907 307.845 c 0,24,25
 74.8173 452.064 74.8173 452.064 108.268 613.412 c 0,26,27
 183.804 977.765 183.804 977.765 396.591 1189.85 c 128,-1,28
 609.379 1401.94 609.379 1401.94 663.362 1314.11 c 0,0,1
EndSplineSet
EndChar

StartChar: seven
Encoding: 23 55 24
Width: 908
GlyphClass: 2
Flags: MW
LayerCount: 2
Fore
SplineSet
113.478 1046.96 m 128,-1,1
 78.708 1101.88 78.708 1101.88 133.638 1136.64 c 0,2,3
 695.908 1492.51 695.908 1492.51 788.098 1176.29 c 0,4,5
 811.215 1097 811.215 1097 808.325 993.676 c 128,-1,6
 805.437 890.352 805.437 890.352 763.377 551.983 c 128,-1,7
 721.317 213.615 721.317 213.615 755.973 33.5234 c 0,8,9
 760.99 7.44629 760.99 7.44629 735.217 -30.6143 c 128,-1,10
 709.443 -68.6748 709.443 -68.6748 666.219 -39.3936 c 128,-1,11
 622.994 -10.1133 622.994 -10.1133 612.001 144.758 c 128,-1,12
 601.009 299.628 601.009 299.628 638.335 599.918 c 128,-1,13
 675.661 900.208 675.661 900.208 679.207 1027 c 128,-1,14
 682.752 1153.79 682.752 1153.79 632.639 1185.55 c 0,15,16
 543.373 1242.12 543.373 1242.12 203.163 1026.79 c 0,17,0
 148.236 992.038 148.236 992.038 113.478 1046.96 c 128,-1,1
EndSplineSet
EndChar

StartChar: eight
Encoding: 24 56 25
Width: 1189
GlyphClass: 2
Flags: MW
LayerCount: 2
Fore
SplineSet
820.369 1001.79 m 128,-1,1
 759.031 1023.3 759.031 1023.3 774.841 1070.86 c 128,-1,2
 790.651 1118.43 790.651 1118.43 718.473 1157.14 c 128,-1,3
 646.294 1195.85 646.294 1195.85 466.156 1193.61 c 128,-1,4
 286.018 1191.37 286.018 1191.37 242.822 1106.76 c 128,-1,5
 199.625 1022.15 199.625 1022.15 307.373 882.954 c 1,6,7
 417.73 794.698 417.73 794.698 527.766 728.905 c 1,8,9
 590.137 775.892 590.137 775.892 729.476 873.116 c 128,-1,10
 868.814 970.34 868.814 970.34 918.085 1022.38 c 128,-1,11
 967.355 1074.43 967.355 1074.43 1014.56 1029.75 c 128,-1,12
 1061.77 985.055 1061.77 985.055 1007.93 928.194 c 128,-1,13
 954.097 871.332 954.097 871.332 822.7 779.648 c 128,-1,14
 691.303 687.963 691.303 687.963 655.957 662.148 c 1,15,16
 679.024 651.277 679.024 651.277 787.245 602.694 c 128,-1,17
 895.465 554.111 895.465 554.111 967.22 472.735 c 128,-1,18
 1038.97 391.359 1038.97 391.359 1071.41 325.28 c 128,-1,19
 1103.85 259.2 1103.85 259.2 1080.95 185.576 c 128,-1,20
 1058.05 111.952 1058.05 111.952 959.347 50.7593 c 128,-1,21
 860.641 -10.4336 860.641 -10.4336 656.824 -12.4121 c 128,-1,22
 453.007 -14.3906 453.007 -14.3906 344.254 44.0376 c 0,23,24
 -31.4522 245.889 -31.4522 245.889 419.838 642.713 c 1,25,26
 243.111 754.64 243.111 754.64 205.705 801.882 c 0,27,28
 113.558 918.259 113.558 918.259 100.137 1036.77 c 128,-1,29
 86.7148 1155.28 86.7148 1155.28 196.288 1238.45 c 128,-1,30
 305.86 1321.62 305.86 1321.62 492.029 1323.94 c 128,-1,31
 678.197 1326.26 678.197 1326.26 771.224 1276.36 c 0,32,33
 951.615 1179.61 951.615 1179.61 903.217 1041.61 c 0,34,0
 881.705 980.276 881.705 980.276 820.369 1001.79 c 128,-1,1
539.861 573.961 m 1,35,36
 343.01 413.931 343.01 413.931 309.821 291.629 c 0,37,38
 290.517 220.482 290.517 220.482 387.821 168.205 c 128,-1,39
 485.126 115.928 485.126 115.928 654.08 117.567 c 128,-1,40
 823.033 119.207 823.033 119.207 888.43 159.75 c 128,-1,41
 953.826 200.292 953.826 200.292 960.827 221.794 c 128,-1,42
 967.828 243.297 967.828 243.297 940.781 290.064 c 0,43,44
 866.644 418.254 866.644 418.254 740.841 479.504 c 0,45,46
 700.702 499.046 700.702 499.046 648.205 522.613 c 128,-1,47
 595.826 546.127 595.826 546.127 539.861 573.961 c 1,35,36
EndSplineSet
EndChar

StartChar: nine
Encoding: 25 57 26
Width: 1085
GlyphClass: 2
Flags: MW
LayerCount: 2
Fore
SplineSet
881.72 1050.06 m 128,-1,1
 855.878 1056.18 855.878 1056.18 841.603 1079.31 c 128,-1,2
 827.326 1102.44 827.326 1102.44 833.111 1126.87 c 0,3,4
 843.59 1171.13 843.59 1171.13 758.469 1207.02 c 128,-1,5
 673.348 1242.91 673.348 1242.91 512.302 1227.51 c 128,-1,6
 351.257 1212.11 351.257 1212.11 291.836 1164.97 c 128,-1,7
 232.416 1117.83 232.416 1117.83 224.647 1075.6 c 128,-1,8
 216.878 1033.36 216.878 1033.36 292.304 950.221 c 128,-1,9
 367.729 867.077 367.729 867.077 413.328 856.331 c 0,10,11
 561.736 821.357 561.736 821.357 826.503 972.661 c 0,12,13
 932.423 1033.15 932.423 1033.15 972.846 948.613 c 0,14,15
 993.394 905.639 993.394 905.639 958.623 607.832 c 128,-1,16
 923.852 310.025 923.852 310.025 967.586 80.127 c 0,17,18
 972.55 54.0391 972.55 54.0391 946.702 16.0312 c 128,-1,19
 920.854 -21.9766 920.854 -21.9766 879.757 5.98295 c 128,-1,20
 838.66 33.9425 838.66 33.9425 819.373 202.462 c 128,-1,21
 800.086 370.982 800.086 370.982 824.315 578.504 c 128,-1,22
 848.545 786.025 848.545 786.025 852.696 838.015 c 1,23,24
 611.444 701.795 611.444 701.795 485.561 712.77 c 0,25,26
 259.36 732.49 259.36 732.49 147.736 930.268 c 128,-1,27
 36.112 1128.05 36.112 1128.05 189.788 1249.95 c 0,28,29
 300.595 1337.85 300.595 1337.85 497.111 1356.65 c 128,-1,30
 693.628 1375.45 693.628 1375.45 797.012 1331.85 c 0,31,32
 995.437 1248.18 995.437 1248.18 959.948 1098.33 c 0,33,34
 953.827 1072.48 953.827 1072.48 930.693 1058.21 c 128,-1,0
 907.561 1043.94 907.561 1043.94 881.72 1050.06 c 128,-1,1
EndSplineSet
EndChar

StartChar: less
Encoding: 28 60 29
Width: 876
GlyphClass: 2
Flags: MW
LayerCount: 2
Fore
SplineSet
748.641 859.642 m 128,-1,1
 761.114 836.2 761.114 836.2 753.173 810.202 c 128,-1,2
 745.232 784.204 745.232 784.204 721.782 771.729 c 2,3,-1
 296.142 545.308 l 1,4,-1
 729.876 365.552 l 2,5,6
 754.408 355.385 754.408 355.385 764.808 330.271 c 128,-1,7
 775.207 305.157 775.207 305.157 765.038 280.619 c 128,-1,8
 754.868 256.081 754.868 256.081 729.752 245.686 c 128,-1,9
 704.637 235.29 704.637 235.29 680.104 245.457 c 2,10,-1
 119.114 477.953 l 2,11,12
 97.5679 486.883 97.5679 486.883 86.6143 507.473 c 0,13,14
 74.1435 530.917 74.1435 530.917 82.0871 556.916 c 128,-1,15
 90.0306 582.915 90.0306 582.915 113.473 595.386 c 2,16,-1
 660.728 886.501 l 2,17,18
 684.182 898.975 684.182 898.975 710.175 891.031 c 128,-1,0
 736.169 883.087 736.169 883.087 748.641 859.642 c 128,-1,1
EndSplineSet
EndChar

StartChar: greater
Encoding: 30 62 31
Width: 857
GlyphClass: 2
Flags: MW
LayerCount: 2
Fore
SplineSet
101.214 859.642 m 128,-1,1
 113.685 883.087 113.685 883.087 139.679 891.031 c 128,-1,2
 165.673 898.975 165.673 898.975 189.126 886.501 c 2,3,-1
 736.381 595.386 l 2,4,5
 759.824 582.915 759.824 582.915 767.768 556.916 c 128,-1,6
 775.711 530.917 775.711 530.917 763.999 508.899 c 128,-1,7
 752.286 486.882 752.286 486.882 730.74 477.953 c 2,8,-1
 169.75 245.457 l 2,9,10
 145.218 235.29 145.218 235.29 120.102 245.686 c 128,-1,11
 94.9864 256.081 94.9864 256.081 84.8168 280.619 c 128,-1,12
 74.6473 305.157 74.6473 305.157 85.0466 330.271 c 128,-1,13
 95.446 355.385 95.446 355.385 119.978 365.552 c 2,14,-1
 553.713 545.308 l 1,15,-1
 128.073 771.729 l 2,16,17
 104.623 784.205 104.623 784.205 96.6819 810.202 c 128,-1,0
 88.7412 836.2 88.7412 836.2 101.214 859.642 c 128,-1,1
EndSplineSet
EndChar

StartChar: question
Encoding: 31 63 32
Width: 855
GlyphClass: 2
Flags: MW
LayerCount: 2
Fore
SplineSet
170.303 888.333 m 0,0,1
 184.18 1118.92 184.18 1118.92 339.668 1155.93 c 0,2,3
 415.705 1174.03 415.705 1174.03 506.782 1149.58 c 0,4,5
 791.91 1073.02 791.91 1073.02 835.094 953.008 c 0,6,7
 878.279 832.991 878.279 832.991 741.48 698.325 c 0,8,9
 665.524 623.556 665.524 623.556 606.594 569.176 c 0,10,11
 547.665 514.795 547.665 514.795 537.139 492.987 c 0,12,13
 526.613 471.18 526.613 471.18 514.907 450.286 c 0,14,15
 422.736 285.767 422.736 285.767 541.751 130.587 c 0,16,17
 579.408 81.4866 579.408 81.4866 527.825 41.9293 c 0,18,19
 452.983 -15.4535 452.983 -15.4535 378.169 160.613 c 0,20,21
 303.354 336.679 303.354 336.679 411.312 531.344 c 1,22,23
 442.723 594.85 442.723 594.85 586.52 727.542 c 0,24,25
 730.317 860.233 730.317 860.233 715.522 901.351 c 0,26,27
 691.935 966.903 691.935 966.903 467.608 1024.37 c 1,28,29
 380.712 1049.11 380.712 1049.11 343.545 1017.24 c 0,30,31
 306.379 985.367 306.379 985.367 303.075 930.484 c 0,32,33
 299.771 875.602 299.771 875.602 305.631 830.453 c 0,34,35
 311.492 785.305 311.492 785.305 283.445 748.896 c 0,36,37
 255.398 712.488 255.398 712.488 209.678 747.697 c 0,38,39
 163.958 782.906 163.958 782.906 170.303 888.333 c 0,0,1
EndSplineSet
Refer: 15 46 N 0.904335 0 0 1.22675 299.608 -348.004 2
EndChar

StartChar: at
Encoding: 32 64 33
Width: 1390
GlyphClass: 2
Flags: MW
LayerCount: 2
Fore
SplineSet
960.495 511.272 m 5,0,1
 969.293 491.218 969.293 491.218 966.351 472.44 c 4,2,3
 941.885 316.346 941.885 316.346 992.05 236.129 c 4,4,5
 1047.6 147.308 1047.6 147.308 1118.17 290.322 c 4,6,7
 1158.69 372.436 1158.69 372.436 1169.84 524.189 c 4,8,9
 1178.66 644.297 1178.66 644.297 1067.02 750.98 c 132,-1,10
 955.374 857.665 955.374 857.665 778.145 900.229 c 132,-1,11
 600.916 942.791 600.916 942.791 456.561 876.997 c 4,12,13
 249.42 782.587 249.42 782.587 226.2 486.867 c 5,14,15
 203.412 302.586 203.412 302.586 342.137 171.665 c 4,16,17
 431.859 86.9883 431.859 86.9883 570.051 83.7744 c 4,18,19
 596.6 83.1562 596.6 83.1562 615.37 63.4961 c 132,-1,20
 634.14 43.835 634.14 43.835 633.522 17.2803 c 132,-1,21
 632.904 -9.27441 632.904 -9.27441 613.241 -28.041 c 132,-1,22
 593.577 -46.8076 593.577 -46.8076 567.028 -46.1904 c 4,23,24
 378.936 -41.8164 378.936 -41.8164 255.875 74.3213 c 132,-1,25
 132.815 190.459 132.815 190.459 102.536 346.576 c 4,26,27
 87.6924 423.108 87.6924 423.108 94.7217 491.958 c 4,28,29
 133.585 872.657 133.585 872.657 402.646 995.29 c 4,30,31
 587.74 1079.65 587.74 1079.65 803.778 1027.77 c 132,-1,32
 1019.82 975.885 1019.82 975.885 1166.31 835.91 c 132,-1,33
 1312.8 695.936 1312.8 695.936 1299.64 516.787 c 132,-1,34
 1286.49 337.638 1286.49 337.638 1230.79 224.772 c 4,35,36
 1163.24 87.8691 1163.24 87.8691 1055.72 74.4702 c 132,-1,37
 948.205 61.0713 948.205 61.0713 881.83 167.197 c 4,38,39
 860.521 201.271 860.521 201.271 847.495 242.536 c 5,40,41
 773.243 145.583 773.243 145.583 693.291 121.562 c 4,42,43
 545.145 77.0498 545.145 77.0498 434.199 188.729 c 4,44,45
 344.768 278.75 344.768 278.75 320.116 428.469 c 132,-1,46
 295.465 578.188 295.465 578.188 387.94 684.483 c 4,47,48
 517.997 833.975 517.997 833.975 812.5 775.8 c 4,49,50
 860.82 766.254 860.82 766.254 902.9 730.762 c 4,51,52
 970.524 673.728 970.524 673.728 976.619 606.311 c 132,-1,53
 982.713 538.894 982.713 538.894 960.495 511.272 c 5,0,1
851.877 523.729 m 5,54,55
 842.524 543.896 842.524 543.896 846.504 567.288 c 4,56,57
 856.01 623.159 856.01 623.159 783.063 649.092 c 5,58,59
 565.788 690.846 565.788 690.846 486.016 599.153 c 4,60,61
 433.317 538.579 433.317 538.579 449.594 439.942 c 132,-1,62
 465.869 341.306 465.869 341.306 525.931 280.846 c 132,-1,63
 585.992 220.387 585.992 220.387 639.081 238.462 c 4,64,65
 752.172 276.966 752.172 276.966 841.58 506.133 c 4,66,67
 845.322 515.724 845.322 515.724 851.877 523.729 c 5,54,55
EndSplineSet
EndChar

StartChar: braceleft
Encoding: 33 123 34
Width: 526
GlyphClass: 2
Flags: MW
LayerCount: 2
Fore
SplineSet
451 -371 m 2,0,1
 262 -371 262 -371 262 -148 c 2,2,-1
 262 150 l 2,3,4
 262 375 262 375 117 403 c 1,5,-1
 117 509 l 1,6,7
 262 541 262 541 262 764 c 2,8,-1
 262 1062 l 2,9,10
 262 1283 262 1283 451 1283 c 2,11,-1
 525 1283 l 1,12,-1
 525 1189 l 1,13,14
 443 1189 443 1189 411.5 1164.5 c 128,-1,15
 380 1140 380 1140 380 1060 c 2,16,-1
 380 737 l 2,17,18
 380 525 380 525 211 457 c 1,19,20
 380 383 380 383 380 176 c 2,21,-1
 380 -145 l 2,22,23
 380 -229 380 -229 413 -252 c 128,-1,24
 446 -275 446 -275 525 -277 c 1,25,-1
 525 -371 l 1,26,-1
 451 -371 l 2,0,1
EndSplineSet
Validated: 1
EndChar

StartChar: bar
Encoding: 34 124 35
Width: 335
GlyphClass: 2
Flags: MW
LayerCount: 2
Fore
SplineSet
180 1238.9 m 128,-1,1
 207 1238.9 207 1238.9 226 1219.9 c 128,-1,2
 245 1200.9 245 1200.9 245 1173.9 c 2,3,-1
 245 -218.1 l 2,4,5
 245 -245.1 245 -245.1 226 -264.1 c 128,-1,6
 207 -283.1 207 -283.1 180 -283.1 c 128,-1,7
 153 -283.1 153 -283.1 134 -264.1 c 128,-1,8
 115 -245.1 115 -245.1 115 -218.1 c 2,9,-1
 115 1173.9 l 2,10,11
 115 1200.9 115 1200.9 134 1219.9 c 128,-1,0
 153 1238.9 153 1238.9 180 1238.9 c 128,-1,1
EndSplineSet
EndChar

StartChar: braceright
Encoding: 35 125 36
Width: 504
GlyphClass: 2
Flags: MW
LayerCount: 2
Fore
SplineSet
328 150 m 2,0,-1
 328 -148 l 2,1,2
 328 -371 328 -371 136 -371 c 2,3,-1
 59 -371 l 1,4,-1
 59 -277 l 1,5,6
 143 -275 143 -275 175 -252 c 128,-1,7
 207 -229 207 -229 207 -145 c 2,8,-1
 207 176 l 2,9,10
 207 383 207 383 377 455 c 1,11,12
 207 530 207 530 207 737 c 2,13,-1
 207 1060 l 2,14,15
 207 1140 207 1140 174 1164.5 c 128,-1,16
 141 1189 141 1189 59 1189 c 1,17,-1
 59 1283 l 1,18,-1
 136 1283 l 2,19,20
 328 1283 328 1283 328 1062 c 2,21,-1
 328 764 l 2,22,23
 328 542 328 542 467 509 c 1,24,-1
 467 403 l 1,25,26
 328 371 328 371 328 150 c 2,0,-1
EndSplineSet
Validated: 1
EndChar

StartChar: asciitilde
Encoding: 36 126 37
Width: 910
GlyphClass: 2
Flags: MW
LayerCount: 2
Fore
SplineSet
882 933 m 2,0,1
 882 704 882 704 707 704 c 0,2,3
 623 704 623 704 540 763 c 2,4,-1
 395 866 l 2,5,6
 348 899 348 899 304 899 c 0,7,8
 209 899 209 899 196 751 c 1,9,-1
 123 751 l 1,10,11
 139 1002 139 1002 306 1002 c 0,12,13
 355 1002 355 1002 397 975 c 2,14,-1
 609 839 l 2,15,16
 659 807 659 807 705 807 c 0,17,18
 805 807 805 807 808 950 c 1,19,-1
 882 950 l 1,20,-1
 882 933 l 2,0,1
EndSplineSet
Validated: 1
EndChar

StartChar: anuswara
Encoding: 38 3330 39
Width: 773
GlyphClass: 2
Flags: MW
LayerCount: 2
Fore
SplineSet
392.318 139.764 m 1,0,1
 494.985 149.689 494.985 149.689 529.98 201.587 c 1,2,3
 547.508 232.165 547.508 232.165 542.294 266.102 c 0,4,5
 536.252 305.425 536.252 305.425 510.138 335.463 c 0,6,7
 484.294 365.189 484.294 365.189 443.171 377.028 c 0,8,9
 396.202 390.55 396.202 390.55 354.61 385.601 c 0,10,11
 308.852 380.155 308.852 380.155 282.463 369.257 c 0,12,13
 250.886 356.216 250.886 356.216 240.466 342.23 c 128,-1,14
 230.047 328.245 230.047 328.245 230 304.904 c 0,15,16
 229.878 244.558 229.878 244.558 281.248 189.703 c 0,17,18
 329.303 138.389 329.303 138.389 392.318 139.764 c 1,0,1
398.584 9.89355 m 0,19,20
 275.522 5.62988 275.522 5.62988 186.36 100.842 c 0,21,22
 99.7754 193.302 99.7754 193.302 100.001 305.17 c 0,23,24
 100.128 367.935 100.128 367.935 136.035 416.099 c 128,-1,25
 171.943 464.263 171.943 464.263 232.839 489.413 c 0,26,27
 275.744 507.133 275.744 507.133 339.248 514.689 c 0,28,29
 406.924 522.743 406.924 522.743 479.136 501.954 c 0,30,31
 557.188 479.484 557.188 479.484 608.248 420.753 c 0,32,33
 659.033 362.338 659.033 362.338 670.785 285.848 c 0,34,35
 683.228 204.87 683.228 204.87 640.295 132.742 c 1,36,37
 570.325 25.5605 570.325 25.5605 402.279 10.127 c 0,38,39
 400.435 9.95801 400.435 9.95801 398.584 9.89355 c 0,19,20
EndSplineSet
EndChar

StartChar: ml_a
Encoding: 40 3333 41
Width: 2371
GlyphClass: 2
Flags: MW
LayerCount: 2
Fore
SplineSet
594.218 546.788 m 1,0,1
 546.41 559.632 546.41 559.632 540.546 602.509 c 0,2,3
 536.862 629.443 536.862 629.443 546.593 642.258 c 128,-1,4
 556.324 655.072 556.324 655.072 571.814 676.104 c 0,5,6
 655.286 789.437 655.286 789.437 621.286 849.886 c 0,7,8
 606.93 875.411 606.93 875.411 529.024 876.515 c 128,-1,9
 451.119 877.618 451.119 877.618 364.619 817.78 c 0,10,11
 255.568 742.343 255.568 742.343 234.711 615.472 c 0,12,13
 197.704 390.356 197.704 390.356 451.33 86.4307 c 0,14,15
 468.349 66.0332 468.349 66.0332 465.903 38.9629 c 128,-1,16
 463.459 11.8926 463.459 11.8926 443.07 -5.12207 c 128,-1,17
 422.685 -22.1367 422.685 -22.1367 395.61 -19.6963 c 128,-1,18
 368.537 -17.2559 368.537 -17.2559 351.519 3.1377 c 0,19,20
 59.7754 352.739 59.7754 352.739 106.433 636.559 c 0,21,22
 136.238 817.868 136.238 817.868 290.661 924.692 c 0,23,24
 411.369 1008.19 411.369 1008.19 547.467 1006.27 c 128,-1,25
 683.565 1004.34 683.565 1004.34 737.87 907.79 c 0,26,27
 765.314 858.998 765.314 858.998 760.899 798.418 c 1,28,29
 847.824 892.848 847.824 892.848 943.385 939.293 c 128,-1,30
 1038.95 985.739 1038.95 985.739 1129.11 964.44 c 0,31,32
 1296.36 924.935 1296.36 924.935 1363.8 660.285 c 1,33,34
 1475.87 891.119 1475.87 891.119 1672.85 962.965 c 0,35,36
 1847.03 1026.49 1847.03 1026.49 2015.87 932.128 c 128,-1,37
 2184.72 837.764 2184.72 837.764 2250.27 590.434 c 128,-1,38
 2315.83 343.103 2315.83 343.103 2179.43 167.087 c 0,39,40
 2086.44 47.0918 2086.44 47.0918 1941.31 7.57715 c 128,-1,41
 1796.19 -31.9375 1796.19 -31.9375 1695.48 28.3232 c 0,42,43
 1632.91 65.7607 1632.91 65.7607 1609.65 131.254 c 0,44,45
 1563.12 262.208 1563.12 262.208 1672.43 450.131 c 0,46,47
 1711.28 517.135 1711.28 517.135 1778.33 566.17 c 0,48,49
 1904.96 658.779 1904.96 658.779 2027.57 598.963 c 0,50,51
 2097.67 564.766 2097.67 564.766 2139.47 478.389 c 1,52,53
 2134.58 525.689 2134.58 525.689 2118.33 578.877 c 0,54,55
 2064.2 756.193 2064.2 756.193 1949.9 820.071 c 128,-1,56
 1835.61 883.949 1835.61 883.949 1712.19 838.935 c 128,-1,57
 1588.77 793.92 1588.77 793.92 1507.83 653.911 c 128,-1,58
 1426.89 513.902 1426.89 513.902 1406.1 335.288 c 1,59,60
 1411.95 203.01 1411.95 203.01 1405.93 42.3506 c 0,61,62
 1404.93 15.8154 1404.93 15.8154 1385 -2.67383 c 128,-1,63
 1365.07 -21.1641 1365.07 -21.1641 1339.45 -20.2046 c 128,-1,64
 1313.84 -19.2451 1313.84 -19.2451 1296.08 -1.10742 c 128,-1,65
 1278.32 17.0303 1278.32 17.0303 1276.26 38.627 c 0,66,67
 1260.9 200.12 1260.9 200.12 1275.77 339.499 c 1,68,69
 1260.31 658.897 1260.31 658.897 1173.85 781.786 c 0,70,71
 1137.93 832.833 1137.93 832.833 1099.84 841.842 c 128,-1,72
 1061.74 850.85 1061.74 850.85 998.698 821.251 c 0,73,74
 893.744 770.669 893.744 770.669 794.916 634.548 c 1,75,76
 922.131 588.765 922.131 588.765 994.294 505.019 c 0,77,78
 1028.63 465.165 1028.63 465.165 1040.13 425.685 c 0,79,80
 1097.86 227.344 1097.86 227.344 1009.32 93.7832 c 0,81,82
 942.796 -6.55957 942.796 -6.55957 826.474 -19.4084 c 128,-1,83
 710.152 -32.2572 710.152 -32.2572 628.949 65.791 c 0,84,85
 521.938 195 521.938 195 563.234 442.778 c 0,86,87
 571.543 492.632 571.543 492.632 594.218 546.788 c 1,0,1
725.132 520.836 m 1,88,89
 699.089 467.139 699.089 467.139 691.466 421.407 c 0,90,91
 659.925 232.195 659.925 232.195 729.07 148.711 c 0,92,93
 765.559 104.655 765.559 104.655 816.799 110.313 c 128,-1,94
 868.057 115.976 868.057 115.976 900.964 165.614 c 0,95,96
 956.187 248.912 956.187 248.912 915.308 389.351 c 0,97,98
 905.754 422.172 905.754 422.172 851.85 460.265 c 128,-1,99
 797.945 498.359 797.945 498.359 725.132 520.836 c 1,88,89
2108.57 296.605 m 1,100,101
 2054.47 297.218 2054.47 297.218 2041.89 365.548 c 0,102,103
 2034.84 403.874 2034.84 403.874 2014.13 437.427 c 128,-1,104
 1993.41 470.98 1993.41 470.98 1970.21 482.299 c 0,105,106
 1918.42 507.569 1918.42 507.569 1869.12 471.513 c 128,-1,107
 1819.82 435.457 1819.82 435.457 1783.67 382.81 c 1,108,109
 1740.55 307.953 1740.55 307.953 1730.96 253.216 c 128,-1,110
 1721.38 198.479 1721.38 198.479 1729.1 176.779 c 128,-1,111
 1736.83 155.078 1736.83 155.078 1762.23 139.877 c 0,112,113
 1815.45 108.038 1815.45 108.038 1912.88 134.568 c 0,114,115
 2043.46 170.124 2043.46 170.124 2108.57 296.605 c 1,100,101
EndSplineSet
EndChar

StartChar: ml_aa
Encoding: 41 3334 42
Width: 2686
GlyphClass: 2
Flags: MW
LayerCount: 2
Fore
SplineSet
1771.2 506.284 m 0,0,1
 1910.71 697.833 1910.71 697.833 2064.4 751.999 c 1,2,3
 2031.69 807.979 2031.69 807.979 1986.11 842.357 c 0,4,5
 1943.73 874.334 1943.73 874.334 1902.16 881.387 c 128,-1,6
 1860.59 888.44 1860.59 888.44 1812.18 872.2 c 0,7,8
 1703.85 836.202 1703.85 836.202 1625.94 695.985 c 0,9,10
 1574.45 603.307 1574.45 603.307 1547.17 484.63 c 0,11,12
 1529.21 406.499 1529.21 406.499 1521.73 316.528 c 1,13,14
 1525.52 198.032 1525.52 198.032 1520.34 59.9717 c 0,15,16
 1519.35 33.4365 1519.35 33.4365 1499.42 14.9473 c 128,-1,17
 1479.49 -3.54297 1479.49 -3.54297 1452.96 -2.54883 c 0,18,19
 1428 -1.61426 1428 -1.61426 1409.97 16.5166 c 128,-1,20
 1391.95 34.6475 1391.95 34.6475 1390.51 58.4824 c 0,21,22
 1382.1 197.705 1382.1 197.705 1391.55 319.551 c 1,23,24
 1388.15 416.918 1388.15 416.918 1378.33 498.603 c 0,25,26
 1368.89 577.089 1368.89 577.089 1353.36 641.873 c 0,27,28
 1299.24 865.633 1299.24 865.633 1190.12 876.422 c 0,29,30
 1098.81 885.449 1098.81 885.449 977.628 767.464 c 0,31,32
 890.037 682.187 890.037 682.187 830.587 574.28 c 1,33,34
 1032.18 549.788 1032.18 549.788 1108.19 439.102 c 1,35,36
 1147.27 377.96 1147.27 377.96 1146.67 312.134 c 128,-1,37
 1146.08 246.309 1146.08 246.309 1110.7 177.271 c 0,38,39
 1057.37 73.1709 1057.37 73.1709 958.458 11.126 c 0,40,41
 831.49 -68.5225 831.49 -68.5225 732.588 -12.6543 c 0,42,43
 657.148 29.96 657.148 29.96 637.117 123.087 c 128,-1,44
 617.087 216.215 617.087 216.215 635.086 352.614 c 0,45,46
 641.176 398.76 641.176 398.76 651.757 450.396 c 1,47,48
 640.633 449.987 640.633 449.987 629.852 449.446 c 0,49,50
 604.444 448.171 604.444 448.171 584.922 464.479 c 0,51,52
 564.544 481.503 564.544 481.503 562.114 508.58 c 128,-1,53
 559.686 535.657 559.686 535.657 576.709 556.035 c 0,54,55
 594.217 576.994 594.217 576.994 609.106 597.341 c 0,56,57
 627.57 622.573 627.57 622.573 641.956 646.791 c 0,58,59
 720.316 778.702 720.316 778.702 671.982 854.209 c 0,60,61
 637.147 908.63 637.147 908.63 550.899 920.929 c 0,62,63
 450.284 935.276 450.284 935.276 361.698 882.744 c 0,64,65
 255.388 819.701 255.388 819.701 234.766 690.195 c 0,66,67
 196.582 450.408 196.582 450.408 458.651 82.4961 c 0,68,69
 474.062 60.8584 474.062 60.8584 469.557 34.0537 c 128,-1,70
 465.051 7.25 465.051 7.25 443.422 -8.15723 c 128,-1,71
 421.796 -23.5654 421.796 -23.5654 394.987 -19.0635 c 128,-1,72
 368.179 -14.5615 368.179 -14.5615 352.769 7.07227 c 0,73,74
 59.832 418.308 59.832 418.308 106.383 710.64 c 0,75,76
 136.601 900.398 136.601 900.398 295.391 994.562 c 0,77,78
 422.823 1070.13 422.823 1070.13 569.312 1049.62 c 0,79,80
 714.807 1028.44 714.807 1028.44 781.473 924.294 c 0,81,82
 820.432 863.433 820.432 863.433 820.717 789.236 c 1,83,84
 852.126 826.712 852.126 826.712 886.94 860.607 c 0,85,86
 1051.44 1020.77 1051.44 1020.77 1202.91 1005.79 c 0,87,88
 1399.57 986.347 1399.57 986.347 1476.34 686.062 c 1,89,90
 1492.83 724.066 1492.83 724.066 1512.31 759.125 c 0,91,92
 1614.81 943.601 1614.81 943.601 1771.18 995.565 c 0,93,94
 1848.44 1021.09 1848.44 1021.09 1923.66 1008.33 c 128,-1,95
 1998.88 995.566 1998.88 995.566 2064.4 946.141 c 0,96,97
 2149.12 882.235 2149.12 882.235 2199.77 773.111 c 1,98,99
 2346.77 767.922 2346.77 767.922 2456.06 645.424 c 0,100,101
 2566.06 522.132 2566.06 522.132 2583.53 344.137 c 0,102,103
 2604.34 132.073 2604.34 132.073 2479.45 -35.2568 c 0,104,105
 2310.46 -261.663 2310.46 -261.663 1937.77 -306.549 c 0,106,107
 1881.1 -313.374 1881.1 -313.374 1820.31 -315.68 c 0,108,109
 1793.77 -316.687 1793.77 -316.687 1773.83 -298.21 c 128,-1,110
 1753.9 -279.734 1753.9 -279.734 1752.89 -253.19 c 128,-1,111
 1751.88 -226.648 1751.88 -226.648 1770.36 -206.714 c 128,-1,112
 1788.84 -186.78 1788.84 -186.78 1815.38 -185.773 c 0,113,114
 1870.84 -183.67 1870.84 -183.67 1922.23 -177.481 c 0,115,116
 2239.61 -139.258 2239.61 -139.258 2375.26 42.5 c 0,117,118
 2470.04 169.484 2470.04 169.484 2454.15 331.448 c 0,119,120
 2440.83 467.229 2440.83 467.229 2359.05 558.885 c 0,121,122
 2307.03 617.189 2307.03 617.189 2245.87 635.249 c 1,123,124
 2251.12 612.314 2251.12 612.314 2255.31 588.553 c 0,125,126
 2255.85 585.505 2255.85 585.505 2256.38 582.361 c 0,127,128
 2304.58 297.344 2304.58 297.344 2181.5 125.337 c 0,129,130
 2096.98 7.20996 2096.98 7.20996 1967.25 -13.7363 c 0,131,132
 1841.03 -34.1162 1841.03 -34.1162 1756.44 47.6475 c 0,133,134
 1654.15 146.525 1654.15 146.525 1694.02 321.398 c 0,135,136
 1713.63 407.418 1713.63 407.418 1769.23 502.994 c 0,137,138
 1769.48 503.412 1769.48 503.412 1771.2 506.284 c 0,0,1
784.224 448.292 m 1,139,140
 770.834 387.643 770.834 387.643 763.969 335.608 c 0,141,142
 752.221 256.277 752.221 256.277 757.936 204.897 c 128,-1,143
 763.65 153.518 763.65 153.518 773.491 130.753 c 128,-1,144
 783.332 107.988 783.332 107.988 796.525 100.536 c 0,145,146
 828.006 82.7539 828.006 82.7539 889.377 121.252 c 0,147,148
 957.98 164.287 957.98 164.287 995.007 236.552 c 0,149,150
 1017.72 280.879 1017.72 280.879 1018 312.747 c 128,-1,151
 1018.28 344.614 1018.28 344.614 1001.02 365.507 c 1,152,153
 953.635 434.515 953.635 434.515 784.224 448.292 c 1,139,140
2112.94 631.188 m 1,154,155
 1995.51 592.724 1995.51 592.724 1879.95 434.78 c 1,156,157
 1835.62 357.649 1835.62 357.649 1820.77 292.5 c 0,158,159
 1797.19 189.068 1797.19 189.068 1846.79 141.117 c 0,160,161
 1884.57 104.599 1884.57 104.599 1946.53 114.603 c 0,162,163
 2022.78 126.913 2022.78 126.913 2075.78 200.987 c 0,164,165
 2167.41 329.034 2167.41 329.034 2128.2 560.668 c 0,166,167
 2127.75 563.354 2127.75 563.354 2127.28 566.026 c 0,168,169
 2121.3 599.967 2121.3 599.967 2112.94 631.188 c 1,154,155
EndSplineSet
EndChar

StartChar: ml_i
Encoding: 42 3335 43
Width: 1680
GlyphClass: 2
Flags: MW
LayerCount: 2
Fore
SplineSet
231.677 417.319 m 1,0,1
 360.019 521.414 360.019 521.414 517.537 433.436 c 0,2,3
 597.081 389.008 597.081 389.008 642.144 276.653 c 128,-1,4
 687.206 164.3 687.206 164.3 627.054 75.1074 c 0,5,6
 590.922 21.5312 590.922 21.5312 527.623 2.84863 c 0,7,8
 423.167 -27.9834 423.167 -27.9834 326.694 13.0811 c 0,9,10
 156.84 85.3848 156.84 85.3848 105.875 361.47 c 0,11,12
 92.125 435.946 92.125 435.946 110.557 534.732 c 0,13,14
 146.343 726.54 146.343 726.54 264.704 861.194 c 128,-1,15
 383.064 995.848 383.064 995.848 532.72 982.718 c 0,16,17
 614.435 975.548 614.435 975.548 687.333 917.08 c 1,18,19
 787.488 842.74 787.488 842.74 831.093 706.883 c 1,20,21
 904.07 881.63 904.07 881.63 1022.28 949.666 c 0,22,23
 1161.51 1029.02 1161.51 1029.02 1291.1 949.619 c 128,-1,24
 1420.69 870.215 1420.69 870.215 1478.07 711.155 c 0,25,26
 1552.96 503.559 1552.96 503.559 1478.87 275.674 c 0,27,28
 1428.2 117.897 1428.2 117.897 1318.17 6.41211 c 0,29,30
 1242.57 -70.2021 1242.57 -70.2021 1076.05 -123.048 c 0,31,32
 982.437 -152.76 982.437 -152.76 866.631 -158.004 c 128,-1,33
 750.826 -163.249 750.826 -163.249 595.463 -167.083 c 0,34,35
 280.148 -174.866 280.148 -174.866 242.836 -252.78 c 1,36,37
 247.666 -277.756 247.666 -277.756 314.051 -309.938 c 128,-1,38
 380.436 -342.119 380.436 -342.119 507.009 -343.899 c 1,39,40
 630.576 -334.304 630.576 -334.304 890.193 -295.894 c 0,41,42
 1313.03 -233.335 1313.03 -233.335 1524.54 -261.803 c 0,43,44
 1550.85 -265.345 1550.85 -265.345 1567.34 -286.956 c 128,-1,45
 1583.83 -308.567 1583.83 -308.567 1580.29 -334.892 c 128,-1,46
 1576.74 -361.216 1576.74 -361.216 1555.13 -377.699 c 128,-1,47
 1533.52 -394.184 1533.52 -394.184 1488.05 -388.064 c 0,48,49
 1313.88 -364.622 1313.88 -364.622 847.764 -433.586 c 0,50,51
 570.774 -474.567 570.774 -474.567 500.999 -473.85 c 0,52,53
 268.421 -471.458 268.421 -471.458 162.805 -363.332 c 0,54,55
 111.608 -310.92 111.608 -310.92 112.63 -261.367 c 0,56,57
 115.663 -114.046 115.663 -114.046 332.713 -62.7246 c 0,58,59
 423.355 -41.293 423.355 -41.293 683.896 -34.8613 c 128,-1,60
 944.438 -28.4297 944.438 -28.4297 1058.52 7.77832 c 128,-1,61
 1172.61 43.9863 1172.61 43.9863 1216.82 88.7832 c 0,62,63
 1315.67 188.946 1315.67 188.946 1355.74 317.45 c 0,64,65
 1414.8 503.461 1414.8 503.461 1355.79 667.034 c 0,66,67
 1313.88 783.197 1313.88 783.197 1236.03 830.899 c 128,-1,68
 1158.18 878.602 1158.18 878.602 1087.12 836.994 c 0,69,70
 967.572 768.184 967.572 768.184 904.151 510.188 c 0,71,72
 903.678 508.258 903.678 508.258 890.001 464.394 c 128,-1,73
 876.324 420.53 876.324 420.53 886.705 299.492 c 128,-1,74
 897.086 178.453 897.086 178.453 886.525 69.6074 c 0,75,76
 884.223 45.8623 884.223 45.8623 865.561 28.3916 c 128,-1,77
 846.896 10.9199 846.896 10.9199 821.136 10.8818 c 128,-1,78
 795.373 10.8438 795.373 10.8438 776.121 30.0381 c 128,-1,79
 756.869 49.2324 756.869 49.2324 756.83 75.7861 c 0,80,81
 756.338 411.64 756.338 411.64 735.591 544.755 c 128,-1,82
 714.844 677.87 714.844 677.87 679.697 732.582 c 128,-1,83
 644.554 787.294 644.554 787.294 609.192 813.176 c 0,84,85
 607.849 814.159 607.849 814.159 606.556 815.212 c 0,86,87
 484.604 914.457 484.604 914.457 354.508 766.451 c 0,88,89
 267.582 667.56 267.582 667.56 239.997 519.714 c 0,90,91
 230.204 467.222 230.204 467.222 231.677 417.319 c 1,0,1
253.971 305.139 m 1,92,93
 285.143 211.188 285.143 211.188 341.83 156.392 c 128,-1,94
 398.518 101.596 398.518 101.596 485.072 124.74 c 1,95,96
 554.023 147.128 554.023 147.128 517.916 237.163 c 0,97,98
 493.431 298.217 493.431 298.217 436.253 331.294 c 128,-1,99
 379.076 364.372 379.076 364.372 311.593 314.851 c 0,100,101
 285.685 295.839 285.685 295.839 253.971 305.139 c 1,92,93
EndSplineSet
EndChar

StartChar: ml_u
Encoding: 44 3337 45
Width: 1211
GlyphClass: 2
Flags: MW
LayerCount: 2
Fore
SplineSet
290.11 607.235 m 1,0,1
 265.38 506.51 265.38 506.51 295.144 454.361 c 128,-1,2
 324.908 402.213 324.908 402.213 361.347 390.067 c 128,-1,3
 397.786 377.921 397.786 377.921 439.808 402.939 c 128,-1,4
 481.83 427.957 481.83 427.957 501.464 484.606 c 128,-1,5
 521.098 541.255 521.098 541.255 499.839 570.621 c 128,-1,6
 478.579 599.987 478.579 599.987 374.647 562.994 c 0,7,8
 349.623 554.087 349.623 554.087 323.822 566.344 c 128,-1,9
 298.021 578.602 298.021 578.602 290.11 607.235 c 1,0,1
315.47 677.408 m 1,10,11
 322.865 682.553 322.865 682.553 331.052 685.467 c 0,12,13
 526.755 755.124 526.755 755.124 608.084 642.789 c 0,14,15
 666.099 562.655 666.099 562.655 627.61 451.597 c 128,-1,16
 589.122 340.539 589.122 340.539 501.133 288.154 c 128,-1,17
 413.144 235.769 413.144 235.769 324.893 265.186 c 128,-1,18
 236.642 294.603 236.642 294.603 190.294 375.81 c 0,19,20
 114.302 508.954 114.302 508.954 178.745 687.471 c 0,21,22
 219.228 799.615 219.228 799.615 312.079 881.128 c 0,23,24
 442.341 994.474 442.341 994.474 619.098 996.826 c 128,-1,25
 795.856 999.178 795.856 999.178 932.787 860.247 c 128,-1,26
 1069.72 721.316 1069.72 721.316 1081.71 454.549 c 0,27,28
 1088.33 307.513 1088.33 307.513 1021.82 195.974 c 0,29,30
 974.275 116.241 974.275 116.241 837.686 53.804 c 0,31,32
 761.563 19.0072 761.563 19.0072 662.086 4.51876 c 128,-1,33
 562.609 -9.96966 562.609 -9.96966 482.656 -19.8849 c 0,34,35
 186.365 -56.6284 186.365 -56.6284 133.398 -112.809 c 1,36,37
 157.283 -131.83 157.283 -131.83 220.972 -143.355 c 128,-1,38
 284.66 -154.88 284.66 -154.88 331.768 -153.067 c 128,-1,39
 378.877 -151.254 378.877 -151.254 481.958 -142.561 c 0,40,41
 1008.17 -98.1863 1008.17 -98.1863 1305.9 -130.659 c 0,42,43
 1332.3 -133.538 1332.3 -133.538 1349.32 -154.728 c 128,-1,44
 1366.35 -175.918 1366.35 -175.918 1363.47 -202.323 c 128,-1,45
 1360.59 -228.728 1360.59 -228.728 1339.4 -245.75 c 128,-1,46
 1318.2 -262.771 1318.2 -262.771 1291.8 -259.892 c 0,47,48
 1006.61 -228.787 1006.61 -228.787 486.42 -272.646 c 0,49,50
 376.087 -281.949 376.087 -281.949 326.064 -283.69 c 128,-1,51
 276.04 -285.432 276.04 -285.432 197.656 -271.247 c 0,52,53
 20.8151 -239.246 20.8151 -239.246 1.93938 -134.437 c 0,54,55
 -18.8349 -19.0864 -18.8349 -19.0864 161.282 48.3431 c 0,56,57
 236.754 76.5971 236.754 76.5971 310.873 87.7983 c 128,-1,58
 384.992 98.9994 384.992 98.9994 548.891 119.325 c 128,-1,59
 712.789 139.65 712.789 139.65 798.082 178.638 c 128,-1,60
 883.374 217.627 883.374 217.627 905.966 255.517 c 0,61,62
 956.706 340.612 956.706 340.612 951.845 448.711 c 0,63,64
 942.091 665.611 942.091 665.611 831.778 777.536 c 0,65,66
 742.171 868.453 742.171 868.453 616.736 866.783 c 128,-1,67
 491.301 865.114 491.301 865.114 397.616 783.232 c 0,68,69
 344.766 737.039 344.766 737.039 315.47 677.408 c 1,10,11
EndSplineSet
EndChar

StartChar: ml_r
Encoding: 46 3339 47
Width: 1863
GlyphClass: 2
Flags: MW
LayerCount: 2
Fore
SplineSet
759.646 539.073 m 5,0,1
 853.22 499.941 853.22 499.941 1027.96 432.979 c 5,2,3
 1162.09 489.63 1162.09 489.63 1278.9 541.521 c 5,4,5
 1053.13 721.621 1053.13 721.621 1070.85 843.555 c 132,-1,6
 1088.56 965.487 1088.56 965.487 1227.86 986.087 c 132,-1,7
 1367.15 1006.69 1367.15 1006.69 1509.6 956.822 c 132,-1,8
 1652.06 906.959 1652.06 906.959 1689.67 806.2 c 4,9,10
 1747.2 652.107 1747.2 652.107 1514.17 507.951 c 4,11,12
 1476.61 484.71 1476.61 484.71 1199.68 365.008 c 5,13,14
 1554.76 220.154 1554.76 220.154 1652.81 136.342 c 132,-1,15
 1750.87 52.5293 1750.87 52.5293 1761.31 -34.1475 c 4,16,17
 1783.16 -215.487 1783.16 -215.487 1581.81 -313.076 c 132,-1,18
 1380.46 -410.666 1380.46 -410.666 1095.64 -410.727 c 132,-1,19
 810.829 -410.788 810.829 -410.788 579.995 -313.548 c 132,-1,20
 349.161 -216.309 349.161 -216.309 343.697 -22.6201 c 4,21,22
 340.45 92.4971 340.45 92.4971 564.126 216.151 c 4,23,24
 674.094 276.944 674.094 276.944 857.216 359.169 c 5,25,26
 231.945 604.818 231.945 604.818 133.579 743.497 c 4,27,28
 73.2852 828.501 73.2852 828.501 121.254 888.642 c 132,-1,29
 169.223 948.781 169.223 948.781 234.494 966.299 c 132,-1,30
 299.767 983.817 299.767 983.817 446.538 987.562 c 132,-1,31
 593.31 991.309 593.31 991.309 714.216 952.057 c 4,32,33
 1009.9 856.062 1009.9 856.062 945.578 708.548 c 4,34,35
 905.189 615.924 905.189 615.924 759.646 539.073 c 5,0,1
1030.01 292.784 m 5,36,37
 497.884 67.124 497.884 67.124 473.67 -19.7773 c 5,38,39
 477.867 -129.466 477.867 -129.466 657.478 -205.124 c 132,-1,40
 837.087 -280.782 837.087 -280.782 1093.84 -280.728 c 132,-1,41
 1350.6 -280.673 1350.6 -280.673 1466.65 -224.426 c 4,42,43
 1727.12 -98.1895 1727.12 -98.1895 1599.4 10.9814 c 132,-1,44
 1471.67 120.152 1471.67 120.152 1030.01 292.784 c 5,36,37
238.724 825.6 m 5,45,46
 285.699 751.219 285.699 751.219 601.729 607.538 c 5,47,48
 607.095 610.831 607.095 610.831 633.873 622.326 c 132,-1,49
 660.651 633.821 660.651 633.821 711.973 662.188 c 132,-1,50
 763.294 690.557 763.294 690.557 794.55 720.789 c 132,-1,51
 825.806 751.021 825.806 751.021 815.072 761.98 c 4,52,53
 714.799 864.367 714.799 864.367 404.51 856.448 c 4,54,55
 277.539 853.207 277.539 853.207 238.724 825.6 c 5,45,46
1412.65 602.834 m 5,56,57
 1528.65 658.16 1528.65 658.16 1564.15 725.302 c 4,58,59
 1571.2 738.622 1571.2 738.622 1569.9 746.336 c 132,-1,60
 1568.6 754.051 1568.6 754.051 1567.88 760.73 c 5,61,62
 1551.58 804.395 1551.58 804.395 1453.02 838.895 c 132,-1,63
 1354.46 873.396 1354.46 873.396 1278.88 862.219 c 132,-1,64
 1203.3 851.041 1203.3 851.041 1201.57 839.146 c 4,65,66
 1190.98 766.232 1190.98 766.232 1412.65 602.834 c 5,56,57
EndSplineSet
EndChar

StartChar: ml_l
Encoding: 47 3340 48
Width: 1840
GlyphClass: 2
Flags: MW
LayerCount: 2
Fore
SplineSet
1740 390 m 0,0,1
 1740 218 1740 218 1654 98.5 c 128,-1,2
 1568 -21 1568 -21 1398 -21 c 0,3,4
 1263 -21 1263 -21 1179 57.5 c 128,-1,5
 1095 136 1095 136 1095 268 c 256,6,7
 1095 400 1095 400 1176.5 490.5 c 128,-1,8
 1258 581 1258 581 1381 581 c 0,9,10
 1452 581 1452 581 1521 548 c 128,-1,11
 1590 515 1590 515 1611 456 c 1,12,13
 1602 604 1602 604 1498.5 713.5 c 128,-1,14
 1395 823 1395 823 1238 823 c 0,15,16
 1133 823 1133 823 1060 759 c 128,-1,17
 987 695 987 695 987 590 c 2,18,-1
 987 -4 l 1,19,-1
 853 -4 l 1,20,-1
 853 590 l 2,21,22
 853 695 853 695 781 759 c 128,-1,23
 709 823 709 823 604 823 c 0,24,25
 447 823 447 823 342.5 713.5 c 128,-1,26
 238 604 238 604 228 456 c 1,27,28
 250 515 250 515 319 548 c 128,-1,29
 388 581 388 581 459 581 c 0,30,31
 582 581 582 581 663.5 490.5 c 128,-1,32
 745 400 745 400 745 268 c 256,33,34
 745 136 745 136 661 57.5 c 128,-1,35
 577 -21 577 -21 442 -21 c 0,36,37
 275 -21 275 -21 187.5 96.5 c 128,-1,38
 100 214 100 214 100 390 c 0,39,40
 100 614 100 614 234 778.5 c 128,-1,41
 368 943 368 943 590 943 c 256,42,43
 812 943 812 943 919 804 c 1,44,45
 1029 943 1029 943 1250 943 c 0,46,47
 1472 943 1472 943 1606 778.5 c 128,-1,48
 1740 614 1740 614 1740 390 c 0,0,1
1578 268 m 0,49,50
 1578 340 1578 340 1525 392 c 128,-1,51
 1472 444 1472 444 1402 444 c 0,52,53
 1334 444 1334 444 1285 391 c 128,-1,54
 1236 338 1236 338 1236 266 c 0,55,56
 1236 195 1236 195 1284 147 c 128,-1,57
 1332 99 1332 99 1402 99 c 0,58,59
 1474 99 1474 99 1526 148 c 128,-1,60
 1578 197 1578 197 1578 268 c 0,49,50
604 266 m 0,61,62
 604 338 604 338 555 391 c 128,-1,63
 506 444 506 444 438 444 c 0,64,65
 368 444 368 444 315 392 c 128,-1,66
 262 340 262 340 262 268 c 0,67,68
 262 197 262 197 314 148 c 128,-1,69
 366 99 366 99 438 99 c 0,70,71
 508 99 508 99 556 147 c 128,-1,72
 604 195 604 195 604 266 c 0,61,62
EndSplineSet
EndChar

StartChar: ml_e
Encoding: 48 3342 49
Width: 2324
GlyphClass: 2
Flags: MW
LayerCount: 2
Fore
SplineSet
527.463 -31 m 1,0,1
 511.78 -26.4941 511.78 -26.4941 496.98 -18.4209 c 128,-1,2
 482.18 -10.3477 482.18 -10.3477 474.509 15.7334 c 128,-1,3
 466.838 41.8145 466.838 41.8145 479.554 65.125 c 0,4,5
 595.031 276.835 595.031 276.835 563.305 385.123 c 0,6,7
 554.064 415.735 554.064 415.735 536.705 431.139 c 128,-1,8
 519.345 446.543 519.345 446.543 484.604 453.375 c 0,9,10
 412.131 467.627 412.131 467.627 334.95 425.713 c 128,-1,11
 257.77 383.8 257.77 383.8 237.103 316.896 c 0,12,13
 205.127 213.381 205.127 213.381 330.118 88.3867 c 0,14,15
 348.9 69.6006 348.9 69.6006 348.898 42.4209 c 128,-1,16
 348.896 15.2412 348.896 15.2412 330.118 -3.53711 c 128,-1,17
 311.341 -22.3154 311.341 -22.3154 284.16 -22.3174 c 128,-1,18
 256.979 -22.3193 256.979 -22.3193 238.194 -3.53711 c 0,19,20
 57.7881 176.869 57.7881 176.869 112.894 355.264 c 0,21,22
 149.189 472.766 149.189 472.766 270.224 538.496 c 128,-1,23
 391.259 604.226 391.259 604.226 509.69 580.932 c 0,24,25
 575.613 567.965 575.613 567.965 622.413 526.584 c 128,-1,26
 669.213 485.203 669.213 485.203 687.964 422 c 0,27,28
 726.283 292.835 726.283 292.835 641.249 99 c 1,29,-1
 1037.92 99 l 1,30,31
 1039.23 243.89 1039.23 243.89 1074.32 390.448 c 0,32,33
 1074.89 392.809 1074.89 392.809 1075.63 395.121 c 0,34,35
 1197.98 777.496 1197.98 777.496 1428.19 930.299 c 0,36,37
 1615.96 1054.92 1615.96 1054.92 1803.83 1000.15 c 128,-1,38
 1991.7 945.378 1991.7 945.378 2104.2 777.104 c 0,39,40
 2238.59 576.081 2238.59 576.081 2222.82 300.492 c 0,41,42
 2202.13 -61.1182 2202.13 -61.1182 1923.89 -419.585 c 0,43,44
 1907.61 -440.562 1907.61 -440.562 1880.64 -443.964 c 128,-1,45
 1853.68 -447.364 1853.68 -447.364 1832.69 -431.079 c 128,-1,46
 1811.71 -414.792 1811.71 -414.792 1808.31 -387.821 c 128,-1,47
 1804.92 -360.852 1804.92 -360.852 1821.2 -339.876 c 0,48,49
 2074.61 -13.3926 2074.61 -13.3926 2093.03 307.93 c 0,50,51
 2106.34 539.994 2106.34 539.994 1996.12 704.855 c 0,52,53
 1909.92 833.812 1909.92 833.812 1773.73 873.516 c 128,-1,54
 1637.54 913.221 1637.54 913.221 1500.08 821.986 c 0,55,56
 1308.83 695.042 1308.83 695.042 1200.19 357.822 c 1,57,58
 1169.21 227.108 1169.21 227.108 1167.92 99 c 1,59,-1
 1655.42 99 l 1,60,61
 1586.32 464.701 1586.32 464.701 1624.23 738.904 c 0,62,63
 1627.87 765.21 1627.87 765.21 1649.54 781.618 c 128,-1,64
 1671.21 798.026 1671.21 798.026 1697.52 794.387 c 128,-1,65
 1723.83 790.748 1723.83 790.748 1740.24 769.074 c 128,-1,66
 1756.64 747.401 1756.64 747.401 1753 721.096 c 0,67,68
 1720.11 483.187 1720.11 483.187 1770.66 192.637 c 0,69,70
 1787.68 94.7874 1787.68 94.7874 1794.65 68.6535 c 128,-1,71
 1801.62 42.5195 1801.62 42.5195 1801.62 33.8311 c 128,-1,72
 1801.62 25.1426 1801.62 25.1426 1799.57 17.1455 c 1,73,74
 1820.89 -111.246 1820.89 -111.246 1778.79 -212.653 c 128,-1,75
 1736.69 -314.06 1736.69 -314.06 1636.16 -377.315 c 128,-1,76
 1535.62 -440.569 1535.62 -440.569 1399.86 -438.996 c 0,77,78
 1395.62 -438.946 1395.62 -438.946 1391.42 -438.347 c 0,79,80
 1156.39 -404.772 1156.39 -404.772 1074.62 -163.34 c 0,81,82
 1052.75 -98.7646 1052.75 -98.7646 1044.6 -31 c 1,83,-1
 527.463 -31 l 1,0,1
1175.77 -31 m 1,84,85
 1213.03 -278.85 1213.03 -278.85 1405.6 -309.024 c 1,86,87
 1537.74 -308.42 1537.74 -308.42 1621.41 -223.591 c 0,88,89
 1662.52 -181.923 1662.52 -181.923 1674.41 -94.6006 c 0,90,91
 1678.33 -65.832 1678.33 -65.832 1674.91 -31 c 1,92,-1
 1175.77 -31 l 1,84,85
EndSplineSet
EndChar

StartChar: ml_ee
Encoding: 49 3343 50
Width: 2464
GlyphClass: 2
Flags: MW
LayerCount: 2
Fore
SplineSet
527.463 -31 m 5,0,1
 511.78 -26.4941 511.78 -26.4941 496.98 -18.4209 c 132,-1,2
 482.18 -10.3477 482.18 -10.3477 474.509 15.7334 c 132,-1,3
 466.838 41.8145 466.838 41.8145 479.554 65.125 c 4,4,5
 595.031 276.835 595.031 276.835 563.305 385.123 c 4,6,7
 554.064 415.735 554.064 415.735 536.705 431.139 c 132,-1,8
 519.345 446.543 519.345 446.543 484.604 453.375 c 4,9,10
 412.131 467.627 412.131 467.627 334.95 425.713 c 132,-1,11
 257.77 383.8 257.77 383.8 237.103 316.896 c 4,12,13
 205.127 213.381 205.127 213.381 330.118 88.3867 c 4,14,15
 348.9 69.6006 348.9 69.6006 348.898 42.4209 c 132,-1,16
 348.896 15.2412 348.896 15.2412 330.118 -3.53711 c 132,-1,17
 311.341 -22.3154 311.341 -22.3154 284.16 -22.3174 c 132,-1,18
 256.979 -22.3193 256.979 -22.3193 238.194 -3.53711 c 4,19,20
 57.7881 176.869 57.7881 176.869 112.894 355.264 c 4,21,22
 149.189 472.766 149.189 472.766 270.225 538.495 c 132,-1,23
 391.259 604.226 391.259 604.226 509.69 580.932 c 4,24,25
 575.613 567.965 575.613 567.965 622.413 526.584 c 132,-1,26
 669.213 485.203 669.213 485.203 687.964 422 c 4,27,28
 726.283 292.835 726.283 292.835 641.249 99 c 5,29,-1
 1035.65 99 l 5,30,31
 1036.79 233.719 1036.79 233.719 1074.32 390.448 c 4,32,33
 1074.89 392.81 1074.89 392.81 1075.63 395.121 c 4,34,35
 1180.33 722.336 1180.33 722.336 1360.5 865.584 c 132,-1,36
 1540.67 1008.83 1540.67 1008.83 1732.06 983.017 c 132,-1,37
 1923.45 957.2 1923.45 957.2 2053.44 837.93 c 4,38,39
 2287.38 623.275 2287.38 623.275 2276.9 353.542 c 4,40,41
 2273.94 277.22 2273.94 277.22 2227.97 210.184 c 132,-1,42
 2182 143.148 2182 143.148 2111.93 111.262 c 5,43,44
 2185.33 72.0322 2185.33 72.0322 2185.82 71.8882 c 132,-1,45
 2186.31 71.7441 2186.31 71.7441 2193.37 67.9981 c 132,-1,46
 2200.43 64.2521 2200.43 64.2521 2204.77 61.9521 c 6,47,-1
 2224.92 51.2637 l 6,48,49
 2295.04 14.0352 2295.04 14.0352 2332.41 -44.4795 c 132,-1,50
 2369.78 -102.995 2369.78 -102.995 2362.97 -174.899 c 4,51,52
 2352.53 -285.229 2352.53 -285.229 2246.92 -373.432 c 132,-1,53
 2141.31 -461.634 2141.31 -461.634 2009.04 -457.676 c 4,54,55
 1917.29 -454.931 1917.29 -454.931 1841.48 -401.817 c 4,56,57
 1819.73 -386.58 1819.73 -386.58 1815.02 -359.812 c 132,-1,58
 1810.3 -333.046 1810.3 -333.046 1825.54 -311.286 c 132,-1,59
 1840.78 -289.532 1840.78 -289.532 1867.55 -284.819 c 132,-1,60
 1894.33 -280.107 1894.33 -280.107 1927.19 -303.129 c 132,-1,61
 1960.04 -326.151 1960.04 -326.151 2027.95 -328.184 c 132,-1,62
 2095.86 -330.216 2095.86 -330.216 2162 -274.975 c 132,-1,63
 2228.15 -219.734 2228.15 -219.734 2233.55 -162.645 c 4,64,65
 2236.43 -132.187 2236.43 -132.187 2221.89 -109.39 c 132,-1,66
 2207.33 -86.5596 2207.33 -86.5596 2151.69 -57.0479 c 6,67,-1
 2119.92 -40.2012 l 6,68,69
 2052.14 -4.27734 2052.14 -4.27734 2033.71 5.65137 c 132,-1,70
 2015.28 15.5791 2015.28 15.5791 1982.73 28.6166 c 132,-1,71
 1950.18 41.6542 1950.18 41.6542 1921.38 62.3271 c 132,-1,72
 1892.58 83 1892.58 83 1890.98 132.996 c 132,-1,73
 1889.38 182.992 1889.38 182.992 1919.28 197.724 c 132,-1,74
 1949.19 212.457 1949.19 212.457 1981.1 209.068 c 5,75,76
 2073.04 224.614 2073.04 224.614 2105.68 260.871 c 132,-1,77
 2138.32 297.128 2138.32 297.128 2147.09 361.383 c 5,78,79
 2153.41 569.768 2153.41 569.768 1965.54 742.145 c 4,80,81
 1865.63 833.823 1865.63 833.823 1721.92 853.208 c 132,-1,82
 1578.2 872.593 1578.2 872.593 1435.59 759.202 c 132,-1,83
 1292.97 645.811 1292.97 645.811 1200.19 357.819 c 5,84,85
 1166.86 217.164 1166.86 217.164 1165.68 99 c 5,86,-1
 1655.42 99 l 5,87,88
 1586.32 464.705 1586.32 464.705 1624.23 738.904 c 4,89,90
 1627.87 765.21 1627.87 765.21 1649.54 781.618 c 132,-1,91
 1671.21 798.026 1671.21 798.026 1697.52 794.387 c 132,-1,92
 1723.83 790.748 1723.83 790.748 1740.24 769.074 c 132,-1,93
 1756.64 747.401 1756.64 747.401 1753 721.096 c 4,94,95
 1720.11 483.192 1720.11 483.192 1770.66 192.637 c 4,96,97
 1787.68 94.7891 1787.68 94.7891 1794.65 68.6543 c 132,-1,98
 1801.62 42.5195 1801.62 42.5195 1801.62 31.0596 c 132,-1,99
 1801.62 19.5996 1801.62 19.5996 1800.01 14.334 c 5,100,101
 1841.62 -248.042 1841.62 -248.042 1636.15 -377.316 c 4,102,103
 1535.62 -440.57 1535.62 -440.57 1399.86 -438.996 c 4,104,105
 1395.62 -438.946 1395.62 -438.946 1391.42 -438.347 c 4,106,107
 1094.4 -395.917 1094.4 -395.917 1043.71 -31 c 5,108,-1
 527.463 -31 l 5,0,1
1175.22 -31 m 5,109,110
 1216.73 -279.433 1216.73 -279.433 1405.6 -309.024 c 5,111,112
 1537.73 -308.424 1537.73 -308.424 1621.41 -223.591 c 4,113,114
 1685.6 -158.519 1685.6 -158.519 1675.27 -31 c 5,115,-1
 1175.22 -31 l 5,109,110
EndSplineSet
EndChar

StartChar: ml_o
Encoding: 51 3346 52
Width: 1475
GlyphClass: 2
Flags: MW
LayerCount: 2
Fore
SplineSet
311.298 438.733 m 128,-1,1
 293.164 458.131 293.164 458.131 294.079 485.299 c 128,-1,2
 294.994 512.467 294.994 512.467 314.397 530.605 c 0,3,4
 412.457 622.262 412.457 622.262 511.285 618.72 c 0,5,6
 564.335 616.817 564.335 616.817 610.637 583.572 c 0,7,8
 700.148 519.301 700.148 519.301 727.274 373.195 c 128,-1,9
 754.4 227.09 754.4 227.09 702.868 115.968 c 0,10,11
 670.847 46.9219 670.847 46.9219 603.536 7.74316 c 128,-1,12
 536.226 -31.4355 536.226 -31.4355 438.65 -5.25781 c 0,13,14
 233.963 49.6582 233.963 49.6582 151.252 219.48 c 128,-1,15
 68.542 389.303 68.542 389.303 119.31 581.408 c 128,-1,16
 170.077 773.514 170.077 773.514 334.916 903.827 c 128,-1,17
 499.755 1034.14 499.755 1034.14 741.986 1034.79 c 1,18,19
 1073.86 1049.45 1073.86 1049.45 1208.99 876.645 c 0,20,21
 1301.57 758.212 1301.57 758.212 1237.89 627.752 c 0,22,23
 1194.67 539.186 1194.67 539.186 1095 482.888 c 1,24,25
 1180.49 455.179 1180.49 455.179 1240.52 412.925 c 0,26,27
 1346.78 338.128 1346.78 338.128 1371.7 255.828 c 0,28,29
 1373.53 249.808 1373.53 249.808 1374.16 243.548 c 0,30,31
 1381.37 172.583 1381.37 172.583 1332.51 120.032 c 0,32,33
 1250.28 31.585 1250.28 31.585 1074.85 5.89551 c 128,-1,34
 899.41 -19.7939 899.41 -19.7939 763.973 43.501 c 0,35,36
 739.915 54.7451 739.915 54.7451 730.639 80.293 c 128,-1,37
 721.361 105.842 721.361 105.842 732.606 129.908 c 128,-1,38
 743.854 153.972 743.854 153.972 769.406 163.245 c 128,-1,39
 794.96 172.519 794.96 172.519 830.08 156.104 c 128,-1,40
 865.199 139.689 865.199 139.689 928.5 132.405 c 0,41,42
 1048.36 118.613 1048.36 118.613 1165.64 162.269 c 0,43,44
 1209.43 178.566 1209.43 178.566 1226.51 196.947 c 128,-1,45
 1243.6 215.329 1243.6 215.329 1244.8 224.969 c 1,46,47
 1215.29 294.281 1215.29 294.281 1092.27 345.298 c 128,-1,48
 969.254 396.314 969.254 396.314 791.494 396.314 c 0,49,50
 766.962 396.314 766.962 396.314 748.215 413.129 c 128,-1,51
 729.468 429.943 729.468 429.943 726.758 455.39 c 128,-1,52
 724.048 480.836 724.048 480.836 741.128 501.986 c 128,-1,53
 758.208 523.137 758.208 523.137 784.611 525.949 c 0,54,55
 1057.75 555.035 1057.75 555.035 1121.06 684.764 c 0,56,57
 1149.1 742.189 1149.1 742.189 1099.94 805.051 c 128,-1,58
 1050.79 867.913 1050.79 867.913 917.127 894.095 c 0,59,60
 840.051 909.19 840.051 909.19 792.522 906.992 c 128,-1,61
 744.995 904.794 744.995 904.794 743.494 904.794 c 0,62,63
 545.759 904.794 545.759 904.794 415.225 801.6 c 128,-1,64
 284.69 698.405 284.69 698.405 245.63 550.6 c 128,-1,65
 206.569 402.794 206.569 402.794 265.729 281.327 c 128,-1,66
 324.889 159.86 324.889 159.86 472.338 120.302 c 0,67,68
 521.422 107.133 521.422 107.133 544.736 120.695 c 128,-1,69
 568.052 134.259 568.052 134.259 584.931 170.657 c 0,70,71
 619.235 244.632 619.235 244.632 600.755 344.265 c 128,-1,72
 582.274 443.898 582.274 443.898 534.127 478.466 c 128,-1,73
 485.979 513.034 485.979 513.034 410.646 442.622 c 0,74,75
 383.762 417.495 383.762 417.495 356.597 418.414 c 128,-1,0
 329.431 419.333 329.431 419.333 311.298 438.733 c 128,-1,1
EndSplineSet
EndChar

StartChar: k1
Encoding: 54 3349 55
Width: 1605
GlyphClass: 2
Flags: MW
LayerCount: 2
Fore
SplineSet
471.918 266.222 m 1,0,1
 454.279 329.721 454.279 329.721 489.492 371.043 c 0,2,3
 506.714 391.254 506.714 391.254 533.813 393.418 c 128,-1,4
 560.913 395.581 560.913 395.581 581.124 378.358 c 0,5,6
 602.915 359.791 602.915 359.791 603.926 331.18 c 0,7,8
 604.739 308.144 604.739 308.144 603.766 285.413 c 1,9,10
 605.425 282.1 605.425 282.1 607.235 278.783 c 0,11,12
 613.519 267.276 613.519 267.276 621.004 256.213 c 0,13,14
 654.455 206.771 654.455 206.771 712.354 165.586 c 0,15,16
 802.135 101.722 802.135 101.722 861.52 126.565 c 0,17,18
 910.155 146.911 910.155 146.911 944.394 245.072 c 128,-1,19
 978.633 343.233 978.633 343.233 980.73 526.019 c 0,20,21
 981.272 573.27 981.272 573.27 975.77 617.209 c 1,22,23
 904.358 623.916 904.358 623.916 827.868 617.479 c 0,24,25
 691.109 605.969 691.109 605.969 570.131 553.511 c 1,26,27
 563.787 532.246 563.787 532.246 545.302 519.127 c 128,-1,28
 526.816 506.007 526.816 506.007 504.682 507.075 c 0,29,30
 495.201 507.533 495.201 507.533 485.972 510.779 c 1,31,32
 415.052 469.256 415.052 469.256 350.46 412.528 c 1,33,34
 309.325 369.344 309.325 369.344 281.929 328.665 c 0,35,36
 208.563 219.729 208.563 219.729 239.719 154.902 c 0,37,38
 249.111 135.358 249.111 135.358 263.408 124.723 c 128,-1,39
 277.705 114.087 277.705 114.087 303.572 108.901 c 0,40,41
 359.741 97.6396 359.741 97.6396 406.79 134.721 c 0,42,43
 450.329 169.035 450.329 169.035 465.638 230.884 c 0,44,45
 469.726 247.399 469.726 247.399 471.918 266.222 c 1,0,1
586.649 699.246 m 1,46,47
 696.966 736.921 696.966 736.921 816.968 747.021 c 0,48,49
 880.473 752.365 880.473 752.365 941.957 749.792 c 1,50,51
 933.883 769.685 933.883 769.685 924.511 788.021 c 0,52,53
 872.698 889.386 872.698 889.386 797.745 921.833 c 0,54,55
 761.573 937.289 761.573 937.289 735.567 933.523 c 128,-1,56
 709.562 929.757 709.562 929.757 681.16 905.396 c 0,57,58
 613.019 846.946 613.019 846.946 586.649 699.246 c 1,46,47
447.377 638.201 m 1,59,60
 447.694 641.501 447.694 641.501 447.952 644.064 c 0,61,62
 473.559 898.596 473.559 898.596 596.523 1004.07 c 0,63,64
 650.807 1050.63 650.807 1050.63 717.165 1060.24 c 128,-1,65
 783.522 1069.85 783.522 1069.85 849.39 1041.13 c 0,66,67
 967.199 990.136 967.199 990.136 1040.27 847.188 c 0,68,69
 1068.18 792.574 1068.18 792.574 1085.17 731.689 c 1,70,71
 1175.18 712.272 1175.18 712.272 1256.95 673.26 c 0,72,73
 1424.49 593.331 1424.49 593.331 1481.81 464.819 c 1,74,75
 1517.72 379.721 1517.72 379.721 1499.38 298.283 c 128,-1,76
 1481.02 216.845 1481.02 216.845 1413.85 144.66 c 0,77,78
 1328.9 53.376 1328.9 53.376 1170.05 -18.8516 c 0,79,80
 1145.88 -29.8447 1145.88 -29.8447 1120.42 -20.3037 c 128,-1,81
 1094.97 -10.7637 1094.97 -10.7637 1083.97 13.416 c 128,-1,82
 1072.98 37.5996 1072.98 37.5996 1082.52 63.0488 c 128,-1,83
 1092.07 88.499 1092.07 88.499 1116.24 99.4902 c 0,84,85
 1251.43 160.954 1251.43 160.954 1318.68 233.22 c 0,86,87
 1364.68 282.646 1364.68 282.646 1374.42 325.918 c 128,-1,88
 1384.16 369.189 1384.16 369.189 1363.08 411.868 c 1,89,90
 1325.28 496.627 1325.28 496.627 1200.98 555.928 c 0,91,92
 1156.66 577.068 1156.66 577.068 1108.83 591.481 c 1,93,94
 1111.11 558.347 1111.11 558.347 1110.72 524.53 c 0,95,96
 1108.3 313.204 1108.3 313.204 1062.99 182.093 c 128,-1,97
 1017.69 50.9814 1017.69 50.9814 911.692 6.63672 c 0,98,99
 785.654 -46.0898 785.654 -46.0898 636.999 59.6533 c 0,100,101
 595.824 88.9424 595.824 88.9424 562.738 122.879 c 1,102,103
 534.024 69.4756 534.024 69.4756 487.26 32.6191 c 0,104,105
 393.055 -41.627 393.055 -41.627 278.017 -18.5625 c 0,106,107
 225.915 -8.11621 225.915 -8.11621 185.382 22.0371 c 128,-1,108
 144.848 52.1895 144.848 52.1895 122.548 98.5908 c 0,109,110
 59.124 230.562 59.124 230.562 174.103 401.284 c 0,111,112
 208.465 452.306 208.465 452.306 258.5 504.461 c 0,113,114
 260.356 506.397 260.356 506.397 262.367 508.173 c 0,115,116
 349.548 585.204 349.548 585.204 447.377 638.201 c 1,59,60
EndSplineSet
EndChar

StartChar: k2
Encoding: 55 3350 56
Width: 1733
GlyphClass: 2
Flags: MW
LayerCount: 2
Fore
SplineSet
302.024 561.464 m 0,0,1
 446.832 624.175 446.832 624.175 559.113 484.884 c 0,2,3
 588.732 448.14 588.732 448.14 600.586 418.582 c 0,4,5
 672.561 239.03 672.561 239.03 612.079 112.217 c 1,6,7
 560.445 6.41895 560.445 6.41895 445.756 -11.4561 c 128,-1,8
 331.066 -29.3311 331.066 -29.3311 233.773 60.0537 c 0,9,10
 107.252 176.291 107.252 176.291 100.201 406.438 c 0,11,12
 95.5303 558.874 95.5303 558.874 199.465 700.658 c 128,-1,13
 303.399 842.442 303.399 842.442 491.617 924.446 c 128,-1,14
 679.836 1006.45 679.836 1006.45 842.8 972.654 c 0,15,16
 932.796 953.991 932.796 953.991 995.557 898.96 c 0,17,18
 1240.64 684.06 1240.64 684.06 952.242 110.973 c 1,19,20
 1326.69 102.758 1326.69 102.758 1426.03 146.885 c 0,21,22
 1479.63 170.689 1479.63 170.689 1494.56 230.25 c 128,-1,23
 1509.49 289.811 1509.49 289.811 1498.49 530.503 c 128,-1,24
 1487.5 771.195 1487.5 771.195 1490.49 923.274 c 0,25,26
 1491.01 949.832 1491.01 949.832 1510.6 968.67 c 128,-1,27
 1530.2 987.508 1530.2 987.508 1556.75 986.987 c 128,-1,28
 1583.3 986.467 1583.3 986.467 1602.14 966.874 c 128,-1,29
 1620.98 947.281 1620.98 947.281 1620.46 920.726 c 0,30,31
 1617.55 772.896 1617.55 772.896 1628.89 524.787 c 128,-1,32
 1640.22 276.68 1640.22 276.68 1623.09 208.328 c 0,33,34
 1590.32 77.6074 1590.32 77.6074 1478.94 28.1387 c 128,-1,35
 1367.57 -21.3291 1367.57 -21.3291 1077.37 -20.71 c 0,36,37
 984.425 -20.5117 984.425 -20.5117 843.896 -16.1699 c 0,38,39
 817.355 -15.3506 817.355 -15.3506 791.809 11.8252 c 128,-1,40
 766.262 39 766.262 39 788.989 80.1973 c 0,41,42
 1027.31 512.204 1027.31 512.204 961.495 719.362 c 0,43,44
 944.43 773.077 944.43 773.077 910.27 803.028 c 128,-1,45
 876.109 832.98 876.109 832.98 816.399 845.363 c 0,46,47
 693.888 870.77 693.888 870.77 540.692 804.025 c 128,-1,48
 387.498 737.28 387.498 737.28 300.598 618.734 c 0,49,50
 269.574 576.412 269.574 576.412 252.053 532.717 c 1,51,52
 277.118 550.678 277.118 550.678 302.024 561.464 c 0,0,1
231.613 381.644 m 1,53,54
 243.01 228.103 243.01 228.103 321.725 155.785 c 0,55,56
 372.91 108.76 372.91 108.76 423.291 116.611 c 128,-1,57
 473.671 124.464 473.671 124.464 495.02 168.765 c 0,58,59
 530.271 241.92 530.271 241.92 481.198 366.998 c 1,60,61
 403.886 509.748 403.886 509.748 295.659 398.842 c 0,62,63
 268.959 371.481 268.959 371.481 231.613 381.644 c 1,53,54
EndSplineSet
EndChar

StartChar: k3
Encoding: 56 3351 57
Width: 1595
GlyphClass: 2
Flags: MW
LayerCount: 2
Fore
SplineSet
373.16 914.465 m 128,-1,1
 391.337 895.108 391.337 895.108 390.482 867.938 c 128,-1,2
 389.629 840.767 389.629 840.767 370.264 822.586 c 0,3,4
 322.004 777.277 322.004 777.277 289.296 713.727 c 0,5,6
 255.834 648.71 255.834 648.71 243.346 581.263 c 0,7,8
 230.187 510.188 230.187 510.188 230.002 436.538 c 0,9,10
 229.824 365.59 229.824 365.59 245.986 304.896 c 0,11,12
 262.515 242.831 262.515 242.831 287.079 195.637 c 0,13,14
 307.642 156.132 307.642 156.132 336.099 136.117 c 0,15,16
 358.018 120.701 358.018 120.701 380.633 122.738 c 0,17,18
 438.228 127.925 438.228 127.925 480.297 152.85 c 128,-1,19
 522.5 177.853 522.5 177.853 547.925 215.375 c 0,20,21
 577.48 258.994 577.48 258.994 599.491 314.871 c 0,22,23
 622.543 373.388 622.543 373.388 638.316 437.435 c 0,24,25
 655.013 505.227 655.013 505.227 671.141 573.401 c 0,26,27
 688.05 644.875 688.05 644.875 710.73 710.484 c 0,28,29
 734.487 779.208 734.487 779.208 767.031 834.353 c 0,30,31
 803.718 896.518 803.718 896.518 863.894 937.096 c 0,32,33
 925.473 978.62 925.473 978.62 1005.95 986.677 c 0,34,35
 1087.08 994.799 1087.08 994.799 1163.83 970.099 c 0,36,37
 1240.03 945.576 1240.03 945.576 1298.45 895.803 c 0,38,39
 1353.14 849.211 1353.14 849.211 1397.79 786.309 c 0,40,41
 1444.11 721.047 1444.11 721.047 1466.35 644.328 c 0,42,43
 1487.33 571.985 1487.33 571.985 1493.75 496.966 c 0,44,45
 1500.69 415.955 1500.69 415.955 1476.76 336.465 c 0,46,47
 1453.63 259.61 1453.63 259.61 1409.87 193.969 c 0,48,49
 1364.08 125.277 1364.08 125.277 1282.81 72.3643 c 0,50,51
 1203.62 20.8047 1203.62 20.8047 1100.17 -5.05957 c 0,52,53
 1074.4 -11.5 1074.4 -11.5 1051.09 2.4834 c 128,-1,54
 1027.78 16.4668 1027.78 16.4668 1021.34 42.2354 c 128,-1,55
 1014.9 68.0039 1014.9 68.0039 1028.89 91.3115 c 128,-1,56
 1042.87 114.618 1042.87 114.618 1068.64 121.06 c 0,57,58
 1150.95 141.639 1150.95 141.639 1211.88 181.307 c 0,59,60
 1270.74 219.634 1270.74 219.634 1301.71 266.086 c 0,61,62
 1334.73 315.616 1334.73 315.616 1352.28 373.929 c 0,63,64
 1369.04 429.623 1369.04 429.623 1364.23 485.878 c 0,65,66
 1358.9 548.11 1358.9 548.11 1341.5 608.123 c 0,67,68
 1325.38 663.729 1325.38 663.729 1291.78 711.062 c 0,69,70
 1256.5 760.758 1256.5 760.758 1214.14 796.849 c 0,71,72
 1175.49 829.78 1175.49 829.78 1124 846.35 c 0,73,74
 1073.06 862.745 1073.06 862.745 1018.9 857.323 c 0,75,76
 971.005 852.528 971.005 852.528 936.576 829.312 c 0,77,78
 900.749 805.153 900.749 805.153 878.987 768.278 c 0,79,80
 853.085 724.388 853.085 724.388 833.598 668.014 c 0,81,82
 813.053 608.581 813.053 608.581 797.649 543.474 c 0,83,84
 781.383 474.711 781.383 474.711 764.545 406.348 c 0,85,86
 746.688 333.844 746.688 333.844 720.444 267.223 c 0,87,88
 693.168 197.979 693.168 197.979 655.546 142.453 c 0,89,90
 613.802 80.8428 613.802 80.8428 546.562 41.0059 c 128,-1,91
 479.186 1.08789 479.186 1.08789 392.294 -6.73828 c 0,92,93
 322.212 -13.0498 322.212 -13.0498 261.312 29.7832 c 0,94,95
 206.95 68.0176 206.95 68.0176 171.765 135.615 c 0,96,97
 140.582 195.523 140.582 195.523 120.364 271.444 c 0,98,99
 99.7812 348.736 99.7812 348.736 100.002 436.864 c 0,100,101
 100.216 522.287 100.216 522.287 115.519 604.931 c 0,102,103
 131.49 691.193 131.49 691.193 173.707 773.219 c 0,104,105
 216.678 856.707 216.678 856.707 281.282 917.361 c 0,106,107
 300.649 935.542 300.649 935.542 327.816 934.684 c 128,-1,0
 354.983 933.825 354.983 933.825 373.16 914.465 c 128,-1,1
EndSplineSet
EndChar

StartChar: k4
Encoding: 57 3352 58
Width: 2692
GlyphClass: 2
Flags: MW
LayerCount: 2
Fore
SplineSet
1212.99 92.3447 m 1,0,1
 1251.87 2.16448 1251.87 2.16448 1355.95 -44.542 c 0,2,3
 1411.73 -69.5693 1411.73 -69.5693 1536.6 -80.6731 c 128,-1,4
 1661.47 -91.7769 1661.47 -91.7769 1801.69 -81.2334 c 1,5,6
 1889.84 -78.2217 1889.84 -78.2217 1959.86 -77.3193 c 128,-1,7
 2029.89 -76.417 2029.89 -76.417 2136.4 -62.3196 c 128,-1,8
 2242.92 -48.2222 2242.92 -48.2222 2336.34 9.99609 c 0,9,10
 2401.32 50.4845 2401.32 50.4845 2439.33 147.236 c 0,11,12
 2498.91 298.855 2498.91 298.855 2412.17 709.245 c 0,13,14
 2393.41 798.012 2393.41 798.012 2365 914.325 c 0,15,16
 2358.7 940.123 2358.7 940.123 2372.8 963.357 c 128,-1,17
 2386.91 986.592 2386.91 986.592 2412.71 992.896 c 128,-1,18
 2438.51 999.201 2438.51 999.201 2461.75 985.092 c 128,-1,19
 2484.98 970.981 2484.98 970.981 2491.28 945.185 c 0,20,21
 2584.2 564.813 2584.2 564.813 2591.84 382.061 c 0,22,23
 2606.74 25.3225 2606.74 25.3225 2405.09 -100.34 c 0,24,25
 2239.17 -203.734 2239.17 -203.734 1934.61 -207.655 c 0,26,27
 1893.21 -208.188 1893.21 -208.188 1806.14 -212.945 c 0,28,29
 1456.3 -232.057 1456.3 -232.057 1302.73 -163.148 c 0,30,31
 1226.5 -128.94 1226.5 -128.94 1166.88 -70.9354 c 128,-1,32
 1107.27 -12.9304 1107.27 -12.9304 1075.04 91.4609 c 1,33,-1
 542.399 88.0459 l 2,34,35
 517.138 87.8848 517.138 87.8848 497.917 105.257 c 128,-1,36
 478.697 122.63 478.697 122.63 477.327 149.781 c 128,-1,37
 475.957 176.933 475.957 176.933 493.763 196.632 c 0,38,39
 746.902 476.681 746.902 476.681 742.811 627.87 c 0,40,41
 740.279 721.433 740.279 721.433 619.341 726.538 c 128,-1,42
 498.403 731.643 498.403 731.643 386.238 669.818 c 128,-1,43
 274.072 607.994 274.072 607.994 241.755 516.754 c 0,44,45
 194.31 382.802 194.31 382.802 348.837 222.098 c 0,46,47
 367.247 202.947 367.247 202.947 366.712 175.772 c 128,-1,48
 366.177 148.597 366.177 148.597 347.035 130.19 c 128,-1,49
 327.896 111.784 327.896 111.784 300.718 112.315 c 128,-1,50
 273.539 112.847 273.539 112.847 255.129 131.992 c 0,51,52
 121.778 270.675 121.778 270.675 102.67 414.4 c 0,53,54
 92.8369 488.364 92.8369 488.364 119.216 560.159 c 0,55,56
 168.034 697.987 168.034 697.987 317.779 780.525 c 128,-1,57
 467.524 863.062 467.524 863.062 626.312 856.359 c 128,-1,58
 785.101 849.656 785.101 849.656 847.144 733.42 c 0,59,60
 945.021 550.042 945.021 550.042 683.186 218.951 c 1,61,-1
 1050.52 221.306 l 1,62,63
 1031.58 433.267 1031.58 433.267 1105.5 611.13 c 128,-1,64
 1179.43 788.993 1179.43 788.993 1324.56 871.548 c 128,-1,65
 1469.7 954.103 1469.7 954.103 1620.56 885.757 c 128,-1,66
 1771.42 817.412 1771.42 817.412 1839.43 594.868 c 128,-1,67
 1907.43 372.324 1907.43 372.324 1841.38 227.213 c 0,68,69
 1813.44 165.834 1813.44 165.834 1752.18 129.428 c 128,-1,70
 1690.93 93.0215 1690.93 93.0215 1606.46 94.8672 c 1,71,-1
 1212.99 92.3447 l 1,0,1
1181.05 222.143 m 1,72,-1
 1607.66 224.877 l 1,73,74
 1696.45 222.62 1696.45 222.62 1723.06 281.066 c 0,75,76
 1768.72 381.387 1768.72 381.387 1716.5 552.313 c 128,-1,77
 1664.27 723.239 1664.27 723.239 1559.94 770.503 c 0,78,79
 1476.39 808.352 1476.39 808.352 1379.39 753.176 c 128,-1,80
 1282.39 698 1282.39 698 1221.96 552.611 c 128,-1,81
 1161.54 407.223 1161.54 407.223 1181.05 222.143 c 1,72,-1
EndSplineSet
EndChar

StartChar: ng
Encoding: 58 3353 59
Width: 1777
GlyphClass: 2
Flags: MW
LayerCount: 2
Fore
SplineSet
1202.76 517.446 m 128,-1,1
 1219.3 537.152 1219.3 537.152 1238.41 540.132 c 128,-1,2
 1257.53 543.111 1257.53 543.111 1264.97 543.78 c 0,3,4
 1392.6 555.255 1392.6 555.255 1436.87 631.705 c 0,5,6
 1470.35 689.535 1470.35 689.535 1445.34 757.377 c 128,-1,7
 1420.33 825.219 1420.33 825.219 1354.66 855.715 c 0,8,9
 1252.66 903.077 1252.66 903.077 1110.04 831.195 c 1,10,11
 1017.23 748.518 1017.23 748.518 990.896 607.365 c 0,12,13
 981.997 559.668 981.997 559.668 977.532 497.057 c 1,14,15
 1002.95 318.668 1002.95 318.668 984.11 121.089 c 0,16,17
 983.009 109.528 983.009 109.528 982.075 89.8818 c 128,-1,18
 981.141 70.2344 981.141 70.2344 980.107 61.2119 c 0,19,20
 972.796 -2.58691 972.796 -2.58691 909.18 -16.3516 c 0,21,22
 887.689 -21.001 887.689 -21.001 867.165 -4.82422 c 1,23,24
 817.262 31.458 817.262 31.458 838.634 64.1055 c 1,25,26
 838.634 66.8936 838.634 66.8936 841.379 98.8369 c 0,27,28
 847.899 174.704 847.899 174.704 845.306 300.078 c 128,-1,29
 842.711 425.451 842.711 425.451 846.887 491.814 c 1,30,31
 795.566 824.343 795.566 824.343 612.946 862.44 c 1,32,33
 412.913 901.074 412.913 901.074 315.487 773.589 c 0,34,35
 249.791 687.622 249.791 687.622 235.726 550.157 c 1,36,37
 309.237 658.083 309.237 658.083 407.99 655.014 c 128,-1,38
 506.742 651.944 506.742 651.944 568.525 544.893 c 128,-1,39
 630.309 437.841 630.309 437.841 614.401 318.576 c 0,40,41
 604.921 251.207 604.921 251.207 567.064 179.499 c 128,-1,42
 529.208 107.79 529.208 107.79 500.479 70.8701 c 0,43,44
 441.937 -4.36328 441.937 -4.36328 359.892 -8.2627 c 0,45,46
 245.501 -13.6982 245.501 -13.6982 173.976 131.527 c 128,-1,47
 102.45 276.752 102.45 276.752 101.87 492.078 c 128,-1,48
 101.29 707.404 101.29 707.404 212.198 852.527 c 0,49,50
 358.851 1044.42 358.851 1044.42 638.512 989.903 c 1,51,52
 814.325 953.718 814.325 953.718 904.069 763.632 c 1,53,54
 914.852 787.067 914.852 787.067 941.582 834.181 c 128,-1,55
 968.312 881.294 968.312 881.294 1031.16 934.87 c 0,56,57
 1036.74 939.631 1036.74 939.631 1043.25 943.028 c 0,58,59
 1246.66 1049.19 1246.66 1049.19 1409.41 973.623 c 0,60,61
 1523.75 920.528 1523.75 920.528 1568.6 798.877 c 128,-1,62
 1613.45 677.227 1613.45 677.227 1549.37 566.567 c 0,63,64
 1527.7 529.139 1527.7 529.139 1496.14 500.297 c 1,65,66
 1560.48 469.48 1560.48 469.48 1605.7 417.657 c 0,67,68
 1691.51 319.311 1691.51 319.311 1676.54 199.861 c 128,-1,69
 1661.56 80.4121 1661.56 80.4121 1572.86 27.1055 c 0,70,71
 1454.59 -43.9648 1454.59 -43.9648 1305.15 53.9902 c 0,72,73
 1231.17 102.483 1231.17 102.483 1157.48 191.75 c 0,74,75
 1140.57 212.227 1140.57 212.227 1143.16 239.286 c 128,-1,76
 1145.74 266.347 1145.74 266.347 1166.22 283.258 c 128,-1,77
 1186.71 300.167 1186.71 300.167 1213.77 297.58 c 128,-1,78
 1240.82 294.992 1240.82 294.992 1257.73 274.514 c 0,79,80
 1318.9 200.417 1318.9 200.417 1388.25 154.962 c 128,-1,81
 1457.59 109.506 1457.59 109.506 1499.01 134.397 c 128,-1,82
 1540.43 159.289 1540.43 159.289 1547.86 218.5 c 128,-1,83
 1555.28 277.71 1555.28 277.71 1507.75 332.188 c 0,84,85
 1431.23 419.881 1431.23 419.881 1254.98 412.786 c 0,86,87
 1229.24 411.75 1229.24 411.75 1209.04 429.807 c 128,-1,88
 1188.85 447.863 1188.85 447.863 1187.53 472.802 c 128,-1,0
 1186.22 497.74 1186.22 497.74 1202.76 517.446 c 128,-1,1
237.302 375.577 m 1,89,90
 249.4 272.613 249.4 272.613 276.455 217.682 c 128,-1,91
 303.51 162.749 303.51 162.749 318.612 145.146 c 0,92,93
 339.406 120.911 339.406 120.911 349.011 121.367 c 128,-1,94
 358.615 121.824 358.615 121.824 366.312 126.209 c 128,-1,95
 374.011 130.594 374.011 130.594 386.507 143.002 c 128,-1,96
 399.004 155.41 399.004 155.41 412.419 173.992 c 0,97,98
 444.374 218.255 444.374 218.255 463.512 266.744 c 128,-1,99
 482.649 315.233 482.649 315.233 485.604 336.223 c 0,100,101
 495.687 411.822 495.687 411.822 463.285 468.031 c 0,102,103
 421.564 540.405 421.564 540.405 382.578 518.757 c 0,104,105
 347.148 499.084 347.148 499.084 308.218 412.805 c 0,106,107
 299.308 393.058 299.308 393.058 279.231 382.576 c 128,-1,108
 259.156 372.095 259.156 372.095 237.302 375.577 c 1,89,90
EndSplineSet
EndChar

StartChar: ch1
Encoding: 59 3354 60
Width: 1754
GlyphClass: 2
Flags: MW
LayerCount: 2
Fore
SplineSet
415.431 317.683 m 132,-1,1
 391.94 305.301 391.94 305.301 365.974 313.341 c 132,-1,2
 340.006 321.382 340.006 321.382 327.622 344.88 c 4,3,4
 296.012 404.859 296.012 404.859 285.372 461.448 c 132,-1,5
 274.732 518.037 274.732 518.037 288.622 572.53 c 132,-1,6
 302.512 627.023 302.512 627.023 343.218 669.838 c 4,7,8
 427.305 758.283 427.305 758.283 580.718 763.745 c 4,9,10
 728.428 769.005 728.428 769.005 834.808 695.219 c 4,11,12
 889.59 657.222 889.59 657.222 919.415 602.656 c 132,-1,13
 949.24 548.091 949.24 548.091 949.381 484.227 c 4,14,15
 950.562 411.782 950.562 411.782 922.726 348.731 c 4,16,17
 895.701 287.52 895.701 287.52 851.98 242.778 c 4,18,19
 810.323 200.149 810.323 200.149 747.787 163.72 c 4,20,21
 701.598 136.814 701.598 136.814 656.142 117 c 5,22,-1
 1302.63 117 l 6,23,24
 1363.49 117 1363.49 117 1406.96 131.756 c 4,25,26
 1445.79 145.23 1445.79 145.23 1466.08 165.886 c 4,27,28
 1488.54 188.756 1488.54 188.756 1502.58 222.499 c 4,29,30
 1517.61 258.621 1517.61 258.621 1521.36 300.561 c 4,31,32
 1525.68 348.883 1525.68 348.883 1524.46 406.074 c 132,-1,33
 1523.24 463.365 1523.24 463.365 1515.87 520.185 c 4,34,35
 1507.97 581.061 1507.97 581.061 1500.62 646.16 c 4,36,37
 1493.3 710.934 1493.3 710.934 1487.16 768.165 c 4,38,39
 1480.62 829.154 1480.62 829.154 1481.55 889.924 c 4,40,41
 1482.53 953.532 1482.53 953.532 1493.72 1002.49 c 4,42,43
 1499.64 1028.37 1499.64 1028.37 1522.66 1042.83 c 132,-1,44
 1545.68 1057.28 1545.68 1057.28 1571.58 1051.37 c 132,-1,45
 1597.47 1045.45 1597.47 1045.45 1611.92 1022.42 c 132,-1,46
 1626.37 999.401 1626.37 999.401 1620.46 973.515 c 4,47,48
 1612.31 937.873 1612.31 937.873 1611.54 887.918 c 4,49,50
 1610.72 835.11 1610.72 835.11 1616.42 782.04 c 4,51,52
 1622.52 725.206 1622.52 725.206 1629.8 660.74 c 4,53,54
 1637.04 596.625 1637.04 596.625 1644.78 536.915 c 4,55,56
 1653.05 473.168 1653.05 473.168 1654.43 408.847 c 132,-1,57
 1655.8 344.469 1655.8 344.469 1650.84 288.976 c 4,58,59
 1645.31 227.131 1645.31 227.131 1622.6 172.566 c 4,60,61
 1598.91 115.608 1598.91 115.608 1558.83 74.793 c 4,62,63
 1517.19 32.4043 1517.19 32.4043 1449.16 8.79492 c 4,64,65
 1384.95 -13 1384.95 -13 1302.63 -13 c 6,66,-1
 165.09 -13 l 6,67,68
 143.316 -13 143.316 -13 125.363 0.856445 c 132,-1,69
 107.411 14.7129 107.411 14.7129 102.03 36.2354 c 4,70,71
 95.5908 61.9961 95.5908 61.9961 109.577 85.3076 c 132,-1,72
 123.564 108.619 123.564 108.619 149.325 115.06 c 4,73,74
 179.007 122.479 179.007 122.479 242.331 136.023 c 4,75,76
 306.193 149.672 306.193 149.672 355.43 160.346 c 4,77,78
 403.059 170.671 403.059 170.671 469.404 189.724 c 4,79,80
 534.86 208.52 534.86 208.52 584.189 227.895 c 4,81,82
 631.746 246.572 631.746 246.572 682.353 276.052 c 4,83,84
 729.66 303.609 729.66 303.609 759.001 333.635 c 4,85,86
 786.278 361.547 786.278 361.547 803.801 401.237 c 4,87,88
 820.265 438.529 820.265 438.529 819.379 483.072 c 4,89,90
 819.456 517.374 819.456 517.374 806.133 541.757 c 132,-1,91
 792.809 566.14 792.809 566.14 760.716 588.399 c 4,92,93
 689.855 637.549 689.855 637.549 585.342 633.828 c 4,94,95
 484.959 630.254 484.959 630.254 437.432 580.263 c 4,96,97
 419.322 561.216 419.322 561.216 412.556 539.698 c 132,-1,98
 405.788 518.181 405.788 518.181 412.408 484.227 c 132,-1,99
 419.027 450.271 419.027 450.271 442.628 405.491 c 4,100,101
 455.011 381.989 455.011 381.989 446.967 356.026 c 132,-1,0
 438.923 330.063 438.923 330.063 415.431 317.683 c 132,-1,1
EndSplineSet
EndChar

StartChar: ch2
Encoding: 60 3355 61
Width: 2354
GlyphClass: 2
Flags: MW
LayerCount: 2
Fore
SplineSet
1900.88 778.014 m 1,0,1
 1800.53 818.54 1800.53 818.54 1694.7 809.858 c 0,2,3
 1443.35 789.237 1443.35 789.237 1321.49 606.444 c 0,4,5
 1208.49 436.959 1208.49 436.959 1301.94 283.269 c 0,6,7
 1373.26 165.967 1373.26 165.967 1577.61 95.4434 c 0,8,9
 1621.4 80.3291 1621.4 80.3291 1621.4 43.665 c 0,10,11
 1621.4 -31 1621.4 -31 1556.4 -31 c 2,12,-1
 164.401 -31 l 2,13,14
 113.651 -31 113.651 -31 104.276 6.49805 c 0,15,16
 85.5771 81.2949 85.5771 81.2949 148.637 97.0596 c 0,17,18
 164.402 101.001 164.402 101.001 209.181 111.688 c 0,19,20
 456.535 170.731 456.535 170.731 513.846 206.41 c 0,21,22
 646.848 289.212 646.848 289.212 673.703 343.528 c 128,-1,23
 700.559 397.844 700.559 397.844 705.325 426.486 c 0,24,25
 713.127 473.361 713.127 473.361 676.839 508.211 c 128,-1,26
 640.551 543.061 640.551 543.061 553.173 540.126 c 128,-1,27
 465.796 537.191 465.796 537.191 423.414 499.113 c 128,-1,28
 381.033 461.035 381.033 461.035 374.648 429.69 c 128,-1,29
 368.265 398.346 368.265 398.346 381.841 359.288 c 128,-1,30
 395.418 320.231 395.418 320.231 383.942 295.591 c 128,-1,31
 372.467 270.949 372.467 270.949 347.518 261.853 c 0,32,33
 286.451 239.586 286.451 239.586 260.261 309.592 c 0,34,35
 199.307 472.523 199.307 472.523 306.715 569.026 c 128,-1,36
 414.123 665.529 414.123 665.529 552.575 670.179 c 128,-1,37
 691.026 674.829 691.026 674.829 751.511 616.74 c 128,-1,38
 811.994 558.652 811.994 558.652 826.539 508.933 c 0,39,40
 869.199 363.099 869.199 363.099 741.26 216.234 c 0,41,42
 684.131 150.655 684.131 150.655 584.845 99 c 1,43,-1
 1297.19 99 l 1,44,45
 1157.21 211.432 1157.21 211.432 1134.06 372.243 c 0,46,47
 1111.88 526.395 1111.88 526.395 1213.32 678.556 c 0,48,49
 1365.72 907.153 1365.72 907.153 1646.57 938.754 c 1,50,51
 1967.64 960.518 1967.64 960.518 2133.78 766.333 c 0,52,53
 2254.58 625.052 2254.58 625.052 2254.48 433.387 c 128,-1,54
 2254.39 241.723 2254.39 241.723 2162.63 110.054 c 0,55,56
 2015.89 -100.5 2015.89 -100.5 1770.01 1.45703 c 0,57,58
 1645.23 53.1953 1645.23 53.1953 1557.74 185.064 c 0,59,60
 1491.25 285.282 1491.25 285.282 1482.43 392.122 c 128,-1,61
 1473.61 498.961 1473.61 498.961 1497.09 572.701 c 128,-1,62
 1520.57 646.44 1520.57 646.44 1597.91 702.915 c 0,63,64
 1731.64 800.565 1731.64 800.565 1900.88 778.014 c 1,0,1
2097.95 576.106 m 1,65,66
 2055.84 554.643 2055.84 554.643 2019.61 590.866 c 0,67,68
 1936.92 673.555 1936.92 673.555 1789.2 647.489 c 0,69,70
 1647.5 622.486 1647.5 622.486 1619 520.508 c 0,71,72
 1618.29 517.952 1618.29 517.952 1611.83 500.471 c 0,73,74
 1595.97 457.562 1595.97 457.562 1616.74 378.77 c 0,75,76
 1667.95 184.509 1667.95 184.509 1819.8 121.543 c 0,77,78
 1868.74 101.248 1868.74 101.248 1934.94 103.462 c 128,-1,79
 2001.13 105.676 2001.13 105.676 2062.77 194.139 c 128,-1,80
 2124.41 282.603 2124.41 282.603 2124.46 394.51 c 128,-1,81
 2124.52 506.417 2124.52 506.417 2097.95 576.106 c 1,65,66
EndSplineSet
EndChar

StartChar: ch3
Encoding: 61 3356 62
Width: 1769
GlyphClass: 2
Flags: MW
LayerCount: 2
Fore
SplineSet
239.966 545.512 m 1,0,1
 310.278 605.792 310.278 605.792 385.76 610.941 c 128,-1,2
 461.241 616.09 461.241 616.09 527.41 561.348 c 128,-1,3
 593.579 506.604 593.579 506.604 614.013 416.644 c 0,4,5
 663.68 198.04 663.68 198.04 563.884 94.9883 c 0,6,7
 524.188 53.998 524.188 53.998 468.847 41.7305 c 128,-1,8
 413.505 29.4629 413.505 29.4629 358.308 46.4453 c 1,9,10
 244.513 78.9648 244.513 78.9648 174.483 188.795 c 0,11,12
 78.792 338.872 78.792 338.872 106.039 537.466 c 1,13,14
 166.264 879.916 166.264 879.916 395.479 962.073 c 0,15,16
 531.675 1010.89 531.675 1010.89 662.919 940.402 c 128,-1,17
 794.163 869.916 794.163 869.916 860.375 730.285 c 1,18,19
 943.516 896.599 943.516 896.599 1079.66 967.453 c 128,-1,20
 1215.8 1038.31 1215.8 1038.31 1361.7 958.104 c 0,21,22
 1481.9 892.021 1481.9 892.021 1538.83 752.077 c 0,23,24
 1610.38 576.186 1610.38 576.186 1540.11 396.24 c 128,-1,25
 1469.84 216.294 1469.84 216.294 1291.5 92.9199 c 128,-1,26
 1113.16 -30.4551 1113.16 -30.4551 949.815 -55.5918 c 0,27,28
 878.632 -66.5459 878.632 -66.5459 814.166 -71.2949 c 0,29,30
 550.419 -90.7227 550.419 -90.7227 382.558 -177.996 c 0,31,32
 291.054 -225.57 291.054 -225.57 287.799 -253.114 c 1,33,34
 292.634 -262.285 292.634 -262.285 315.506 -274.654 c 0,35,36
 391.019 -315.488 391.019 -315.488 512.579 -305.378 c 128,-1,37
 634.141 -295.268 634.141 -295.268 733.711 -244.868 c 0,38,39
 771.799 -225.589 771.799 -225.589 921.494 -143.299 c 128,-1,40
 1071.19 -61.0088 1071.19 -61.0088 1146.64 -37.3252 c 0,41,42
 1352.2 27.1934 1352.2 27.1934 1509.25 -14.4316 c 0,43,44
 1608.84 -40.8262 1608.84 -40.8262 1651.98 -132.242 c 128,-1,45
 1695.12 -223.657 1695.12 -223.657 1633.73 -375.176 c 0,46,47
 1596.12 -468.014 1596.12 -468.014 1488.46 -496.143 c 128,-1,48
 1380.79 -524.272 1380.79 -524.272 1273.56 -444.388 c 128,-1,49
 1166.34 -364.504 1166.34 -364.504 1147.34 -177.286 c 1,50,51
 1076.58 -206.397 1076.58 -206.397 954.514 -273.495 c 128,-1,52
 832.45 -340.593 832.45 -340.593 792.422 -360.854 c 0,53,54
 670.212 -422.717 670.212 -422.717 516.718 -435.482 c 128,-1,55
 363.225 -448.249 363.225 -448.249 253.669 -389.005 c 0,56,57
 172.133 -344.913 172.133 -344.913 159.78 -276.119 c 0,58,59
 153.96 -243.705 153.96 -243.705 164.816 -210.19 c 0,60,61
 187.284 -140.831 187.284 -140.831 261.139 -93.9668 c 128,-1,62
 334.993 -47.1025 334.993 -47.1025 473.905 -1.4375 c 128,-1,63
 612.817 44.2266 612.817 44.2266 786.847 57.0449 c 128,-1,64
 960.877 69.8633 960.877 69.8633 1045.92 104.9 c 128,-1,65
 1130.96 139.938 1130.96 139.938 1208.36 193.48 c 0,66,67
 1363.2 300.599 1363.2 300.599 1416.82 437.9 c 128,-1,68
 1470.44 575.202 1470.44 575.202 1424.65 687.761 c 128,-1,69
 1378.86 800.319 1378.86 800.319 1296.36 845.672 c 128,-1,70
 1213.86 891.025 1213.86 891.025 1129.05 846.686 c 0,71,72
 996.423 777.578 996.423 777.578 918.988 523.835 c 1,73,74
 909.302 421.499 909.302 421.499 902.258 338.052 c 1,75,76
 894.888 183.4 894.888 183.4 889.988 142.014 c 128,-1,77
 885.089 100.627 885.089 100.627 863.74 83.7959 c 128,-1,78
 842.391 66.9658 842.391 66.9658 816.248 70.0596 c 128,-1,79
 790.105 73.1533 790.105 73.1533 773.982 94.4043 c 128,-1,80
 757.858 115.655 757.858 115.655 758.712 137.207 c 2,81,-1
 761.133 198.369 l 1,82,83
 776.121 420.907 776.121 420.907 780.565 539.604 c 1,84,85
 765.602 673.247 765.602 673.247 690.807 756.095 c 128,-1,86
 616.011 838.942 616.011 838.942 525.374 849.633 c 128,-1,87
 434.736 860.322 434.736 860.322 355.187 786.938 c 128,-1,88
 275.636 713.555 275.636 713.555 239.966 545.512 c 1,0,1
245.692 339.3 m 1,89,90
 258.364 299.044 258.364 299.044 280.623 264.134 c 0,91,92
 327.628 190.417 327.628 190.417 394.029 171.441 c 1,93,94
 425.572 163.636 425.572 163.636 440.741 166.999 c 128,-1,95
 455.909 170.363 455.909 170.363 470.496 185.426 c 0,96,97
 520.89 237.463 520.89 237.463 487.712 385.768 c 1,98,99
 471.437 438.932 471.437 438.932 444.888 460.896 c 0,100,101
 394.209 502.825 394.209 502.825 329.386 450.809 c 0,102,103
 289.589 418.873 289.589 418.873 261.149 359.765 c 0,104,105
 255.632 348.298 255.632 348.298 245.692 339.3 c 1,89,90
1273.45 -137.724 m 1,106,107
 1275.04 -144.163 1275.04 -144.163 1275.43 -149.662 c 0,108,109
 1285.72 -291.33 1285.72 -291.33 1360.35 -346.931 c 0,110,111
 1408.36 -382.704 1408.36 -382.704 1454.25 -370.717 c 128,-1,112
 1500.13 -358.729 1500.13 -358.729 1513.3 -326.226 c 0,113,114
 1577.78 -167.08 1577.78 -167.08 1475.95 -140.093 c 0,115,116
 1394.35 -118.468 1394.35 -118.468 1273.45 -137.724 c 1,106,107
EndSplineSet
EndChar

StartChar: ch4
Encoding: 62 3357 63
Width: 3078
GlyphClass: 2
Flags: MW
LayerCount: 2
Fore
SplineSet
2102.92 949.739 m 1,0,1
 2102.26 773.956 2102.26 773.956 2115.6 474.854 c 1,2,3
 2132.15 428.916 2132.15 428.916 2155.88 387.083 c 1,4,5
 2280.69 183.401 2280.69 183.401 2441.96 160.718 c 0,6,7
 2565.35 143.983 2565.35 143.983 2675.29 232.368 c 128,-1,8
 2785.22 320.752 2785.22 320.752 2831.41 468.377 c 128,-1,9
 2877.6 616.003 2877.6 616.003 2806.71 755.277 c 0,10,11
 2752.87 861.039 2752.87 861.039 2633.33 935.765 c 0,12,13
 2610.81 949.842 2610.81 949.842 2604.7 976.323 c 128,-1,14
 2598.59 1002.8 2598.59 1002.8 2612.66 1025.33 c 128,-1,15
 2626.74 1047.86 2626.74 1047.86 2653.23 1053.97 c 128,-1,16
 2679.72 1060.08 2679.72 1060.08 2702.23 1046 c 0,17,18
 2852.37 952.154 2852.37 952.154 2922.56 814.259 c 0,19,20
 3017.49 627.754 3017.49 627.754 2951.57 417.046 c 0,21,22
 2897.53 244.339 2897.53 244.339 2750.07 125.805 c 128,-1,23
 2602.61 7.27051 2602.61 7.27051 2424.12 31.9482 c 0,24,25
 2201.78 62.6885 2201.78 62.6885 2043.96 320.921 c 0,26,27
 2042.11 324.159 2042.11 324.159 2040.65 326.771 c 1,28,29
 1962.35 162.911 1962.35 162.911 1817 82.583 c 128,-1,30
 1671.66 2.25488 1671.66 2.25488 1533.71 34.8613 c 128,-1,31
 1395.76 67.4677 1395.76 67.4677 1345.83 194.35 c 0,32,33
 1278.19 366.214 1278.19 366.214 1421.01 620.22 c 1,34,35
 1456.98 718.048 1456.98 718.048 1445.45 772.616 c 128,-1,36
 1433.93 827.183 1433.93 827.183 1395.67 860.282 c 0,37,38
 1324.71 920.78 1324.71 920.78 1188.17 909.441 c 128,-1,39
 1051.63 898.102 1051.63 898.102 928.377 818.939 c 1,40,41
 1027.35 671.81 1027.35 671.81 1035.46 463.542 c 0,42,43
 1046.26 168.87 1046.26 168.87 926.534 65.8848 c 0,44,45
 880.384 26.1855 880.384 26.1855 821.659 21.6475 c 128,-1,46
 762.936 17.1094 762.936 17.1094 709.452 46.5566 c 1,47,48
 612.84 97.7041 612.84 97.7041 559.855 222.788 c 128,-1,49
 506.871 347.871 506.871 347.871 542.234 491.069 c 0,50,51
 592.487 694.562 592.487 694.562 739.968 835.653 c 1,52,53
 677.013 886.625 677.013 886.625 595.782 905.815 c 0,54,55
 473.7 934.657 473.7 934.657 370.655 877.077 c 128,-1,56
 267.609 819.497 267.609 819.497 239.478 688.964 c 0,57,58
 191.687 467.218 191.687 467.218 383.143 138.349 c 0,59,60
 396.505 115.39 396.505 115.39 389.563 89.1113 c 128,-1,61
 382.621 62.833 382.621 62.833 359.672 49.4717 c 128,-1,62
 336.726 36.1094 336.726 36.1094 310.441 43.0488 c 128,-1,63
 284.158 49.9873 284.158 49.9873 270.795 72.9424 c 0,64,65
 53.9893 445.344 53.9893 445.344 112.395 716.352 c 0,66,67
 152.904 904.318 152.904 904.318 303.647 988.553 c 128,-1,68
 454.39 1072.79 454.39 1072.79 625.67 1032.33 c 0,69,70
 750.192 1002.92 750.192 1002.92 843.046 918.385 c 1,71,72
 1000.12 1024.27 1000.12 1024.27 1184.36 1039.57 c 128,-1,73
 1368.61 1054.87 1368.61 1054.87 1480.35 958.918 c 0,74,75
 1549.78 899.296 1549.78 899.296 1570.64 801.197 c 128,-1,76
 1591.5 703.098 1591.5 703.098 1540.88 569.608 c 0,77,78
 1539.09 564.914 1539.09 564.914 1536.61 560.547 c 0,79,80
 1421.29 357.584 1421.29 357.584 1466.79 241.957 c 0,81,82
 1491.83 178.342 1491.83 178.342 1572.27 159.329 c 128,-1,83
 1652.71 140.315 1652.71 140.315 1752.04 195.21 c 0,84,85
 1895.98 274.764 1895.98 274.764 1952.41 457.425 c 1,86,87
 1972.3 786.118 1972.3 786.118 1972.93 952.788 c 1,88,89
 1975.05 978.468 1975.05 978.468 1994.12 996.774 c 128,-1,90
 2013.18 1015.08 2013.18 1015.08 2043.88 1014.96 c 128,-1,91
 2074.57 1014.85 2074.57 1014.85 2093.48 983.737 c 1,92,-1
 2102.92 949.739 l 1,0,1
826.004 738.025 m 1,93,94
 708.989 624.091 708.989 624.091 668.442 459.901 c 0,95,96
 643.458 358.728 643.458 358.728 678.985 274.85 c 128,-1,97
 714.512 190.973 714.512 190.973 770.277 161.448 c 1,98,99
 798.08 147.864 798.08 147.864 811.494 148.904 c 128,-1,100
 824.908 149.945 824.908 149.945 849.018 170.685 c 128,-1,101
 873.128 191.424 873.128 191.424 891.553 264.613 c 128,-1,102
 909.979 337.803 909.979 337.803 904.555 480.693 c 128,-1,103
 899.132 623.583 899.132 623.583 826.004 738.025 c 1,93,94
EndSplineSet
EndChar

StartChar: nj
Encoding: 63 3358 64
Width: 2148
GlyphClass: 2
Flags: MW
LayerCount: 2
Fore
SplineSet
1370.69 944.499 m 1,0,1
 1473.06 1002.07 1473.06 1002.07 1593.56 1005.91 c 0,2,3
 1775.04 1011.7 1775.04 1011.7 1901.34 894.323 c 0,4,5
 2060.1 746.785 2060.1 746.785 2047.14 476.271 c 0,6,7
 2037.41 273.209 2037.41 273.209 1926.09 24.4385 c 0,8,9
 1915.24 0.199219 1915.24 0.199219 1889.85 -9.49609 c 128,-1,10
 1864.46 -19.1914 1864.46 -19.1914 1840.21 -8.34375 c 128,-1,11
 1815.97 2.50391 1815.97 2.50391 1806.27 27.9023 c 128,-1,12
 1796.58 53.2998 1796.58 53.2998 1807.43 77.5352 c 0,13,14
 1908.73 303.924 1908.73 303.924 1918.04 498.3 c 128,-1,15
 1927.35 692.676 1927.35 692.676 1812.84 799.098 c 0,16,17
 1725.72 880.06 1725.72 880.06 1597.7 875.979 c 0,18,19
 1532.61 873.904 1532.61 873.904 1475.37 850.94 c 1,20,21
 1591.9 709.327 1591.9 709.327 1603.25 482.829 c 128,-1,22
 1614.6 256.332 1614.6 256.332 1522.45 105.844 c 0,23,24
 1448.84 -14.373 1448.84 -14.373 1344.43 -24.3076 c 0,25,26
 1283.64 -30.0908 1283.64 -30.0908 1235.26 4.08594 c 0,27,28
 1080.97 113.08 1080.97 113.08 1102.76 489.795 c 0,29,30
 1115.8 715.252 1115.8 715.252 1257.55 857.772 c 1,31,32
 1181.19 889.757 1181.19 889.757 1119.61 868.05 c 128,-1,33
 1058.02 846.344 1058.02 846.344 1016.85 807.89 c 0,34,35
 923.572 720.756 923.572 720.756 894.577 527.505 c 1,36,37
 897.961 199.477 897.961 199.477 890.461 64.9189 c 1,38,-1
 886.824 25.0645 l 2,39,40
 884.411 -1.37891 884.411 -1.37891 863.521 -18.7764 c 128,-1,41
 842.631 -36.1729 842.631 -36.1729 819.303 -34.0444 c 128,-1,42
 795.976 -31.916 795.976 -31.916 777.486 -15.4254 c 128,-1,43
 758.997 1.06529 758.997 1.06529 754.452 44.3813 c 128,-1,44
 749.907 87.6974 749.907 87.6974 756.288 280.536 c 128,-1,45
 762.668 473.374 762.668 473.374 764.484 533.343 c 2,46,-1
 764.503 533.917 l 1,47,48
 762.615 721.44 762.615 721.44 691.809 798.894 c 128,-1,49
 621.002 876.348 621.002 876.348 522.15 863.207 c 128,-1,50
 423.298 850.066 423.298 850.066 338.086 757.34 c 128,-1,51
 252.874 664.613 252.874 664.613 236.459 526.695 c 1,52,53
 373.889 609.439 373.889 609.439 492.976 493.6 c 0,54,55
 565.05 423.487 565.05 423.487 575.901 284.807 c 0,56,57
 576.041 283.021 576.041 283.021 576.082 281.231 c 0,58,59
 579.623 127.385 579.623 127.385 492.679 39.2232 c 128,-1,60
 405.735 -48.9383 405.735 -48.9383 296.26 -18.9101 c 128,-1,61
 186.785 11.1182 186.785 11.1182 138.191 149.617 c 128,-1,62
 89.5972 288.115 89.5972 288.115 103.138 485.566 c 1,63,64
 110.606 701.924 110.606 701.924 246.606 849.918 c 0,65,66
 359.459 972.725 359.459 972.725 515.306 993.442 c 128,-1,67
 671.154 1014.16 671.154 1014.16 780.117 894.967 c 0,68,69
 819.519 851.864 819.519 851.864 845.766 793.991 c 1,70,71
 925.07 937.325 925.07 937.325 1072.35 989.232 c 128,-1,72
 1219.62 1041.14 1219.62 1041.14 1370.69 944.499 c 1,0,1
234.099 313.192 m 1,73,74
 240.66 250.228 240.66 250.228 257.442 202.395 c 0,75,76
 286.893 118.462 286.893 118.462 333.99 105.543 c 1,77,78
 364.639 94.5305 364.639 94.5305 406.27 136.743 c 128,-1,79
 447.9 178.956 447.9 178.956 446.153 276.451 c 1,80,81
 436.372 394.198 436.372 394.198 367.441 424.401 c 0,82,83
 342.112 435.5 342.112 435.5 308.542 418.098 c 128,-1,84
 274.972 400.696 274.972 400.696 265.814 363.912 c 128,-1,85
 256.655 327.129 256.655 327.129 234.099 313.192 c 1,73,74
1364.62 780.321 m 1,86,87
 1243.4 670.058 1243.4 670.058 1231.59 465.852 c 128,-1,88
 1219.78 261.646 1219.78 261.646 1275.26 151.675 c 128,-1,89
 1330.75 41.7047 1330.75 41.7047 1406.75 165.829 c 128,-1,90
 1482.75 289.953 1482.75 289.953 1473.22 480.175 c 128,-1,91
 1463.69 670.397 1463.69 670.397 1364.62 780.321 c 1,86,87
EndSplineSet
EndChar

StartChar: t1
Encoding: 64 3359 65
Width: 1059
GlyphClass: 2
Flags: MW
LayerCount: 2
Fore
SplineSet
827.244 728.996 m 128,-1,1
 803.735 716.65 803.735 716.65 777.78 724.731 c 128,-1,2
 751.826 732.812 751.826 732.812 739.479 756.33 c 0,3,4
 704.727 822.521 704.727 822.521 659.203 848.568 c 128,-1,5
 613.681 874.615 613.681 874.615 546.475 868.532 c 0,6,7
 438.91 858.796 438.91 858.796 332.139 773.312 c 0,8,9
 250.643 708.064 250.643 708.064 232.927 651.97 c 0,10,11
 230.85 645.391 230.85 645.391 230.285 640.541 c 1,12,13
 234.421 638.658 234.421 638.658 240.082 637.163 c 0,14,15
 256.44 632.843 256.44 632.843 282.414 633.215 c 0,16,17
 371.694 634.496 371.694 634.496 446.298 630.643 c 0,18,19
 521.723 626.747 521.723 626.747 596.14 616.091 c 0,20,21
 674.414 604.887 674.414 604.887 734.712 582.716 c 0,22,23
 796.218 560.101 796.218 560.101 845.049 526.561 c 0,24,25
 900.797 488.27 900.797 488.27 930.273 430.338 c 0,26,27
 959.316 373.258 959.316 373.258 959.316 302.595 c 0,28,29
 959.316 299.442 959.316 299.442 959.012 296.305 c 0,30,31
 948.906 192.337 948.906 192.337 893.165 117.731 c 128,-1,32
 837.423 43.126 837.423 43.126 742.344 8.15723 c 0,33,34
 594.359 -46.2705 594.359 -46.2705 407.959 2.75781 c 0,35,36
 248.238 44.7695 248.238 44.7695 165.009 134.931 c 0,37,38
 113.391 190.848 113.391 190.848 108.601 256.848 c 128,-1,39
 103.812 322.848 103.812 322.848 151.264 382.108 c 0,40,41
 158.877 391.2 158.877 391.2 167.771 399.929 c 0,42,43
 186.721 418.529 186.721 418.529 213.903 418.276 c 128,-1,44
 241.086 418.022 241.086 418.022 259.69 399.065 c 128,-1,45
 278.296 380.104 278.296 380.104 278.038 352.925 c 128,-1,46
 277.78 325.746 277.78 325.746 258.827 307.146 c 0,47,48
 254.47 302.869 254.47 302.869 250.936 298.648 c 0,49,50
 233.088 279.929 233.088 279.929 234.136 265.248 c 128,-1,51
 235.183 250.567 235.183 250.567 260.53 223.11 c 0,52,53
 318.017 160.838 318.017 160.838 441.028 128.482 c 0,54,55
 587.871 89.8574 587.871 89.8574 697.47 130.166 c 0,56,57
 759.099 152.833 759.099 152.833 790.415 194.112 c 128,-1,58
 821.731 235.393 821.731 235.393 829.294 305.67 c 1,59,60
 828.706 343.286 828.706 343.286 814.408 371.387 c 0,61,62
 799.932 399.838 799.932 399.838 771.449 419.401 c 0,63,64
 736.059 443.71 736.059 443.71 689.847 460.703 c 0,65,66
 642.426 478.141 642.426 478.141 577.714 487.405 c 0,67,68
 509.124 497.225 509.124 497.225 439.593 500.815 c 0,69,70
 369.27 504.447 369.27 504.447 284.28 503.229 c 0,71,72
 240.476 502.6 240.476 502.6 206.881 511.475 c 0,73,74
 142.262 528.544 142.262 528.544 115.517 576.468 c 0,75,76
 88.207 625.403 88.207 625.403 108.962 691.12 c 0,77,78
 138.569 784.865 138.569 784.865 250.889 874.793 c 0,79,80
 388.21 984.738 388.21 984.738 534.76 998.004 c 0,81,82
 638.791 1007.42 638.791 1007.42 721.478 960.104 c 128,-1,83
 804.163 912.786 804.163 912.786 854.578 816.762 c 0,84,85
 866.925 793.241 866.925 793.241 858.841 767.291 c 128,-1,0
 850.757 741.34 850.757 741.34 827.244 728.996 c 128,-1,1
EndSplineSet
EndChar

StartChar: t2
Encoding: 65 3360 66
Width: 1201
GlyphClass: 2
Flags: MW
LayerCount: 2
Fore
SplineSet
819.322 789.249 m 1,0,1
 782.119 772.845 782.119 772.845 751.145 798.743 c 0,2,3
 677.162 860.6 677.162 860.6 594.971 866.323 c 0,4,5
 478.724 874.417 478.724 874.417 373.948 781.112 c 128,-1,6
 269.173 687.806 269.173 687.806 229.205 550.148 c 128,-1,7
 189.237 412.49 189.237 412.49 255.11 304.443 c 0,8,9
 347.208 153.383 347.208 153.383 626.349 126.146 c 0,10,11
 734.697 115.574 734.697 115.574 827.095 196.716 c 128,-1,12
 919.664 278.008 919.664 278.008 956.907 406.352 c 0,13,14
 992.932 530.499 992.932 530.499 945.208 647.477 c 0,15,16
 911.199 730.837 911.199 730.837 819.322 789.249 c 1,0,1
753.755 953.021 m 1,17,18
 771.937 955.931 771.937 955.931 788.418 949.482 c 0,19,20
 890.391 909.584 890.391 909.584 961.783 842.786 c 0,21,22
 1091.95 720.994 1091.95 720.994 1100.89 534.938 c 0,23,24
 1108.7 372.284 1108.7 372.284 1015.67 221.766 c 0,25,26
 922.766 71.4507 922.766 71.4507 775.325 17.6332 c 0,27,28
 696.116 -11.2785 696.116 -11.2785 613.725 -3.23966 c 0,29,30
 269.994 30.298 269.994 30.298 144.113 236.77 c 0,31,32
 48.4203 393.727 48.4203 393.727 101.592 576.863 c 128,-1,33
 154.765 759.999 154.765 759.999 293.956 883.952 c 128,-1,34
 433.147 1007.9 433.147 1007.9 604.001 996.009 c 0,35,36
 682.158 990.567 682.158 990.567 753.755 953.021 c 1,17,18
EndSplineSet
EndChar

StartChar: t4
Encoding: 67 3362 68
Width: 2047
GlyphClass: 2
Flags: MW
LayerCount: 2
Fore
SplineSet
1234.27 460.886 m 1,0,1
 1239.67 429.633 1239.67 429.633 1247.94 400.222 c 0,2,3
 1251.07 389.069 1251.07 389.069 1254.47 378.474 c 0,4,5
 1274.55 315.851 1274.55 315.851 1304.3 270.44 c 0,6,7
 1340.16 215.72 1340.16 215.72 1386.23 173.509 c 0,8,9
 1427.73 135.495 1427.73 135.495 1471.99 121.449 c 0,10,11
 1520.68 106.001 1520.68 106.001 1569.33 105.461 c 0,12,13
 1608.87 105.022 1608.87 105.022 1646.86 128.414 c 0,14,15
 1690.96 155.566 1690.96 155.566 1726.85 201.319 c 0,16,17
 1762.43 246.681 1762.43 246.681 1787.39 328.433 c 0,18,19
 1813.57 414.143 1813.57 414.143 1819.44 525.188 c 0,20,21
 1821.49 563.801 1821.49 563.801 1817.15 598.922 c 1,22,23
 1790.02 536.108 1790.02 536.108 1718.39 500.882 c 0,24,25
 1615.45 450.253 1615.45 450.253 1517.17 498.83 c 0,26,27
 1380.52 566.374 1380.52 566.374 1364.26 787.064 c 0,28,29
 1358.76 869.352 1358.76 869.352 1399.97 924.436 c 0,30,31
 1433.38 969.097 1433.38 969.097 1485.87 985.718 c 128,-1,32
 1538.37 1002.34 1538.37 1002.34 1599.24 993.516 c 0,33,34
 1724.66 975.339 1724.66 975.339 1823.29 873.04 c 0,35,36
 1884.58 809.47 1884.58 809.47 1916.43 730.851 c 0,37,38
 1955.42 634.609 1955.42 634.609 1949.26 518.321 c 0,39,40
 1942.54 391.384 1942.54 391.384 1911.72 290.466 c 0,41,42
 1879.68 185.528 1879.68 185.528 1829.13 121.087 c 0,43,44
 1778.9 57.0498 1778.9 57.0498 1715.02 17.7158 c 0,45,46
 1645.02 -25.3867 1645.02 -25.3867 1567.88 -24.5312 c 0,47,48
 1499.84 -23.7754 1499.84 -23.7754 1432.67 -2.46289 c 0,49,50
 1361.06 20.2598 1361.06 20.2598 1298.42 77.6523 c 0,51,52
 1240.34 130.86 1240.34 130.86 1195.57 199.191 c 0,53,54
 1188.37 210.181 1188.37 210.181 1181.43 222.168 c 1,55,56
 1177.03 210.938 1177.03 210.938 1172.33 200.186 c 0,57,58
 1142.21 131.238 1142.21 131.238 1101.07 80.0039 c 0,59,60
 1054.38 21.8447 1054.38 21.8447 984.68 -4.97852 c 128,-1,61
 915.158 -31.7324 915.158 -31.7324 832.949 -18.9619 c 0,62,63
 831.469 -18.7324 831.469 -18.7324 830 -18.4336 c 0,64,65
 735.162 0.811523 735.162 0.811523 677.084 47.0361 c 0,66,67
 614.514 96.8369 614.514 96.8369 595.843 166.105 c 0,68,69
 580.017 224.82 580.017 224.82 583.84 294.171 c 0,70,71
 587.367 358.13 587.367 358.13 601.861 426.166 c 0,72,73
 615.314 489.312 615.314 489.312 628.025 551.854 c 0,74,75
 639.624 608.926 639.624 608.926 640.064 662.012 c 0,76,77
 640.464 710.173 640.464 710.173 627.072 748.84 c 0,78,79
 616.736 778.683 616.736 778.683 581.458 804.118 c 0,80,81
 542.964 831.872 542.964 831.872 474.457 846.529 c 1,82,83
 427.653 845.272 427.653 845.272 389.449 825.997 c 0,84,85
 347.687 804.927 347.687 804.927 319.796 769.443 c 0,86,87
 288.809 730.021 288.809 730.021 267.308 675.878 c 0,88,89
 245.229 620.281 245.229 620.281 236.681 558.414 c 0,90,91
 227.852 494.519 227.852 494.519 230.671 426.06 c 0,92,93
 233.478 357.884 233.478 357.884 248.02 295.323 c 0,94,95
 262.34 233.715 262.34 233.715 288.74 178.426 c 0,96,97
 313.976 125.576 313.976 125.576 347.384 89.3027 c 0,98,99
 365.379 69.7617 365.379 69.7617 364.261 42.6045 c 128,-1,100
 363.143 15.4473 363.143 15.4473 343.608 -2.54297 c 128,-1,101
 324.079 -20.5342 324.079 -20.5342 296.918 -19.4199 c 128,-1,102
 269.758 -18.3057 269.758 -18.3057 251.763 1.23242 c 0,103,104
 205.096 51.8994 205.096 51.8994 171.428 122.411 c 0,105,106
 138.923 190.484 138.923 190.484 121.396 265.89 c 0,107,108
 104.089 340.342 104.089 340.342 100.78 420.712 c 0,109,110
 97.4834 500.793 97.4834 500.793 107.903 576.207 c 0,111,112
 118.604 653.649 118.604 653.649 146.485 723.857 c 0,113,114
 174.947 795.528 174.947 795.528 217.589 849.779 c 0,115,116
 263.335 907.978 263.335 907.978 330.891 942.062 c 0,117,118
 399.364 976.608 399.364 976.608 480.691 976.608 c 0,119,120
 487.104 976.608 487.104 976.608 493.396 975.354 c 0,121,122
 594.066 955.293 594.066 955.293 657.486 909.567 c 0,123,124
 726.12 860.083 726.12 860.083 749.914 791.382 c 0,125,126
 770.646 731.522 770.646 731.522 770.06 660.93 c 0,127,128
 769.515 595.315 769.515 595.315 755.421 525.961 c 0,129,130
 742.585 462.806 742.585 462.806 729.008 399.076 c 0,131,132
 716.614 340.904 716.614 340.904 713.644 287.015 c 0,133,134
 710.969 238.502 710.969 238.502 721.362 199.939 c 0,135,136
 728.91 171.937 728.91 171.937 758.039 148.753 c 0,137,138
 791.123 122.421 791.123 122.421 854.347 109.277 c 1,139,140
 901.482 102.298 901.482 102.298 937.988 116.348 c 0,141,142
 974.961 130.576 974.961 130.576 999.702 161.393 c 0,143,144
 1030.01 199.139 1030.01 199.139 1053.21 252.235 c 0,145,146
 1076.91 306.489 1076.91 306.489 1089.24 372.192 c 0,147,148
 1097.27 414.979 1097.27 414.979 1103 458.791 c 1,149,150
 1095.57 510.651 1095.57 510.651 1094.88 564.659 c 0,151,152
 1094.88 606.428 1094.88 606.428 1085.21 694.331 c 0,153,154
 1074.76 789.323 1074.76 789.323 1074.76 847.436 c 0,155,156
 1074.76 866.609 1074.76 866.609 1075.79 878.265 c 128,-1,157
 1076.83 889.92 1076.83 889.92 1081.45 910.064 c 128,-1,158
 1086.07 930.21 1086.07 930.21 1098.81 945.379 c 128,-1,159
 1111.56 960.547 1111.56 960.547 1131.84 970.246 c 0,160,161
 1139.91 974.107 1139.91 974.107 1148.73 975.644 c 0,162,163
 1174.89 980.201 1174.89 980.201 1197.12 964.562 c 128,-1,164
 1219.36 948.924 1219.36 948.924 1223.92 922.765 c 0,165,166
 1233.33 868.752 1233.33 868.752 1238.65 802.545 c 0,167,168
 1243.9 737.11 1243.9 737.11 1245.06 659.87 c 0,169,170
 1246.25 581.065 1246.25 581.065 1238.71 502.255 c 0,171,172
 1236.76 481.791 1236.76 481.791 1234.27 460.886 c 1,0,1
1754.66 753.894 m 1,173,174
 1743.04 768.975 1743.04 768.975 1729.7 782.812 c 0,175,176
 1661.96 853.066 1661.96 853.066 1580.6 864.859 c 0,177,178
 1523.9 873.077 1523.9 873.077 1504.06 846.559 c 0,179,180
 1491.68 830.008 1491.68 830.008 1493.94 796.179 c 0,181,182
 1504.71 650.003 1504.71 650.003 1574.77 615.37 c 0,183,184
 1615.59 595.195 1615.59 595.195 1661.02 617.538 c 0,185,186
 1693.93 633.723 1693.93 633.723 1699.8 656.594 c 0,187,188
 1701.18 662.47 1701.18 662.47 1699.31 667.872 c 0,189,190
 1690.61 692.964 1690.61 692.964 1702.48 717.42 c 128,-1,191
 1714.34 741.876 1714.34 741.876 1739.44 750.575 c 0,192,193
 1746.14 752.899 1746.14 752.899 1754.66 753.894 c 1,173,174
EndSplineSet
EndChar

StartChar: nh
Encoding: 68 3363 69
Width: 2252
GlyphClass: 2
Flags: MW
LayerCount: 2
Fore
SplineSet
249.445 564.625 m 1,0,1
 343.234 645.934 343.234 645.934 435.812 613.836 c 128,-1,2
 528.39 581.738 528.39 581.738 577.779 476.187 c 0,3,4
 607.769 412.094 607.769 412.094 608.636 373.332 c 0,5,6
 613.753 144.95 613.753 144.95 513.616 52.5068 c 128,-1,7
 413.479 -39.9366 413.479 -39.9366 302.995 5.79245 c 128,-1,8
 192.511 51.5215 192.511 51.5215 136.475 190.006 c 128,-1,9
 80.4399 328.49 80.4399 328.49 105.001 490.236 c 0,10,11
 152.991 806.279 152.991 806.279 264.365 938.434 c 0,12,13
 322.043 1006.87 322.043 1006.87 395.028 1036.51 c 0,14,15
 532.768 1092.44 532.768 1092.44 677.978 978.041 c 0,16,17
 798.767 882.883 798.767 882.883 871.674 696.202 c 1,18,19
 942.012 933.249 942.012 933.249 1055.67 1008.02 c 0,20,21
 1118.46 1049.33 1118.46 1049.33 1180.27 1037.72 c 0,22,23
 1336.41 1008.4 1336.41 1008.4 1420.35 750.354 c 1,24,25
 1478.41 889.008 1478.41 889.008 1570.62 972.338 c 0,26,27
 1704.02 1092.89 1704.02 1092.89 1850.19 1061.28 c 128,-1,28
 1996.35 1029.66 1996.35 1029.66 2078.46 887.898 c 0,29,30
 2183.38 706.762 2183.38 706.762 2139.66 436.479 c 0,31,32
 2106.49 231.416 2106.49 231.416 1987.6 8.2041 c 0,33,34
 1975.12 -15.2344 1975.12 -15.2344 1949.12 -23.1631 c 128,-1,35
 1923.12 -31.0918 1923.12 -31.0918 1899.67 -18.6045 c 128,-1,36
 1876.23 -6.11621 1876.23 -6.11621 1868.3 19.8867 c 128,-1,37
 1860.38 45.8887 1860.38 45.8887 1872.87 69.3232 c 0,38,39
 1981.6 273.479 1981.6 273.479 2014.62 477.607 c 128,-1,40
 2047.64 681.736 2047.64 681.736 1965.97 822.741 c 0,41,42
 1912.67 914.753 1912.67 914.753 1827.19 933.244 c 128,-1,43
 1741.71 951.734 1741.71 951.734 1657.78 875.887 c 0,44,45
 1525.76 756.585 1525.76 756.585 1478.09 473.233 c 1,46,47
 1477.87 465.096 1477.87 465.096 1484.14 390.911 c 128,-1,48
 1490.41 316.727 1490.41 316.727 1493.37 181.153 c 128,-1,49
 1496.33 45.5797 1496.33 45.5797 1478.42 21.8486 c 0,50,51
 1445.7 -21.5118 1445.7 -21.5118 1400.01 -5.4044 c 128,-1,52
 1354.32 10.703 1354.32 10.703 1342.34 58.0501 c 128,-1,53
 1330.36 105.397 1330.36 105.397 1337.5 188.244 c 128,-1,54
 1344.63 271.09 1344.63 271.09 1345.08 323.772 c 128,-1,55
 1345.53 376.453 1345.53 376.453 1346.37 452.334 c 128,-1,56
 1347.21 528.215 1347.21 528.215 1317.8 636.787 c 0,57,58
 1267.95 820.806 1267.95 820.806 1203.85 882.484 c 0,59,60
 1162.25 922.525 1162.25 922.525 1130.09 901.371 c 0,61,62
 1015.5 825.985 1015.5 825.985 952.844 469.359 c 1,63,64
 951.076 381.544 951.076 381.544 948.029 221.11 c 128,-1,65
 944.982 60.6758 944.982 60.6758 943.023 42.1885 c 128,-1,66
 941.063 23.7012 941.063 23.7012 923.303 6.9707 c 128,-1,67
 905.541 -9.76074 905.541 -9.76074 880.354 -10.834 c 128,-1,68
 855.166 -11.9072 855.166 -11.9072 835.142 6.48145 c 128,-1,69
 815.117 24.8691 815.117 24.8691 813.987 51.3975 c 2,70,-1
 809.682 152.472 l 1,71,72
 804.515 332.111 804.515 332.111 799.368 465.017 c 1,73,74
 770.593 651.536 770.593 651.536 687.702 774.357 c 128,-1,75
 604.811 897.179 604.811 897.179 520.329 918.681 c 128,-1,76
 435.847 940.182 435.847 940.182 363.021 853.768 c 128,-1,77
 290.194 767.353 290.194 767.353 249.445 564.625 c 1,0,1
230.51 425.931 m 1,78,79
 226.021 315.286 226.021 315.286 259.311 233.016 c 128,-1,80
 292.601 150.745 292.601 150.745 347.278 128.066 c 0,81,82
 386.167 111.777 386.167 111.777 417.869 141.043 c 0,83,84
 481.292 199.592 481.292 199.592 478.772 364.971 c 1,85,86
 465.19 430.096 465.19 430.096 438.215 457.43 c 128,-1,87
 411.241 484.764 411.241 484.764 397.694 489.46 c 0,88,89
 361.951 501.853 361.951 501.853 309.921 441.225 c 0,90,91
 295.515 424.438 295.515 424.438 272.977 420.129 c 128,-1,92
 250.438 415.82 250.438 415.82 230.51 425.931 c 1,78,79
EndSplineSet
EndChar

StartChar: th1
Encoding: 69 3364 70
Width: 1635
GlyphClass: 2
Flags: MW
LayerCount: 2
Fore
SplineSet
346.363 16.8584 m 128,-1,1
 323.417 3.49707 323.417 3.49707 297.133 10.4355 c 128,-1,2
 270.85 17.374 270.85 17.374 257.485 40.3291 c 0,3,4
 40.6807 412.73 40.6807 412.73 99.0859 683.738 c 0,5,6
 139.595 871.705 139.595 871.705 296.728 959.51 c 0,7,8
 441.081 1040.17 441.081 1040.17 612.36 999.72 c 0,9,10
 719.106 974.508 719.106 974.508 802.753 908.642 c 1,11,12
 950.587 1024.77 950.587 1024.77 1116.83 1022.62 c 0,13,14
 1300.75 1020.24 1300.75 1020.24 1416.74 874.858 c 0,15,16
 1511.5 756.084 1511.5 756.084 1531.43 566.851 c 0,17,18
 1541.98 466.748 1541.98 466.748 1517.95 360.882 c 128,-1,19
 1493.9 254.904 1493.9 254.904 1435.43 160.854 c 0,20,21
 1375.03 63.7021 1375.03 63.7021 1288.7 8.06055 c 0,22,23
 1266.38 -6.32617 1266.38 -6.32617 1239.81 -0.583984 c 128,-1,24
 1213.24 5.1582 1213.24 5.1582 1198.85 27.4844 c 128,-1,25
 1184.46 49.8145 1184.46 49.8145 1190.2 76.3809 c 128,-1,26
 1195.95 102.947 1195.95 102.947 1218.27 117.333 c 0,27,28
 1280.05 157.147 1280.05 157.147 1325.03 229.494 c 0,29,30
 1371.96 304.983 1371.96 304.983 1391.17 389.658 c 0,31,32
 1410.44 474.533 1410.44 474.533 1402.15 553.242 c 0,33,34
 1386.2 704.696 1386.2 704.696 1315.12 793.783 c 0,35,36
 1237.52 891.048 1237.52 891.048 1115.15 892.632 c 0,37,38
 1001.18 894.106 1001.18 894.106 894.395 815.075 c 1,39,40
 899.542 808.329 899.542 808.329 903.963 802.226 c 0,41,42
 1013.59 650.798 1013.59 650.798 1022.15 430.929 c 0,43,44
 1027.46 286.141 1027.46 286.141 1002.92 187.731 c 128,-1,45
 978.386 89.3232 978.386 89.3232 913.226 33.2715 c 0,46,47
 867.075 -6.42676 867.075 -6.42676 808.351 -10.9658 c 128,-1,48
 749.627 -15.5039 749.627 -15.5039 696.144 13.9434 c 1,49,50
 599.531 65.0908 599.531 65.0908 549.198 183.916 c 0,51,52
 493.562 315.259 493.562 315.259 528.926 458.456 c 0,53,54
 582.217 674.254 582.217 674.254 707.222 817.764 c 1,55,56
 651.532 856.887 651.532 856.887 582.474 873.202 c 0,57,58
 460.392 902.044 460.392 902.044 360.144 846.027 c 0,59,60
 254.301 786.884 254.301 786.884 226.169 656.351 c 0,61,62
 178.378 434.604 178.378 434.604 369.833 105.735 c 0,63,64
 383.196 82.7773 383.196 82.7773 376.255 56.498 c 128,-1,0
 369.313 30.2197 369.313 30.2197 346.363 16.8584 c 128,-1,1
799.171 725.288 m 1,65,66
 699.458 606.772 699.458 606.772 655.134 427.288 c 0,67,68
 630.149 326.114 630.149 326.114 668.902 234.62 c 0,69,70
 701.203 158.359 701.203 158.359 756.969 128.836 c 1,71,72
 784.771 115.251 784.771 115.251 798.186 116.291 c 128,-1,73
 811.6 117.332 811.6 117.332 828.447 131.825 c 0,74,75
 859.819 158.811 859.819 158.811 878.244 232 c 128,-1,76
 896.67 305.19 896.67 305.19 892.241 426.026 c 0,77,78
 885.26 605.466 885.26 605.466 799.171 725.288 c 1,65,66
EndSplineSet
EndChar

StartChar: th2
Encoding: 70 3365 71
Width: 1557
GlyphClass: 2
Flags: MW
LayerCount: 2
Fore
SplineSet
782.532 114.159 m 1,0,1
 491.765 418.564 491.765 418.564 533.245 684.394 c 0,2,3
 559.976 855.699 559.976 855.699 705.861 950.332 c 128,-1,4
 851.748 1044.96 851.748 1044.96 1032.26 1030.12 c 128,-1,5
 1212.77 1015.27 1212.77 1015.27 1332.09 878.524 c 0,6,7
 1497.6 688.85 1497.6 688.85 1445.1 349.104 c 1,8,9
 1386.99 52.1357 1386.99 52.1357 1163.05 -1.44336 c 0,10,11
 1067.25 -24.3652 1067.25 -24.3652 972.123 -21.6855 c 128,-1,12
 876.999 -19.0049 876.999 -19.0049 734.603 -14.335 c 128,-1,13
 592.207 -9.66406 592.207 -9.66406 507.384 -12.3135 c 0,14,15
 255.163 -20.1895 255.163 -20.1895 156.248 171.681 c 0,16,17
 26.5156 423.318 26.5156 423.318 192.974 970.598 c 0,18,19
 200.702 996.01 200.702 996.01 224.686 1008.8 c 128,-1,20
 248.669 1021.6 248.669 1021.6 274.075 1013.87 c 0,21,22
 336.262 994.954 336.262 994.954 311.744 914.348 c 0,23,24
 166.25 435.99 166.25 435.99 271.796 231.251 c 0,25,26
 333.017 112.5 333.017 112.5 503.75 117.443 c 0,27,28
 591.466 120.384 591.466 120.384 782.532 114.159 c 1,0,1
909.938 110.138 m 1,29,30
 1119 103.995 1119 103.995 1186.19 144.674 c 128,-1,31
 1253.39 185.352 1253.39 185.352 1278.95 246.913 c 128,-1,32
 1304.52 308.474 1304.52 308.474 1317.02 371.528 c 1,33,34
 1359.38 649.523 1359.38 649.523 1234.14 793.051 c 0,35,36
 1149.51 890.035 1149.51 890.035 1017.4 900.9 c 128,-1,37
 885.29 911.767 885.29 911.767 782.377 845.01 c 128,-1,38
 679.464 778.253 679.464 778.253 661.691 664.353 c 0,39,40
 628.686 452.835 628.686 452.835 896.936 183.033 c 0,41,42
 928.59 151.195 928.59 151.195 909.938 110.138 c 1,29,30
EndSplineSet
EndChar

StartChar: th3
Encoding: 71 3366 72
Width: 1195
GlyphClass: 2
Flags: MW
LayerCount: 2
Fore
SplineSet
296.572 -0.0976562 m 128,-1,1
 272.98 -12.2842 272.98 -12.2842 247.081 -4.02832 c 128,-1,2
 221.182 4.22852 221.182 4.22852 208.992 27.8281 c 0,3,4
 -16.9082 465.229 -16.9082 465.229 100.121 742.304 c 0,5,6
 174.831 919.186 174.831 919.186 366.631 989.438 c 0,7,8
 529.412 1049.06 529.412 1049.06 697.1 1010.13 c 128,-1,9
 864.787 971.206 864.787 971.206 936.078 862.139 c 0,10,11
 1033.46 713.153 1033.46 713.153 901.463 533.818 c 0,12,13
 865.864 485.453 865.864 485.453 813.338 436.879 c 1,14,15
 968.653 410.533 968.653 410.533 1040.03 332.962 c 0,16,17
 1080.21 289.297 1080.21 289.297 1086.71 233.975 c 128,-1,18
 1093.21 178.651 1093.21 178.651 1064.04 126.859 c 0,19,20
 1012.73 36.0576 1012.73 36.0576 888.603 -2.4502 c 0,21,22
 707.294 -58.6959 707.294 -58.6959 512.729 39.5566 c 0,23,24
 489.027 51.5303 489.027 51.5303 480.535 77.3496 c 128,-1,25
 472.044 103.169 472.044 103.169 484.019 126.882 c 128,-1,26
 495.994 150.59 495.994 150.59 521.818 159.079 c 128,-1,27
 547.644 167.568 547.644 167.568 564.187 159.21 c 0,28,29
 718.933 81.0261 718.933 81.0261 850.086 121.713 c 0,30,31
 924.563 144.817 924.563 144.817 950.886 190.857 c 0,32,33
 961.39 209.377 961.39 209.377 960.291 219.1 c 128,-1,34
 959.192 228.822 959.192 228.822 937.251 252.668 c 128,-1,35
 915.31 276.514 915.31 276.514 839.105 297.785 c 128,-1,36
 762.901 319.058 762.901 319.058 642.598 320.798 c 0,37,38
 608.961 321.284 608.961 321.284 591.938 346.104 c 128,-1,39
 574.915 370.923 574.915 370.923 579.895 397.648 c 128,-1,40
 584.874 424.374 584.874 424.374 606.771 439.394 c 0,41,42
 798.093 570.627 798.093 570.627 838.348 684.665 c 0,43,44
 858.836 742.704 858.836 742.704 821.686 799.542 c 128,-1,45
 784.535 856.379 784.535 856.379 661.142 885.024 c 128,-1,46
 537.749 913.669 537.749 913.669 405.176 865.11 c 128,-1,47
 272.603 816.552 272.603 816.552 219.877 691.722 c 0,48,49
 126.551 470.77 126.551 470.77 324.498 87.4824 c 0,50,51
 336.685 63.8789 336.685 63.8789 328.426 37.9834 c 128,-1,0
 320.167 12.0889 320.167 12.0889 296.572 -0.0976562 c 128,-1,1
EndSplineSet
EndChar

StartChar: n1
Encoding: 73 3368 74
Width: 1581
GlyphClass: 2
Flags: MW
LayerCount: 2
Fore
SplineSet
845.198 28.29 m 1,0,1
 836.46 8.23242 836.46 8.23242 819.21 -6.62305 c 128,-1,2
 801.961 -21.4785 801.961 -21.4785 784.338 -22.543 c 0,3,4
 757.833 -24.1445 757.833 -24.1445 737.485 -6.11523 c 128,-1,5
 717.138 11.9141 717.138 11.9141 715.536 38.4189 c 0,6,7
 714.463 56.1807 714.463 56.1807 715.716 429.422 c 1,8,9
 704.35 641.214 704.35 641.214 628.312 760.059 c 0,10,11
 564.25 860.186 564.25 860.186 473.489 868.177 c 0,12,13
 393.212 875.245 393.212 875.245 325.98 810.093 c 0,14,15
 240.233 726.999 240.233 726.999 231.045 580.405 c 0,16,17
 216.596 349.893 216.596 349.893 403.407 82.4619 c 0,18,19
 418.617 60.6836 418.617 60.6836 413.865 33.9219 c 128,-1,20
 409.113 7.16016 409.113 7.16016 387.344 -8.04785 c 128,-1,21
 365.576 -23.2559 365.576 -23.2559 338.811 -18.5068 c 128,-1,22
 312.045 -13.7588 312.045 -13.7588 296.834 8.0166 c 0,23,24
 84.0078 312.688 84.0078 312.688 101.299 588.538 c 0,25,26
 113.636 785.344 113.636 785.344 235.514 903.452 c 0,27,28
 345.418 1009.96 345.418 1009.96 484.888 997.676 c 0,29,30
 639.312 984.08 639.312 984.08 737.817 830.12 c 0,31,32
 769.455 780.672 769.455 780.672 792.193 719.711 c 1,33,34
 846.841 851.347 846.841 851.347 934.979 924.168 c 0,35,36
 997.333 975.687 997.333 975.687 1069.14 990.23 c 128,-1,37
 1140.95 1004.78 1140.95 1004.78 1215.47 979.585 c 0,38,39
 1341.54 935.86 1341.54 935.86 1416.09 798.832 c 0,40,41
 1511.48 623.51 1511.48 623.51 1468.33 396.11 c 0,42,43
 1429.95 193.801 1429.95 193.801 1283.66 -1.08301 c 0,44,45
 1267.72 -22.3213 1267.72 -22.3213 1240.81 -26.1562 c 128,-1,46
 1213.9 -29.9902 1213.9 -29.9902 1192.65 -14.0459 c 128,-1,47
 1171.41 1.89941 1171.41 1.89941 1167.58 28.8125 c 128,-1,48
 1163.75 55.7266 1163.75 55.7266 1179.69 76.96 c 0,49,50
 1307.86 247.696 1307.86 247.696 1340.61 420.341 c 0,51,52
 1375.1 602.147 1375.1 602.147 1301.9 736.709 c 0,53,54
 1251.4 829.528 1251.4 829.528 1172.87 856.763 c 0,55,56
 1131.61 871.732 1131.61 871.732 1094.52 864.22 c 128,-1,57
 1057.43 856.707 1057.43 856.707 1017.78 823.949 c 0,58,59
 893.529 721.282 893.529 721.282 851.766 432.484 c 1,60,-1
 845.198 28.29 l 1,0,1
EndSplineSet
EndChar

StartChar: p1
Encoding: 75 3370 75
Width: 1913
GlyphClass: 2
Flags: MW
LayerCount: 2
Fore
SplineSet
354.985 15.9121 m 128,-1,1
 336.973 -3.60156 336.973 -3.60156 309.814 -4.69043 c 128,-1,2
 282.656 -5.77832 282.656 -5.77832 263.135 12.2373 c 0,3,4
 45.251 213.361 45.251 213.361 118.374 400.883 c 0,5,6
 166.247 523.649 166.247 523.649 316.408 589.32 c 128,-1,7
 466.568 654.991 466.568 654.991 621.942 637.015 c 128,-1,8
 777.315 619.038 777.315 619.038 828.949 503.649 c 0,9,10
 899.651 345.646 899.651 345.646 694.141 101.983 c 1,11,12
 738.869 102.455 738.869 102.455 803.978 106.051 c 128,-1,13
 869.086 109.646 869.086 109.646 896.801 108.98 c 0,14,15
 1644.85 90.8154 1644.85 90.8154 1677.1 195.615 c 0,16,17
 1697.1 260.643 1697.1 260.643 1656.29 388.412 c 0,18,19
 1655.53 390.771 1655.53 390.771 1654.96 393.177 c 0,20,21
 1577.18 720.844 1577.18 720.844 1610.83 964.882 c 0,22,23
 1614.46 991.188 1614.46 991.188 1636.13 1007.6 c 128,-1,24
 1657.79 1024.02 1657.79 1024.02 1684.1 1020.39 c 128,-1,25
 1710.42 1016.76 1710.42 1016.76 1726.83 995.093 c 128,-1,26
 1743.24 973.426 1743.24 973.426 1739.61 947.118 c 0,27,28
 1709.45 728.368 1709.45 728.368 1780.89 425.561 c 1,29,30
 1873.16 134.015 1873.16 134.015 1705.79 48.1084 c 0,31,32
 1639.95 14.3115 1639.95 14.3115 1541.1 -1.66699 c 0,33,34
 1481.04 -11.3752 1481.04 -11.3752 632.849 -25.2451 c 1,35,36
 583.854 -19.5977 583.854 -19.5977 555.363 10.8008 c 0,37,38
 496.05 74.0859 496.05 74.0859 572.952 160.614 c 0,39,40
 750.625 360.406 750.625 360.406 707.701 456.331 c 0,41,42
 688.876 498.4 688.876 498.4 587.69 510.111 c 128,-1,43
 486.505 521.821 486.505 521.821 377.136 473.99 c 128,-1,44
 267.766 426.159 267.766 426.159 239.491 353.652 c 0,45,46
 198.581 248.744 198.581 248.744 351.312 107.762 c 0,47,48
 370.829 89.7461 370.829 89.7461 371.913 62.584 c 128,-1,0
 372.998 35.4219 372.998 35.4219 354.985 15.9121 c 128,-1,1
EndSplineSet
EndChar

StartChar: p2
Encoding: 76 3371 76
Width: 2113
GlyphClass: 2
Flags: MW
LayerCount: 2
Fore
SplineSet
1213.8 112.017 m 1,0,1
 1066.84 261.405 1066.84 261.405 1059.81 518.627 c 0,2,3
 1054.9 698.074 1054.9 698.074 1156.29 831.996 c 128,-1,4
 1257.68 965.918 1257.68 965.918 1411.34 1011.19 c 128,-1,5
 1564.99 1056.47 1564.99 1056.47 1717.27 977.291 c 128,-1,6
 1869.55 898.111 1869.55 898.111 1951.75 683.84 c 0,7,8
 2073.67 366.02 2073.67 366.02 1955.64 172.895 c 128,-1,9
 1837.61 -20.2305 1837.61 -20.2305 1538.66 -20.2305 c 1,10,-1
 636.646 -13.998 l 2,11,12
 617.221 -13.8643 617.221 -13.8643 598.088 -1.11621 c 128,-1,13
 578.957 11.6309 578.957 11.6309 573.619 38.2881 c 128,-1,14
 568.279 64.9453 568.279 64.9453 576.568 77.3838 c 128,-1,15
 584.857 89.8232 584.857 89.8232 607.553 124.205 c 0,16,17
 674.135 225.066 674.135 225.066 696.959 317.545 c 0,18,19
 729.475 449.288 729.475 449.288 652.662 493.771 c 0,20,21
 624.473 510.097 624.473 510.097 572.389 514.396 c 0,22,23
 466.871 523.104 466.871 523.104 365.426 469.762 c 128,-1,24
 263.98 416.421 263.98 416.421 238.368 340.4 c 0,25,26
 201.373 230.592 201.373 230.592 345.018 98.915 c 0,27,28
 364.598 80.9668 364.598 80.9668 365.777 53.8086 c 128,-1,29
 366.955 26.6504 366.955 26.6504 349.012 7.07812 c 128,-1,30
 331.066 -12.498 331.066 -12.498 303.912 -13.6807 c 128,-1,31
 276.758 -14.8633 276.758 -14.8633 257.174 3.08496 c 0,32,33
 51.167 191.926 51.167 191.926 115.173 381.906 c 0,34,35
 157.404 507.258 157.404 507.258 298.635 581.518 c 128,-1,36
 439.865 655.778 439.865 655.778 595.18 642.956 c 128,-1,37
 750.494 630.134 750.494 630.134 811.574 506.303 c 0,38,39
 885.23 356.978 885.23 356.978 752.424 115.205 c 1,40,-1
 1213.8 112.017 l 1,0,1
1357.17 111.026 m 1,41,-1
 1539.11 109.77 l 1,42,43
 1694.48 109.77 1694.48 109.77 1792.64 182.918 c 0,44,45
 1957.54 305.791 1957.54 305.791 1830.38 637.275 c 0,46,47
 1739.07 875.307 1739.07 875.307 1550.12 895.006 c 0,48,49
 1444.86 905.98 1444.86 905.98 1345.74 837.057 c 128,-1,50
 1246.62 768.133 1246.62 768.133 1211.04 659.381 c 128,-1,51
 1175.47 550.63 1175.47 550.63 1200.86 416.986 c 128,-1,52
 1226.25 283.342 1226.25 283.342 1308.28 201.367 c 0,53,54
 1318.32 191.336 1318.32 191.336 1333.13 181.318 c 128,-1,55
 1347.95 171.301 1347.95 171.301 1355.2 151.248 c 128,-1,56
 1362.45 131.195 1362.45 131.195 1357.17 111.026 c 1,41,-1
EndSplineSet
EndChar

StartChar: p3
Encoding: 77 3372 77
Width: 1939
GlyphClass: 2
Flags: MW
LayerCount: 2
Fore
SplineSet
230.163 477.146 m 5,0,1
 352.512 612.451 352.512 612.451 517.676 541.185 c 4,2,3
 602.418 504.62 602.418 504.62 638.057 408.021 c 4,4,5
 655.981 359.438 655.981 359.438 651.043 308.004 c 4,6,7
 632.201 111.778 632.201 111.778 525.551 29.5479 c 132,-1,8
 418.9 -52.6836 418.9 -52.6836 302.061 3.85352 c 132,-1,9
 185.221 60.3916 185.221 60.3916 132.859 225.583 c 4,10,11
 99.7109 330.163 99.7109 330.163 100.003 463.704 c 4,12,13
 100.535 707.941 100.535 707.941 238.808 861.938 c 4,14,15
 348.056 983.608 348.056 983.608 497.852 996.945 c 132,-1,16
 647.648 1010.28 647.648 1010.28 757.014 887.605 c 4,17,18
 794.872 845.136 794.872 845.136 818.339 787.799 c 5,19,20
 894.171 887.509 894.171 887.509 1033.71 955.739 c 4,21,22
 1207.28 1040.61 1207.28 1040.61 1375.44 943.449 c 4,23,24
 1451.84 899.308 1451.84 899.308 1496.42 789.819 c 132,-1,25
 1540.99 680.33 1540.99 680.33 1541.88 528.714 c 4,26,27
 1543.32 283.682 1543.32 283.682 1306.08 107.294 c 5,28,29
 1527.02 108.069 1527.02 108.069 1563.77 104.766 c 4,30,31
 1634.68 98.3906 1634.68 98.3906 1664.6 158.596 c 4,32,33
 1731.46 293.109 1731.46 293.109 1698.11 682.991 c 4,34,35
 1688.01 801.145 1688.01 801.145 1697.37 930.797 c 4,36,37
 1699.28 957.282 1699.28 957.282 1719.84 975.07 c 132,-1,38
 1740.39 992.857 1740.39 992.857 1766.89 990.943 c 132,-1,39
 1793.38 989.028 1793.38 989.028 1811.16 968.472 c 132,-1,40
 1828.95 947.915 1828.95 947.915 1827.03 921.428 c 4,41,42
 1818.41 802.005 1818.41 802.005 1828.32 686.105 c 4,43,44
 1864.09 267.879 1864.09 267.879 1781.01 100.732 c 4,45,46
 1747.82 33.9404 1747.82 33.9404 1685.77 1.68652 c 132,-1,47
 1623.72 -30.5674 1623.72 -30.5674 1546.16 -24.166 c 5,48,49
 1111.02 -18.4561 1111.02 -18.4561 1049.98 -33.043 c 4,50,51
 1027.42 -38.4346 1027.42 -38.4346 1005.9 -27.7256 c 132,-1,52
 984.377 -17.0156 984.377 -17.0156 974.522 5.98535 c 132,-1,53
 964.668 28.9863 964.668 28.9863 974.768 54.2266 c 132,-1,54
 984.866 79.4668 984.866 79.4668 1009.27 89.9238 c 4,55,56
 1413.43 263.084 1413.43 263.084 1411.88 527.958 c 4,57,58
 1411.14 654.516 1411.14 654.516 1379.69 731.772 c 132,-1,59
 1348.24 809.029 1348.24 809.029 1304.34 834.39 c 4,60,61
 1158.28 918.774 1158.28 918.774 971.945 761.875 c 4,62,63
 860.571 668.096 860.571 668.096 860.133 556.444 c 132,-1,64
 859.693 444.792 859.693 444.792 860.438 330.341 c 132,-1,65
 861.18 215.89 861.18 215.89 860.209 91.5557 c 5,66,-1
 858.87 47.377 l 6,67,68
 858.066 20.8359 858.066 20.8359 838.27 2.2041 c 132,-1,69
 818.473 -16.4287 818.473 -16.4287 792.119 -15.6299 c 132,-1,70
 765.765 -14.832 765.765 -14.832 747.746 4.93164 c 132,-1,71
 729.729 24.6963 729.729 24.6963 728.431 61.5361 c 132,-1,72
 727.132 98.375 727.132 98.375 727.496 273.331 c 132,-1,73
 727.86 448.286 727.86 448.286 726.723 495.204 c 132,-1,74
 725.586 542.122 725.586 542.122 725.716 546.966 c 4,75,76
 730.442 722.047 730.442 722.047 662.268 798.523 c 132,-1,77
 594.092 875 594.092 875 502.335 866.83 c 132,-1,78
 410.578 858.66 410.578 858.66 335.537 775.084 c 4,79,80
 234.229 662.253 234.229 662.253 230.163 477.146 c 5,0,1
235.236 367.734 m 5,81,82
 241.962 311.623 241.962 311.623 256.783 264.863 c 4,83,84
 292.331 152.718 292.331 152.718 353.055 123.015 c 4,85,86
 401.626 98.1533 401.626 98.1533 454.905 139.232 c 132,-1,87
 508.184 180.312 508.184 180.312 521.638 320.43 c 4,88,89
 523.738 342.303 523.738 342.303 516.094 363.021 c 4,90,91
 499.566 407.817 499.566 407.817 459.851 426.232 c 4,92,93
 384.95 460.961 384.95 460.961 334.302 399.627 c 132,-1,94
 283.652 338.292 283.652 338.292 235.236 367.734 c 5,81,82
EndSplineSet
EndChar

StartChar: p4
Encoding: 78 3373 78
Width: 1168
GlyphClass: 2
Flags: MW
LayerCount: 2
Fore
SplineSet
399.965 17.2588 m 128,-1,1
 383.32 -3.43359 383.32 -3.43359 356.299 -6.36426 c 128,-1,2
 329.277 -9.2959 329.277 -9.2959 308.576 7.35254 c 0,3,4
 91.8906 181.652 91.8906 181.652 100.315 455.238 c 0,5,6
 104.598 594.315 104.598 594.315 196.455 744.422 c 0,7,8
 270.507 865.432 270.507 865.432 413.866 936.877 c 128,-1,9
 557.226 1008.32 557.226 1008.32 728.123 961.177 c 1,10,11
 886.335 913.086 886.335 913.086 952.883 805.573 c 0,12,13
 1034.15 674.274 1034.15 674.274 947.605 576.06 c 0,14,15
 905.63 528.427 905.63 528.427 814.599 500.642 c 128,-1,16
 723.566 472.856 723.566 472.856 687.38 433.81 c 1,17,18
 732.393 409.932 732.393 409.932 839.072 408.307 c 0,19,20
 842.868 408.249 842.868 408.249 846.632 407.75 c 0,21,22
 1013.53 385.605 1013.53 385.605 1057.33 274.771 c 1,23,24
 1092.81 175.071 1092.81 175.071 1019.73 85.5088 c 128,-1,25
 946.651 -4.05273 946.651 -4.05273 821.772 -17.4023 c 128,-1,26
 696.895 -30.751 696.895 -30.751 574.363 34.2871 c 0,27,28
 550.907 46.7373 550.907 46.7373 542.939 72.7236 c 128,-1,29
 534.973 98.71 534.973 98.71 547.425 122.175 c 128,-1,30
 559.879 145.637 559.879 145.637 585.869 153.601 c 128,-1,31
 611.859 161.564 611.859 161.564 635.312 149.113 c 0,32,33
 722.672 102.745 722.672 102.745 801.188 111.138 c 128,-1,34
 879.706 119.531 879.706 119.531 914.429 162.087 c 128,-1,35
 949.15 204.642 949.15 204.642 936.442 226.969 c 1,36,37
 920.791 265.801 920.791 265.801 833.103 278.391 c 1,38,39
 669.111 281.709 669.111 281.709 601.42 335.146 c 0,40,41
 554.948 371.832 554.948 371.832 552.644 423.364 c 0,42,43
 546.758 554.975 546.758 554.975 793.108 629.977 c 0,44,45
 863.575 651.431 863.575 651.431 860.657 686.942 c 0,46,47
 855.971 743.96 855.971 743.96 786.373 791.701 c 0,48,49
 745.092 820.019 745.092 820.019 690.025 835.951 c 0,50,51
 571.576 870.225 571.576 870.225 466.741 817.979 c 128,-1,52
 361.906 765.732 361.906 765.732 307.339 676.563 c 0,53,54
 233.474 555.858 233.474 555.858 230.254 451.238 c 0,55,56
 223.825 242.364 223.825 242.364 390.059 108.647 c 0,57,58
 410.756 91.999 410.756 91.999 413.683 64.9736 c 128,-1,0
 416.61 37.9473 416.61 37.9473 399.965 17.2588 c 128,-1,1
EndSplineSet
EndChar

StartChar: m1
Encoding: 79 3374 79
Width: 1349
GlyphClass: 2
Flags: MW
LayerCount: 2
Fore
SplineSet
397.437 244.442 m 1,0,1
 456.545 261.762 456.545 261.762 524.821 272.414 c 0,2,3
 729.319 304.317 729.319 304.317 830.236 369.532 c 0,4,5
 971.605 460.884 971.605 460.884 1010.87 657.24 c 0,6,7
 1026.1 733.382 1026.1 733.382 976.097 787.871 c 0,8,9
 904.457 865.932 904.457 865.932 737.413 888.525 c 128,-1,10
 570.369 911.119 570.369 911.119 424.853 859.176 c 128,-1,11
 279.336 807.233 279.336 807.233 242.446 711.374 c 0,12,13
 185.163 562.523 185.163 562.523 395.535 329.342 c 0,14,15
 411.21 311.967 411.21 311.967 411.704 287.511 c 128,-1,16
 412.199 263.055 412.199 263.055 397.437 244.442 c 1,0,1
332.259 222.56 m 1,17,18
 312.578 227.223 312.578 227.223 299.01 242.262 c 0,19,20
 35.168 534.718 35.168 534.718 121.12 758.065 c 0,21,22
 179.44 909.608 179.44 909.608 367.946 976.896 c 128,-1,23
 556.452 1044.19 556.452 1044.19 762.455 1016.32 c 128,-1,24
 968.457 988.459 968.457 988.459 1063.75 884.625 c 128,-1,25
 1159.04 780.791 1159.04 780.791 1141.84 652.549 c 1,26,27
 1169.07 647.47 1169.07 647.47 1184.15 624.316 c 128,-1,28
 1199.22 601.162 1199.22 601.162 1193.6 574.521 c 0,29,30
 1163.86 433.75 1163.86 433.75 1201.02 320.734 c 0,31,32
 1219.86 263.449 1219.86 263.449 1241.12 194.863 c 0,33,34
 1278.42 74.499 1278.42 74.499 1179.19 18.0293 c 0,35,36
 1120.67 -15.2725 1120.67 -15.2725 1019.06 -16.0693 c 0,37,38
 993.286 -16.2715 993.286 -16.2715 777.982 -19.3398 c 128,-1,39
 562.678 -22.4092 562.678 -22.4092 460.571 -21.3662 c 128,-1,40
 358.465 -20.3242 358.465 -20.3242 327.191 -20.2402 c 128,-1,41
 295.918 -20.1553 295.918 -20.1553 261.358 -17.2871 c 0,42,43
 183.266 -10.8057 183.266 -10.8057 154.198 45.1963 c 0,44,45
 113.87 122.893 113.87 122.893 221.375 176.483 c 0,46,47
 224.086 177.835 224.086 177.835 244.279 188.277 c 128,-1,48
 264.473 198.72 264.473 198.72 332.259 222.56 c 1,17,18
1052.32 410.446 m 1,49,50
 995.874 321.785 995.874 321.785 886.271 250.96 c 128,-1,51
 776.668 180.135 776.668 180.135 570.459 147.961 c 0,52,53
 460.93 130.873 460.93 130.873 433.823 120.74 c 128,-1,54
 406.717 110.607 406.717 110.607 402.357 109.154 c 1,55,56
 571.899 107.735 571.899 107.735 779.175 110.689 c 128,-1,57
 986.451 113.645 986.451 113.645 1037.24 114.076 c 1,58,59
 1097.81 120.962 1097.81 120.962 1119.36 133.576 c 1,60,61
 1117.73 157.845 1117.73 157.845 1088.02 248.229 c 128,-1,62
 1058.3 338.615 1058.3 338.615 1052.32 410.446 c 1,49,50
EndSplineSet
EndChar

StartChar: y1
Encoding: 80 3375 80
Width: 1598
GlyphClass: 2
Flags: MW
LayerCount: 2
Fore
SplineSet
778.91 734.647 m 1,0,1
 788.435 706.487 788.435 706.487 796 671.776 c 0,2,3
 803.646 636.695 803.646 636.695 806.684 617.829 c 0,4,5
 809.609 599.65 809.609 599.65 815.707 551.083 c 0,6,7
 821.654 503.726 821.654 503.726 822.544 497.062 c 0,8,9
 841.847 352.736 841.847 352.736 884.996 267.401 c 1,10,11
 919.308 307.072 919.308 307.072 948.883 357.398 c 0,12,13
 1021.54 481.03 1021.54 481.03 1024.35 601.688 c 0,14,15
 1025.83 665.241 1025.83 665.241 1005.99 725.164 c 0,16,17
 986.757 783.228 986.757 783.228 948.491 826.752 c 0,18,19
 910.79 869.633 910.79 869.633 869.135 881.34 c 0,20,21
 848.332 887.188 848.332 887.188 829.289 884.395 c 0,22,23
 810.861 881.69 810.861 881.69 797.621 871.559 c 0,24,25
 780.994 858.834 780.994 858.834 776.454 838.395 c 128,-1,26
 771.913 817.956 771.913 817.956 781.59 799.387 c 0,27,28
 798.772 766.415 798.772 766.415 778.91 734.647 c 1,0,1
664.039 908.506 m 1,29,30
 683.035 947.567 683.035 947.567 718.613 974.795 c 0,31,32
 758.632 1005.42 758.632 1005.42 810.424 1013.02 c 0,33,34
 856.858 1019.83 856.858 1019.83 904.309 1006.49 c 0,35,36
 983.01 984.371 983.01 984.371 1046.12 912.59 c 0,37,38
 1101.86 849.191 1101.86 849.191 1129.4 766.031 c 0,39,40
 1156.32 684.715 1156.32 684.715 1154.31 598.658 c 0,41,42
 1150.71 444.261 1150.71 444.261 1060.96 291.533 c 0,43,44
 1018.62 219.486 1018.62 219.486 966.682 163.86 c 1,45,46
 968.301 162.562 968.301 162.562 969.806 161.392 c 0,47,48
 1016.1 125.381 1016.1 125.381 1068.29 117.438 c 0,49,50
 1115.6 110.237 1115.6 110.237 1164.27 126.748 c 0,51,52
 1211.44 142.753 1211.44 142.753 1251.81 178.65 c 0,53,54
 1327.34 245.806 1327.34 245.806 1361.97 365.986 c 0,55,56
 1403.65 510.663 1403.65 510.663 1368.05 656.969 c 128,-1,57
 1332.45 803.269 1332.45 803.269 1228.95 912.622 c 0,58,59
 1210.69 931.904 1210.69 931.904 1211.44 959.079 c 128,-1,60
 1212.18 986.254 1212.18 986.254 1231.47 1004.51 c 128,-1,61
 1250.77 1022.77 1250.77 1022.77 1277.94 1022.02 c 128,-1,62
 1305.11 1021.27 1305.11 1021.27 1323.36 1001.98 c 0,63,64
 1450.59 867.555 1450.59 867.555 1494.36 687.707 c 128,-1,65
 1538.13 507.853 1538.13 507.853 1486.89 330 c 0,66,67
 1441.85 173.657 1441.85 173.657 1338.19 81.4961 c 0,68,69
 1278.14 28.1055 1278.14 28.1055 1206.04 3.64258 c 0,70,71
 1127.37 -23.0508 1127.37 -23.0508 1048.73 -11.082 c 0,72,73
 963.033 1.96094 963.033 1.96094 889.989 58.7783 c 0,74,75
 878.28 67.8867 878.28 67.8867 866.568 78.5059 c 1,76,77
 824.884 50.793 824.884 50.793 779.383 31.6152 c 0,78,79
 696.937 -3.13379 696.937 -3.13379 605.855 -6.3877 c 128,-1,80
 514.774 -9.64258 514.774 -9.64258 430.059 19.1338 c 128,-1,81
 345.344 47.9092 345.344 47.9092 275.087 105.967 c 128,-1,82
 204.832 164.024 204.832 164.024 160.608 241.801 c 128,-1,83
 116.386 319.577 116.386 319.577 102.421 409.642 c 128,-1,84
 88.4551 499.706 88.4551 499.706 107.048 587.221 c 128,-1,85
 125.64 674.734 125.64 674.734 175.014 751.345 c 0,86,87
 221.843 824.006 221.843 824.006 289.628 875.943 c 1,88,89
 343.912 940.391 343.912 940.391 425.992 961.688 c 0,90,91
 512.602 984.161 512.602 984.161 595.192 949.732 c 0,92,93
 632.005 934.387 632.005 934.387 664.039 908.506 c 1,29,30
784.588 180.309 m 1,94,95
 783.094 182.834 783.094 182.834 781.878 184.93 c 0,96,97
 718.508 294.278 718.508 294.278 693.691 479.829 c 0,98,99
 692.73 487.018 692.73 487.018 686.72 534.893 c 0,100,101
 680.904 581.215 680.904 581.215 678.336 597.166 c 0,102,103
 675.866 612.505 675.866 612.505 668.981 644.095 c 0,104,105
 662.554 673.586 662.554 673.586 654.836 695.694 c 0,106,107
 642.361 731.43 642.361 731.43 624.752 758.921 c 0,108,109
 618.085 769.329 618.085 769.329 610.679 778.56 c 0,110,111
 581.893 814.434 581.893 814.434 545.173 829.74 c 0,112,113
 502.935 847.348 502.935 847.348 458.642 835.854 c 128,-1,114
 414.348 824.361 414.348 824.361 385.998 788.439 c 0,115,116
 380.578 781.572 380.578 781.572 373.537 776.383 c 0,117,118
 320.727 737.463 320.727 737.463 284.285 680.919 c 128,-1,119
 247.841 624.371 247.841 624.371 234.21 560.207 c 128,-1,120
 220.577 496.038 220.577 496.038 230.886 429.561 c 128,-1,121
 241.193 363.082 241.193 363.082 273.618 306.057 c 128,-1,122
 306.043 249.03 306.043 249.03 357.899 206.178 c 128,-1,123
 409.756 163.324 409.756 163.324 471.87 142.226 c 128,-1,124
 533.986 121.127 533.986 121.127 601.214 123.529 c 128,-1,125
 668.44 125.932 668.44 125.932 728.893 151.41 c 0,126,127
 757.647 163.529 757.647 163.529 784.588 180.309 c 1,94,95
EndSplineSet
EndChar

StartChar: r3
Encoding: 81 3376 81
Width: 1234
GlyphClass: 2
Flags: MW
LayerCount: 2
Fore
SplineSet
568.104 443.256 m 1,0,1
 573.63 688.224 573.63 688.224 807.051 866.227 c 1,2,3
 737.181 892.862 737.181 892.862 617.511 888.125 c 128,-1,4
 497.842 883.389 497.842 883.389 375.847 794.646 c 128,-1,5
 253.852 705.904 253.852 705.904 233.731 568.382 c 0,6,7
 203.275 360.216 203.275 360.216 425.812 112.88 c 0,8,9
 469.283 64.5554 469.283 64.5554 420.966 21.0799 c 128,-1,10
 372.649 -22.3957 372.649 -22.3957 329.171 25.9287 c 0,11,12
 65.8096 318.64 65.8096 318.64 105.101 587.2 c 0,13,14
 133.141 778.855 133.141 778.855 293.21 895.291 c 128,-1,15
 453.279 1011.73 453.279 1011.73 650.286 1019.52 c 128,-1,16
 847.292 1027.32 847.292 1027.32 983.392 909.645 c 0,17,18
 1173.92 743.294 1173.92 743.294 1124.64 414.161 c 1,19,20
 1092.33 112.706 1092.33 112.706 936.57 23.5566 c 0,21,22
 824.668 -40.49 824.668 -40.49 719.015 40.6416 c 0,23,24
 574.17 151.864 574.17 151.864 568.104 443.256 c 1,0,1
921.971 788.347 m 1,25,26
 703.653 645.26 703.653 645.26 698.137 443.104 c 1,27,28
 703.364 216.57 703.364 216.57 798.191 143.748 c 0,29,30
 858.324 97.5766 858.324 97.5766 918.029 179.678 c 128,-1,31
 977.734 261.78 977.734 261.78 995.447 428.679 c 0,32,33
 995.662 430.73 995.662 430.73 997.197 440.823 c 0,34,35
 1031.85 668.602 1031.85 668.602 921.971 788.347 c 1,25,26
EndSplineSet
EndChar

StartChar: rh
Encoding: 82 3377 82
Width: 1142
GlyphClass: 2
Flags: MW
LayerCount: 2
Fore
SplineSet
312.34 5.24316 m 128,-1,1
 288.412 -6.26953 288.412 -6.26953 262.757 2.71777 c 128,-1,2
 237.102 11.7051 237.102 11.7051 225.588 35.6416 c 0,3,4
 36.1367 429.498 36.1367 429.498 132.476 704.198 c 0,5,6
 197.058 888.348 197.058 888.348 369.788 971.663 c 0,7,8
 527.253 1047.62 527.253 1047.62 699.532 1008.11 c 0,9,10
 874.38 968.014 874.38 968.014 968.017 828.582 c 0,11,12
 1096.07 637.902 1096.07 637.902 1004.48 356.317 c 0,13,14
 950.211 189.486 950.211 189.486 818.96 4.41309 c 0,15,16
 803.598 -17.248 803.598 -17.248 776.803 -21.8096 c 128,-1,17
 750.009 -26.3721 750.009 -26.3721 728.338 -11.0078 c 128,-1,18
 706.672 4.35742 706.672 4.35742 702.113 31.1562 c 128,-1,19
 697.555 57.9561 697.555 57.9561 712.917 79.6143 c 0,20,21
 832.731 248.56 832.731 248.56 880.853 396.525 c 0,22,23
 952.87 617.974 952.87 617.974 860.099 756.101 c 0,24,25
 795.373 852.469 795.373 852.469 670.49 881.396 c 0,26,27
 542.271 910.527 542.271 910.527 426.269 854.573 c 0,28,29
 301.948 794.608 301.948 794.608 255.15 661.175 c 0,30,31
 176.637 437.312 176.637 437.312 342.738 91.9951 c 0,32,33
 354.251 68.0547 354.251 68.0547 345.261 42.4043 c 128,-1,0
 336.271 16.7549 336.271 16.7549 312.34 5.24316 c 128,-1,1
EndSplineSet
EndChar

StartChar: l3
Encoding: 83 3378 83
Width: 1648
GlyphClass: 2
Flags: MW
LayerCount: 2
Fore
SplineSet
240.232 432.579 m 128,-1,1
 239.199 459.114 239.199 459.114 257.655 479.07 c 128,-1,2
 276.111 499.025 276.111 499.025 302.653 500.06 c 0,3,4
 524.449 508.696 524.449 508.696 664.068 544.407 c 128,-1,5
 803.688 580.118 803.688 580.118 849.471 629.674 c 0,6,7
 870.767 652.724 870.767 652.724 871.076 669.846 c 128,-1,8
 871.387 686.967 871.387 686.967 844.893 724.647 c 0,9,10
 788.215 805.256 788.215 805.256 642.776 851.884 c 128,-1,11
 497.336 898.513 497.336 898.513 374.494 867.995 c 0,12,13
 325.501 855.824 325.501 855.824 291.304 820.499 c 128,-1,14
 257.107 785.174 257.107 785.174 247.612 728.617 c 1,15,16
 204.819 376.381 204.819 376.381 261.379 244.27 c 0,17,18
 293.838 168.458 293.838 168.458 349.198 143.215 c 128,-1,19
 404.559 117.973 404.559 117.973 478.384 114.6 c 128,-1,20
 552.209 111.227 552.209 111.227 747.459 100.644 c 128,-1,21
 942.71 90.0605 942.71 90.0605 1060.48 99.5752 c 0,22,23
 1261.82 115.84 1261.82 115.84 1341.22 206.25 c 0,24,25
 1452.32 332.747 1452.32 332.747 1400.67 703.223 c 1,26,27
 1384.6 807.214 1384.6 807.214 1354.63 931.699 c 0,28,29
 1348.41 957.518 1348.41 957.518 1362.59 980.706 c 128,-1,30
 1376.77 1003.89 1376.77 1003.89 1402.6 1010.11 c 128,-1,31
 1428.42 1016.33 1428.42 1016.33 1451.61 1002.14 c 128,-1,32
 1474.79 987.958 1474.79 987.958 1481.01 962.14 c 0,33,34
 1631.02 339.217 1631.02 339.217 1438.9 120.468 c 0,35,36
 1324.76 -9.49902 1324.76 -9.49902 1070.95 -30.0029 c 0,37,38
 944.43 -40.2246 944.43 -40.2246 745.091 -29.4194 c 128,-1,39
 545.753 -18.6143 545.753 -18.6143 491.14 -16.1187 c 0,40,41
 287.446 -6.81059 287.446 -6.81059 205.825 88.2426 c 128,-1,42
 124.203 183.296 124.203 183.296 106.183 339.393 c 128,-1,43
 88.1625 495.489 88.1625 495.489 118.877 746.881 c 1,44,45
 134.764 845.699 134.764 845.699 196.385 909.354 c 0,46,47
 302.652 1019.13 302.652 1019.13 491.348 1009.47 c 128,-1,48
 680.043 999.822 680.043 999.822 827.748 909.138 c 0,49,50
 999.842 803.468 999.842 803.468 997.459 667.088 c 0,51,52
 996.234 596.959 996.234 596.959 944.955 541.454 c 0,53,54
 868.63 458.841 868.63 458.841 712.315 419.333 c 128,-1,55
 556 379.826 556 379.826 307.713 370.157 c 0,56,57
 281.171 369.124 281.171 369.124 261.218 387.584 c 128,-1,0
 241.266 406.043 241.266 406.043 240.232 432.579 c 128,-1,1
EndSplineSet
EndChar

StartChar: lh
Encoding: 84 3379 84
Width: 1401
GlyphClass: 2
Flags: MW
LayerCount: 2
Fore
SplineSet
277.767 491.814 m 128,-1,1
 276.043 518.314 276.043 518.314 293.975 538.743 c 128,-1,2
 311.906 559.173 311.906 559.173 338.411 560.896 c 0,3,4
 410.521 565.584 410.521 565.584 477.944 540.878 c 0,5,6
 591.484 499.273 591.484 499.273 663.797 398.004 c 0,7,8
 736.295 296.476 736.295 296.476 702.504 172.836 c 0,9,10
 684.763 107.921 684.763 107.921 631.583 64.3008 c 0,11,12
 542.511 -8.75879 542.511 -8.75879 410.461 18.1602 c 128,-1,13
 278.411 45.0791 278.411 45.0791 190.396 172.516 c 128,-1,14
 102.382 299.951 102.382 299.951 107.534 495.137 c 1,15,16
 107.076 799.592 107.076 799.592 366.668 942.894 c 0,17,18
 513.503 1023.95 513.503 1023.95 694.903 1013.88 c 128,-1,19
 876.142 1003.82 876.142 1003.82 1014.31 902.754 c 0,20,21
 1087.04 849.553 1087.04 849.553 1136.14 775.86 c 0,22,23
 1138.25 772.686 1138.25 772.686 1139.98 769.282 c 0,24,25
 1192.61 666.072 1192.61 666.072 1167.14 572.869 c 128,-1,26
 1141.67 479.666 1141.67 479.666 1044.03 419.56 c 1,27,28
 1199.05 367.345 1199.05 367.345 1266.73 273.946 c 0,29,30
 1307.32 216.984 1307.32 216.984 1308.49 152.905 c 128,-1,31
 1309.65 88.8252 1309.65 88.8252 1272.19 31.0029 c 0,32,33
 1205.48 -73.3867 1205.48 -73.3867 1055.14 -120.277 c 0,34,35
 981.355 -143.288 981.355 -143.288 837.297 -148.396 c 128,-1,36
 693.238 -153.503 693.238 -153.503 582.567 -165.414 c 0,37,38
 316.093 -194.648 316.093 -194.648 235.451 -286.511 c 0,39,40
 225.146 -298.249 225.146 -298.249 227.948 -301.483 c 128,-1,41
 230.75 -304.717 230.75 -304.717 234.476 -311.573 c 128,-1,42
 238.2 -318.431 238.2 -318.431 269.54 -333.58 c 128,-1,43
 300.88 -348.73 300.88 -348.73 386.891 -360.652 c 128,-1,44
 472.902 -372.574 472.902 -372.574 603.635 -352.051 c 0,45,46
 822.956 -317.62 822.956 -317.62 1187.2 -323.724 c 0,47,48
 1567.06 -330.089 1567.06 -330.089 1742.38 -314.739 c 0,49,50
 1768.84 -312.423 1768.84 -312.423 1789.66 -329.893 c 128,-1,51
 1810.49 -347.363 1810.49 -347.363 1812.8 -373.823 c 128,-1,52
 1815.12 -400.284 1815.12 -400.284 1797.65 -421.105 c 128,-1,53
 1780.18 -441.928 1780.18 -441.928 1753.72 -444.244 c 0,54,55
 1571.66 -460.184 1571.66 -460.184 1310.28 -455.804 c 0,56,57
 832.015 -447.79 832.015 -447.79 653.049 -475.886 c 128,-1,58
 474.083 -503.98 474.083 -503.98 342.237 -485.705 c 0,59,60
 168.012 -461.556 168.012 -461.556 116.697 -367.104 c 1,61,62
 78.3809 -299.522 78.3809 -299.522 122.299 -225.396 c 0,63,64
 211.183 -75.3779 211.183 -75.3779 568.517 -36.1758 c 0,65,66
 683.968 -23.75 683.968 -23.75 821.64 -18.8691 c 128,-1,67
 959.311 -13.9883 959.311 -13.9883 1016.43 3.82715 c 0,68,69
 1121.48 36.5918 1121.48 36.5918 1162.64 101.008 c 0,70,71
 1181.11 130.101 1181.11 130.101 1180.74 150.614 c 128,-1,72
 1180.37 171.129 1180.37 171.129 1154.42 207.162 c 128,-1,73
 1128.47 243.195 1128.47 243.195 1044.08 280.012 c 0,74,75
 945.754 322.905 945.754 322.905 813.416 338.549 c 0,76,77
 767.774 344.083 767.774 344.083 757.907 389.277 c 0,78,79
 748.569 432.048 748.569 432.048 789.306 466.032 c 0,80,81
 803.074 477.52 803.074 477.52 813.213 474.624 c 128,-1,82
 823.352 471.729 823.352 471.729 824.916 472.135 c 0,83,84
 1013.77 521.133 1013.77 521.133 1043.57 595.923 c 0,85,86
 1060.84 639.288 1060.84 639.288 1025.8 706.976 c 1,87,88
 913.458 871.551 913.458 871.551 687.696 884.082 c 0,89,90
 464.135 896.49 464.135 896.49 328.576 751.003 c 0,91,92
 237.005 652.726 237.005 652.726 237.539 493.535 c 1,93,94
 233.233 339.249 233.233 339.249 294.438 250.629 c 128,-1,95
 355.644 162.009 355.644 162.009 431.764 146.491 c 128,-1,96
 507.883 130.974 507.883 130.974 549.137 164.812 c 0,97,98
 572.188 183.721 572.188 183.721 579.166 209.224 c 0,99,100
 602.468 294.391 602.468 294.391 506.557 377.694 c 0,101,102
 438.147 437.109 438.147 437.109 346.848 431.17 c 0,103,104
 320.343 429.446 320.343 429.446 299.916 447.381 c 128,-1,0
 279.49 465.314 279.49 465.314 277.767 491.814 c 128,-1,1
EndSplineSet
EndChar

StartChar: zh
Encoding: 85 3380 85
Width: 1260
GlyphClass: 2
Flags: MW
AnchorPoint: "dotreph" 600 1242 basechar 0
AnchorPoint: "chandrakkala" 1118 18 basechar 0
LayerCount: 2
Fore
SplineSet
924.899 430.489 m 1,0,1
 955.314 402.265 955.314 402.265 976.827 364.985 c 0,2,3
 1027.67 276.888 1027.67 276.888 1004.82 183.522 c 0,4,5
 977.785 73.0303 977.785 73.0303 838.635 30.3867 c 0,6,7
 733.087 -1.95996 733.087 -1.95996 610.427 24.8164 c 0,8,9
 501.658 48.5635 501.658 48.5635 448.757 102.495 c 0,10,11
 390.751 161.631 390.751 161.631 382.942 229.183 c 0,12,13
 379.892 255.562 379.892 255.562 396.776 276.865 c 128,-1,14
 413.662 298.167 413.662 298.167 440.048 301.218 c 128,-1,15
 466.434 304.268 466.434 304.268 487.732 287.38 c 128,-1,16
 509.032 270.492 509.032 270.492 512.985 244.562 c 0,17,18
 523.213 177.482 523.213 177.482 636.677 152.15 c 1,19,20
 790.521 126.549 790.521 126.549 862.875 187.933 c 1,21,22
 905.5 225.945 905.5 225.945 862.476 304.196 c 1,23,24
 838.744 343.013 838.744 343.013 765.207 384.553 c 1,25,26
 622.816 357.508 622.816 357.508 476.85 371.303 c 1,27,28
 213.047 400.453 213.047 400.453 114.687 566.386 c 1,29,30
 77.9785 630.539 77.9785 630.539 84.5137 699.595 c 0,31,32
 91.5635 774.09 91.5635 774.09 112.676 826.072 c 128,-1,33
 133.788 878.056 133.788 878.056 150.608 914.044 c 128,-1,34
 167.428 950.032 167.428 950.032 174.731 966.23 c 128,-1,35
 182.035 982.429 182.035 982.429 207.46 992.049 c 128,-1,36
 232.884 1001.67 232.884 1001.67 257.09 990.751 c 128,-1,37
 281.298 979.835 281.298 979.835 290.921 954.415 c 128,-1,38
 300.543 928.995 300.543 928.995 293.057 912.392 c 128,-1,39
 285.57 895.789 285.57 895.789 269.271 860.91 c 0,40,41
 223.143 762.203 223.143 762.203 219.75 737.574 c 0,42,43
 211.297 676.214 211.297 676.214 215.272 660.895 c 128,-1,44
 219.248 645.576 219.248 645.576 227.031 631.807 c 0,45,46
 302.228 505.817 302.228 505.817 543.387 497.187 c 1,47,48
 464.252 547.887 464.252 547.887 425.297 604.712 c 0,49,50
 422.59 608.662 422.59 608.662 420.49 612.966 c 0,51,52
 356.795 743.521 356.795 743.521 423.086 862.113 c 0,53,54
 474.012 953.217 474.012 953.217 608.695 1011.17 c 0,55,56
 717.266 1057.89 717.266 1057.89 855.674 1059.77 c 0,57,58
 1003.12 1061.76 1003.12 1061.76 1085.15 1011.4 c 128,-1,59
 1167.18 961.03 1167.18 961.03 1192.48 883.901 c 0,60,61
 1240.21 738.38 1240.21 738.38 1137.86 588.192 c 0,62,63
 1084.25 509.516 1084.25 509.516 1028.75 479.531 c 128,-1,64
 973.242 449.547 973.242 449.547 924.899 430.489 c 1,0,1
783.045 521.473 m 1,65,66
 873.874 544.016 873.874 544.016 954.721 587.305 c 1,67,68
 999.197 615.557 999.197 615.557 1031.12 662.41 c 0,69,70
 1096.73 758.688 1096.73 758.688 1069.89 840.521 c 0,71,72
 1058.8 874.342 1058.8 874.342 1027.51 894.262 c 1,73,74
 923.51 950.247 923.51 950.247 754 919.5 c 0,75,76
 656.273 901.773 656.273 901.773 581.478 847.443 c 0,77,78
 523.691 805.467 523.691 805.467 519.66 739.812 c 0,79,80
 517.941 711.814 517.941 711.814 535.211 674.411 c 1,81,82
 576.182 618.563 576.182 618.563 681.314 569.253 c 0,83,84
 697.779 561.53 697.779 561.53 722.918 549.703 c 128,-1,85
 748.056 537.875 748.056 537.875 783.045 521.473 c 1,65,66
EndSplineSet
EndChar

StartChar: v1
Encoding: 86 3381 86
Width: 1692
GlyphClass: 2
Flags: MW
LayerCount: 2
Fore
SplineSet
450.499 12.4121 m 128,-1,1
 431.462 -6.09961 431.462 -6.09961 404.28 -5.71777 c 128,-1,2
 377.099 -5.33691 377.099 -5.33691 358.584 13.709 c 0,3,4
 118.222 260.952 118.222 260.952 101.197 498.553 c 0,5,6
 91.6141 632.316 91.6141 632.316 159.666 742.707 c 128,-1,7
 227.717 853.098 227.717 853.098 346.822 919.782 c 0,8,9
 524.944 1019.51 524.944 1019.51 784.064 978.057 c 0,10,11
 970.23 948.274 970.23 948.274 1065.57 841.324 c 128,-1,12
 1160.9 734.373 1160.9 734.373 1160.02 590.39 c 128,-1,13
 1159.15 446.407 1159.15 446.407 1092.62 322.625 c 128,-1,14
 1026.1 198.843 1026.1 198.843 937.557 116.285 c 1,15,16
 1182.52 111.344 1182.52 111.344 1292.48 112.546 c 1,17,18
 1384.73 126.458 1384.73 126.458 1423.06 181.786 c 128,-1,19
 1461.39 237.113 1461.39 237.113 1462.13 303.606 c 0,20,21
 1463.64 438.014 1463.64 438.014 1449.77 512.51 c 128,-1,22
 1435.89 587.007 1435.89 587.007 1427.81 643.126 c 128,-1,23
 1419.74 699.245 1419.74 699.245 1406.4 776.892 c 128,-1,24
 1393.06 854.539 1393.06 854.539 1409.88 942.645 c 0,25,26
 1414.86 968.73 1414.86 968.73 1437.34 984.008 c 128,-1,27
 1459.82 999.286 1459.82 999.286 1485.91 994.308 c 128,-1,28
 1512 989.329 1512 989.329 1527.28 966.845 c 128,-1,29
 1542.55 944.359 1542.55 944.359 1533.87 898.838 c 128,-1,30
 1525.18 853.316 1525.18 853.316 1536.67 786.429 c 128,-1,31
 1548.16 719.542 1548.16 719.542 1556.17 663.86 c 128,-1,32
 1564.18 608.178 1564.18 608.178 1578.98 528.737 c 128,-1,33
 1593.78 449.295 1593.78 449.295 1592.7 353.76 c 0,34,35
 1588.98 22.0787 1588.98 22.0787 1306.32 -16.7939 c 0,36,37
 1247.94 -24.83 1247.94 -24.83 734.196 -8.34375 c 0,38,39
 694.131 -7.05753 694.131 -7.05753 680.136 23.1797 c 0,40,41
 649.992 88.3064 649.992 88.3064 723.62 122.388 c 0,42,43
 816.961 165.595 816.961 165.595 898.549 263.438 c 128,-1,44
 980.137 361.281 980.137 361.281 1012.64 470.503 c 128,-1,45
 1045.14 579.725 1045.14 579.725 1018.29 669.227 c 128,-1,46
 991.45 758.73 991.45 758.73 886.43 814.032 c 128,-1,47
 781.411 869.335 781.411 869.335 576.435 856.247 c 0,48,49
 444.056 847.797 444.056 847.797 334.081 752.85 c 0,50,51
 268.299 696.054 268.299 696.054 240.713 605.204 c 128,-1,52
 213.126 514.353 213.126 514.353 257.748 386.191 c 128,-1,53
 302.371 258.03 302.371 258.03 451.796 104.326 c 0,54,55
 470.311 85.2783 470.311 85.2783 469.925 58.1006 c 128,-1,0
 469.54 30.9229 469.54 30.9229 450.499 12.4121 c 128,-1,1
EndSplineSet
EndChar

StartChar: z1
Encoding: 87 3382 87
Width: 1719
GlyphClass: 2
Flags: MW
LayerCount: 2
Fore
SplineSet
1392.77 789.274 m 1,0,1
 1318.05 861.018 1318.05 861.018 1196.59 880.271 c 128,-1,2
 1075.12 899.525 1075.12 899.525 964.322 821.019 c 0,3,4
 813.476 714.136 813.476 714.136 773.808 462.27 c 1,5,6
 718.452 16.2656 718.452 16.2656 447.27 -12.6338 c 0,7,8
 441.578 -13.2402 441.578 -13.2402 435.868 -12.8428 c 0,9,10
 340.646 -6.21484 340.646 -6.21484 268.021 40.6387 c 0,11,12
 142.335 121.726 142.335 121.726 100.836 313.341 c 0,13,14
 68.8945 460.828 68.8945 460.828 105.723 658.978 c 0,15,16
 138.735 836.595 138.735 836.595 219.87 964.013 c 0,17,18
 234.137 986.418 234.137 986.418 260.675 992.306 c 128,-1,19
 287.214 998.193 287.214 998.193 309.61 983.929 c 128,-1,20
 332.011 969.665 332.011 969.665 337.901 943.131 c 128,-1,21
 343.792 916.597 343.792 916.597 320.944 880.713 c 0,22,23
 226.233 731.965 226.233 731.965 216.308 481.668 c 0,24,25
 210.441 333.753 210.441 333.753 269.885 223.352 c 0,26,27
 321.255 127.943 321.255 127.943 439.034 117.309 c 1,28,29
 603.135 140.219 603.135 140.219 645.046 480.292 c 1,30,31
 693.194 788.235 693.194 788.235 889.166 927.092 c 0,32,33
 1043.17 1036.21 1043.17 1036.21 1221.21 1007.99 c 0,34,35
 1410.14 978.045 1410.14 978.045 1525.78 835.906 c 128,-1,36
 1641.43 693.768 1641.43 693.768 1617.93 494.46 c 0,37,38
 1607.7 407.625 1607.7 407.625 1564.23 306.243 c 128,-1,39
 1520.76 204.861 1520.76 204.861 1454.41 125.283 c 0,40,41
 1317.79 -38.5762 1317.79 -38.5762 1164.03 -12.6885 c 0,42,43
 1003.22 14.3848 1003.22 14.3848 953.83 222.675 c 0,44,45
 930.752 320.007 930.752 320.007 939.014 421.755 c 0,46,47
 955.011 618.768 955.011 618.768 1077.73 746.693 c 0,48,49
 1144.04 815.814 1144.04 815.814 1227.37 827.934 c 128,-1,50
 1310.71 840.053 1310.71 840.053 1392.77 789.274 c 1,0,1
1447.1 722.22 m 1,51,52
 1448.48 697.646 1448.48 697.646 1433.36 677.535 c 128,-1,53
 1418.25 657.424 1418.25 657.424 1391.33 653.61 c 128,-1,54
 1364.41 649.797 1364.41 649.797 1327.24 677.74 c 128,-1,55
 1290.08 705.685 1290.08 705.685 1248.51 699.639 c 128,-1,56
 1206.94 693.594 1206.94 693.594 1167.77 652.769 c 128,-1,57
 1128.61 611.943 1128.61 611.943 1101.84 551.487 c 0,58,59
 1041.68 415.64 1041.68 415.64 1080.32 252.665 c 0,60,61
 1109.82 128.267 1109.82 128.267 1185.61 115.507 c 0,62,63
 1265.75 102.015 1265.75 102.015 1356.14 210.422 c 0,64,65
 1408.86 273.65 1408.86 273.65 1444.82 357.551 c 0,66,67
 1537.7 574.22 1537.7 574.22 1447.1 722.22 c 1,51,52
EndSplineSet
EndChar

StartChar: sh
Encoding: 88 3383 88
Width: 1872
GlyphClass: 2
Flags: MWO
LayerCount: 2
Fore
SplineSet
656.196 120.999 m 5,0,-1
 1149.17 112.424 l 5,1,-1
 1181.68 412.089 l 5,2,3
 968.93 360.004 968.93 360.004 882.087 456.005 c 132,-1,4
 795.245 552.005 795.245 552.005 845.995 710.368 c 4,5,6
 884.719 831.201 884.719 831.201 961.5 903.09 c 4,7,8
 1089.41 1022.85 1089.41 1022.85 1190.38 963.096 c 5,9,10
 1260.22 924.757 1260.22 924.757 1287.74 835.357 c 132,-1,11
 1315.27 745.957 1315.27 745.957 1318.07 604.463 c 5,12,13
 1423.02 685.341 1423.02 685.341 1563.82 924.735 c 4,14,15
 1595.7 978.929 1595.7 978.929 1631.12 985.438 c 4,16,17
 1734.18 1004.38 1734.18 1004.38 1756.95 875.246 c 4,18,19
 1760.78 853.534 1760.78 853.534 1763 841.301 c 4,20,21
 1796.45 656.981 1796.45 656.981 1760.24 372.127 c 5,22,23
 1714.99 -9.75362 1714.99 -9.75362 1348.74 -10.5685 c 5,24,25
 1191.28 -20.7341 1191.28 -20.7341 897.844 -11.9217 c 132,-1,26
 604.412 -3.10939 604.412 -3.10939 526.034 -16.011 c 4,27,28
 494.489 -21.2034 494.489 -21.2034 473.1 -1.23542 c 132,-1,29
 451.71 18.7325 451.71 18.7325 450.777 45.9025 c 132,-1,30
 449.843 73.0725 449.843 73.0725 467.963 92.4822 c 4,31,32
 569.234 200.962 569.234 200.962 586.04 277.609 c 4,33,34
 593.165 312.753 593.165 312.753 586.154 328.823 c 132,-1,35
 579.144 344.892 579.144 344.892 551.832 359.661 c 4,36,37
 492.621 391.677 492.621 391.677 399.968 372.941 c 132,-1,38
 307.314 354.204 307.314 354.204 266.33 299.304 c 132,-1,39
 225.346 244.403 225.346 244.403 239.377 191.561 c 132,-1,40
 253.408 138.719 253.408 138.719 274.749 103.842 c 132,-1,41
 296.09 68.9655 296.09 68.9655 289.727 42.5406 c 132,-1,42
 283.363 16.1158 283.363 16.1158 260.712 2.25454 c 132,-1,43
 238.064 -11.6076 238.064 -11.6076 211.635 -5.24726 c 132,-1,44
 185.206 1.11305 185.206 1.11305 171.341 23.7693 c 4,45,46
 48.3926 224.682 48.3926 224.682 159.511 373.528 c 4,47,48
 232.859 471.779 232.859 471.779 372.94 500.107 c 132,-1,49
 513.022 528.434 513.022 528.434 613.665 474.014 c 4,50,51
 676.076 440.266 676.076 440.266 702.265 380.204 c 4,52,53
 750.858 268.76 750.858 268.76 656.196 120.999 c 5,0,-1
1314.83 454.734 m 5,54,55
 1306.33 305.823 1306.33 305.823 1277.38 115.68 c 5,56,57
 1309.85 117.163 1309.85 117.163 1327.18 118.298 c 132,-1,58
 1344.52 119.433 1344.52 119.433 1384.06 119.39 c 132,-1,59
 1423.61 119.347 1423.61 119.347 1474.69 137.244 c 4,60,61
 1607.28 183.696 1607.28 183.696 1633.95 401.356 c 132,-1,62
 1660.63 619.017 1660.63 619.017 1638.06 796.562 c 5,63,64
 1457.96 509.719 1457.96 509.719 1314.83 454.734 c 5,54,55
1188.19 548.581 m 5,65,66
 1190.82 732.818 1190.82 732.818 1153.97 813.156 c 4,67,68
 1140.71 842.06 1140.71 842.06 1123.63 851.436 c 132,-1,69
 1106.55 860.812 1106.55 860.812 1052.38 810.094 c 132,-1,70
 998.214 759.377 998.214 759.377 970.059 671.521 c 4,71,72
 931.759 552.011 931.759 552.011 1007.25 529.583 c 4,73,74
 1065.89 512.162 1065.89 512.162 1188.19 548.581 c 5,65,66
EndSplineSet
EndChar

StartChar: s1
Encoding: 89 3384 89
Width: 2166
GlyphClass: 2
Flags: MW
LayerCount: 2
Fore
SplineSet
313.029 -24.2666 m 128,-1,1
 288.819 -35.1729 288.819 -35.1729 263.398 -25.542 c 128,-1,2
 237.978 -15.9102 237.978 -15.9102 227.071 8.30859 c 0,3,4
 17.9854 472.581 17.9854 472.581 86.748 748.169 c 0,5,6
 131.976 929.435 131.976 929.435 281.056 988.116 c 0,7,8
 414.049 1040.46 414.049 1040.46 550.158 975.854 c 128,-1,9
 686.268 911.244 686.268 911.244 759.672 786.44 c 1,10,11
 787.438 845.435 787.438 845.435 830.109 893.622 c 0,12,13
 933.692 1010.59 933.692 1010.59 1080.19 1019.57 c 128,-1,14
 1226.69 1028.55 1226.69 1028.55 1327.23 922.499 c 0,15,16
 1487.3 753.652 1487.3 753.652 1405.28 426.294 c 0,17,18
 1349.15 202.258 1349.15 202.258 1432.58 129.8 c 0,19,20
 1489.44 80.4277 1489.44 80.4277 1607.14 110.188 c 128,-1,21
 1724.85 139.947 1724.85 139.947 1833.04 246.379 c 128,-1,22
 1941.23 352.811 1941.23 352.811 1948.79 485.623 c 0,23,24
 1961.1 702.651 1961.1 702.651 1667.91 886.635 c 0,25,26
 1645.41 900.75 1645.41 900.75 1639.35 927.247 c 128,-1,27
 1633.29 953.743 1633.29 953.743 1647.4 976.243 c 128,-1,28
 1661.53 998.741 1661.53 998.741 1688.02 1004.8 c 128,-1,29
 1714.52 1010.86 1714.52 1010.86 1747.67 990.061 c 128,-1,30
 1780.81 969.259 1780.81 969.259 1819.16 940.369 c 0,31,32
 2093.09 734.014 2093.09 734.014 2078.58 478.252 c 0,33,34
 2068.2 295.352 2068.2 295.352 1916.5 146.116 c 0,35,36
 1790.89 22.5527 1790.89 22.5527 1623.18 -19.8486 c 128,-1,37
 1455.47 -62.25 1455.47 -62.25 1347.35 31.6416 c 0,38,39
 1203.65 156.434 1203.65 156.434 1279.17 457.882 c 0,40,41
 1343.85 716.012 1343.85 716.012 1232.89 833.056 c 0,42,43
 1174.09 895.079 1174.09 895.079 1084.72 889.604 c 128,-1,44
 995.347 884.127 995.347 884.127 924.6 804.236 c 0,45,46
 828.741 695.986 828.741 695.986 840.871 497.625 c 0,47,48
 841.127 493.432 841.127 493.432 840.169 479.369 c 128,-1,49
 839.21 465.307 839.21 465.307 837.751 441.79 c 1,50,51
 857.987 242.606 857.987 242.606 849.655 105.238 c 0,52,53
 849.462 92.7021 849.462 92.7021 849.377 80.6709 c 128,-1,54
 849.291 68.6406 849.291 68.6406 848.729 58.5088 c 0,55,56
 847.476 35.9072 847.476 35.9072 831.494 14.7617 c 128,-1,57
 815.513 -6.38281 815.513 -6.38281 787.692 -12.7031 c 128,-1,58
 759.872 -19.0234 759.872 -19.0234 733.673 -2.93945 c 1,59,60
 695.648 26.1719 695.648 26.1719 692.661 67.8984 c 128,-1,61
 689.674 109.626 689.674 109.626 690.726 133.879 c 128,-1,62
 691.777 158.132 691.777 158.132 695.246 200.75 c 128,-1,63
 698.716 243.367 698.716 243.367 700.266 295.484 c 128,-1,64
 701.815 347.602 701.815 347.602 707.341 439.067 c 1,65,66
 704.948 461.883 704.948 461.883 703.31 475.871 c 128,-1,67
 701.671 489.858 701.671 489.858 702.564 516.054 c 0,68,69
 705.695 607.938 705.695 607.938 655.296 706.952 c 128,-1,70
 604.896 805.967 604.896 805.967 507.058 852.411 c 128,-1,71
 409.218 898.855 409.218 898.855 328.67 867.149 c 0,72,73
 241.898 832.994 241.898 832.994 212.881 716.696 c 0,74,75
 155.031 484.845 155.031 484.845 345.604 61.6914 c 0,76,77
 356.511 37.4688 356.511 37.4688 346.877 12.0537 c 128,-1,0
 337.243 -13.3623 337.243 -13.3623 313.029 -24.2666 c 128,-1,1
EndSplineSet
EndChar

StartChar: h1
Encoding: 90 3385 90
Width: 2220
GlyphClass: 2
Flags: MW
LayerCount: 2
Fore
SplineSet
331.495 39.2578 m 128,-1,1
 313.216 19.9941 313.216 19.9941 286.045 19.2803 c 128,-1,2
 258.874 18.5664 258.874 18.5664 239.604 36.8496 c 0,3,4
 46.2549 220.323 46.2549 220.323 120.691 377.762 c 0,5,6
 170.188 482.45 170.188 482.45 311.094 522.67 c 128,-1,7
 452 562.89 452 562.89 573.352 524.856 c 0,8,9
 637.946 504.611 637.946 504.611 681.021 462.445 c 128,-1,10
 724.096 420.28 724.096 420.28 734.669 359.721 c 0,11,12
 752.084 259.979 752.084 259.979 672.737 139.179 c 1,13,14
 854.125 148.102 854.125 148.102 1151.02 136.437 c 1,15,16
 1017.84 266.251 1017.84 266.251 1023.67 433.935 c 128,-1,17
 1029.49 601.619 1029.49 601.619 1159.2 741.927 c 128,-1,18
 1288.91 882.235 1288.91 882.235 1478.84 936.959 c 0,19,20
 1576.17 965 1576.17 965 1676.34 965 c 0,21,22
 1679.29 965 1679.29 965 1682.22 964.733 c 0,23,24
 2036.29 932.552 2036.29 932.552 2106.64 669.278 c 0,25,26
 2143.05 533.012 2143.05 533.012 2086.86 362.174 c 128,-1,27
 2030.66 191.337 2030.66 191.337 1920.25 44.8721 c 0,28,29
 1904.27 23.666 1904.27 23.666 1877.34 19.8867 c 128,-1,30
 1850.44 16.1074 1850.44 16.1074 1829.21 32.0957 c 128,-1,31
 1808 48.084 1808 48.084 1804.24 75.0049 c 128,-1,32
 1800.46 101.926 1800.46 101.926 1816.45 123.128 c 0,33,34
 1966.28 321.899 1966.28 321.899 1988.75 522.729 c 0,35,36
 2002.34 644.196 2002.34 644.196 1932.71 730.606 c 128,-1,37
 1863.08 817.015 1863.08 817.015 1673.42 834.993 c 1,38,39
 1507.96 833.973 1507.96 833.973 1374.49 751.84 c 128,-1,40
 1241.02 669.707 1241.02 669.707 1184.41 552.946 c 128,-1,41
 1127.79 436.185 1127.79 436.185 1173.97 323.681 c 0,42,43
 1195.86 270.392 1195.86 270.392 1256.36 215.938 c 128,-1,44
 1316.87 161.484 1316.87 161.484 1414.02 119.716 c 0,45,46
 1455.37 101.941 1455.37 101.941 1453.71 66.1992 c 128,-1,47
 1452.04 30.458 1452.04 30.458 1431.95 12.1475 c 128,-1,48
 1411.86 -6.16211 1411.86 -6.16211 1385.33 -4.92969 c 2,49,-1
 1361.08 -3.80273 l 1,50,51
 749.014 30.2764 749.014 30.2764 534.66 -4.17676 c 0,52,53
 502.689 -9.31543 502.689 -9.31543 481.432 11.0918 c 128,-1,54
 460.175 31.499 460.175 31.499 459.62 58.6797 c 128,-1,55
 459.066 85.8594 459.066 85.8594 477.455 105.015 c 0,56,57
 663.874 299.201 663.874 299.201 587.54 373.988 c 0,58,59
 572.254 388.964 572.254 388.964 534.471 400.806 c 0,60,61
 450.263 427.199 450.263 427.199 356.397 400.409 c 128,-1,62
 262.531 373.62 262.531 373.62 238.217 322.195 c 0,63,64
 204.008 249.841 204.008 249.841 329.087 131.15 c 0,65,66
 348.355 112.867 348.355 112.867 349.065 85.6924 c 128,-1,0
 349.775 58.5176 349.775 58.5176 331.495 39.2578 c 128,-1,1
EndSplineSet
EndChar

StartChar: avagraha
Encoding: 92 3389 91
Width: 1195
GlyphClass: 2
Flags: MW
LayerCount: 2
Fore
SplineSet
1250 1093 m 1,0,-1
 1130 1042 l 1,1,2
 1116 1154 1116 1154 1005 1154 c 0,3,4
 886 1154 886 1154 865 1014 c 1,5,-1
 773 467 l 1,6,-1
 933 476 l 1,7,-1
 933 346 l 1,8,-1
 752 336 l 1,9,-1
 641 -384 l 5,10,11
 604 -635 604 -635 377 -635 c 4,12,13
 179 -635 179 -635 124 -445 c 5,14,-1
 245 -394 l 5,15,16
 257 -506 257 -506 366 -506 c 4,17,18
 488 -506 488 -506 511 -367 c 5,19,-1
 619 329 l 1,20,-1
 489 322 l 1,21,-1
 489 451 l 1,22,-1
 641 458 l 1,23,-1
 734 1032 l 1,24,25
 773 1282 773 1282 997 1282 c 0,26,27
 1196 1282 1196 1282 1250 1093 c 1,0,-1
EndSplineSet
Validated: 1
EndChar

StartChar: a2
Encoding: 93 3390 92
Width: 717
GlyphClass: 2
Flags: MW
LayerCount: 2
Fore
SplineSet
152.283 675.59 m 132,-1,1
 126.246 680.817 126.246 680.817 111.183 703.442 c 132,-1,2
 96.1191 726.068 96.1191 726.068 101.347 752.111 c 4,3,4
 117.388 832.023 117.388 832.023 156.222 887.162 c 4,5,6
 230.115 992.081 230.115 992.081 357.606 965.6 c 4,7,8
 460.13 944.305 460.13 944.305 531.07 844.752 c 132,-1,9
 602.01 745.199 602.01 745.199 613.549 570.029 c 132,-1,10
 625.088 394.859 625.088 394.859 602.687 275.898 c 5,11,12
 573.438 49.0303 573.438 49.0303 389.006 15.4004 c 4,13,14
 299.252 -0.96582 299.252 -0.96582 205.195 44.9375 c 132,-1,15
 111.139 90.8408 111.139 90.8408 109.706 140.94 c 4,16,17
 108.929 168.109 108.929 168.109 127.167 187.423 c 132,-1,18
 145.406 206.732 145.406 206.732 172.579 207.506 c 132,-1,19
 199.752 208.278 199.752 208.278 226.513 183 c 132,-1,20
 253.273 157.721 253.273 157.721 296.675 148.171 c 4,21,22
 451.609 114.08 451.609 114.08 473.951 294.087 c 4,23,24
 474.22 296.247 474.22 296.247 484.312 348.606 c 132,-1,25
 494.404 400.967 494.404 400.967 484.561 550.393 c 132,-1,26
 474.717 699.819 474.717 699.819 429.269 763.6 c 132,-1,27
 383.819 827.381 383.819 827.381 335.535 837.41 c 132,-1,28
 287.251 847.438 287.251 847.438 263.352 813.505 c 132,-1,29
 239.452 779.571 239.452 779.571 231.515 740.027 c 132,-1,30
 223.577 700.483 223.577 700.483 200.947 685.423 c 132,-1,0
 178.318 670.362 178.318 670.362 152.283 675.59 c 132,-1,1
EndSplineSet
EndChar

StartChar: i1
Encoding: 94 3391 93
Width: 461
GlyphClass: 2
Flags: MW
LayerCount: 2
Fore
SplineSet
-356.637 1112.21 m 128,-1,1
 -380.23 1124.39 -380.23 1124.39 -388.489 1150.29 c 128,-1,2
 -396.747 1176.18 -396.747 1176.18 -384.559 1199.79 c 0,3,4
 -331.577 1302.35 -331.577 1302.35 -252.569 1362.47 c 0,5,6
 -104.843 1474.89 -104.843 1474.89 74.9521 1414.54 c 0,7,8
 239.679 1359.24 239.679 1359.24 320.239 1192.14 c 0,9,10
 360.27 1109.11 360.27 1109.11 361.514 1028.26 c 0,11,12
 363.252 915.357 363.252 915.357 316.434 639.354 c 0,13,14
 228.104 118.623 228.104 118.623 228.104 -222.609 c 0,15,16
 228.104 -249.164 228.104 -249.164 208.884 -268.387 c 128,-1,17
 189.665 -287.609 189.665 -287.609 163.104 -287.609 c 128,-1,18
 136.541 -287.609 136.541 -287.609 117.322 -268.387 c 128,-1,19
 98.1035 -249.164 98.1035 -249.164 98.1035 -222.609 c 0,20,21
 98.1035 129.57 98.1035 129.57 166.347 531.883 c 0,22,23
 232.459 921.633 232.459 921.633 231.578 1000.08 c 0,24,25
 229.957 1144.58 229.957 1144.58 131.293 1234.11 c 0,26,27
 40.417 1316.57 40.417 1316.57 -73.5322 1303.34 c 0,28,29
 -123.183 1297.57 -123.183 1297.57 -176.355 1257.11 c 128,-1,30
 -229.528 1216.65 -229.528 1216.65 -269.056 1140.13 c 0,31,32
 -281.246 1116.53 -281.246 1116.53 -307.146 1108.27 c 128,-1,0
 -333.045 1100.02 -333.045 1100.02 -356.637 1112.21 c 128,-1,1
EndSplineSet
EndChar

StartChar: i2
Encoding: 95 3392 94
Width: 441
GlyphClass: 2
Flags: MW
LayerCount: 2
Fore
SplineSet
2.85407 1305.4 m 1,0,1
 14.5092 1299.22 14.5092 1299.22 22.369 1290.27 c 0,2,3
 46.9191 1262.32 46.9191 1262.32 55.0123 1227.98 c 128,-1,4
 63.1055 1193.64 63.1055 1193.64 49.6967 1155.21 c 1,5,6
 34.569 1118.1 34.569 1118.1 1.80054 1096.06 c 128,-1,7
 -30.9679 1074.03 -30.9679 1074.03 -71.6262 1067.59 c 0,8,9
 -184.277 1049.74 -184.277 1049.74 -286.582 1141.41 c 0,10,11
 -304.065 1157.08 -304.065 1157.08 -316.559 1173.63 c 0,12,13
 -354.119 1223.38 -354.119 1223.38 -347.713 1275.49 c 0,14,15
 -340.692 1332.61 -340.692 1332.61 -282.947 1375 c 0,16,17
 -199.595 1436.2 -199.595 1436.2 -58.1383 1438.31 c 0,18,19
 -35.6163 1438.64 -35.6163 1438.64 -14.0694 1437.37 c 0,20,21
 130.885 1428.81 130.885 1428.81 228.906 1348.21 c 0,22,23
 315.994 1276.6 315.994 1276.6 338.507 1164.82 c 128,-1,24
 361.021 1053.03 361.021 1053.03 321.604 925.32 c 1,25,26
 271.015 748.935 271.015 748.935 225.579 421.583 c 128,-1,27
 180.123 94.0913 180.123 94.0913 180.123 -256.76 c 0,28,29
 180.123 -283.322 180.123 -283.322 160.901 -302.541 c 128,-1,30
 141.679 -321.76 141.679 -321.76 115.123 -321.76 c 128,-1,31
 88.5672 -321.76 88.5672 -321.76 69.3451 -302.541 c 128,-1,32
 50.123 -283.322 50.123 -283.322 50.123 -256.76 c 0,33,34
 50.123 103.089 50.123 103.089 96.8131 439.456 c 128,-1,35
 143.52 775.944 143.52 775.944 196.642 961.16 c 1,36,37
 225.915 1072.96 225.915 1072.96 212.68 1138.55 c 128,-1,38
 199.446 1204.13 199.446 1204.13 146.345 1247.79 c 0,39,40
 89.0886 1294.87 89.0886 1294.87 2.85407 1305.4 c 1,0,1
-48.9346 1308.38 m 1,41,42
 -52.7531 1308.37 -52.7531 1308.37 -56.2099 1308.32 c 0,43,44
 -156.135 1306.83 -156.135 1306.83 -206.01 1270.21 c 0,45,46
 -213.703 1264.57 -213.703 1264.57 -217.726 1259.65 c 1,47,48
 -216.047 1256.25 -216.047 1256.25 -212.811 1251.96 c 0,49,50
 -207.916 1245.48 -207.916 1245.48 -199.829 1238.23 c 0,51,52
 -143.562 1187.81 -143.562 1187.81 -91.9762 1195.99 c 0,53,54
 -79.2885 1198 -79.2885 1198 -73.0855 1201.78 c 1,55,56
 -74.1328 1203.15 -74.1328 1203.15 -75.3124 1204.49 c 0,57,58
 -92.8362 1224.44 -92.8362 1224.44 -91.078 1251.57 c 128,-1,59
 -89.3198 1278.69 -89.3198 1278.69 -69.3621 1296.22 c 0,60,61
 -60.4119 1304.08 -60.4119 1304.08 -48.9346 1308.38 c 1,41,42
EndSplineSet
EndChar

StartChar: u1
Encoding: 96 3393 95
Width: 639
GlyphClass: 2
Flags: MW
LayerCount: 2
Fore
SplineSet
285.758 31.7867 m 1,0,1
 170.318 -165.002 170.318 -165.002 215.609 -266.771 c 0,2,3
 238.325 -317.815 238.325 -317.815 301.165 -330.637 c 128,-1,4
 364.004 -343.459 364.004 -343.459 404.213 -318.865 c 128,-1,5
 444.422 -294.27 444.422 -294.27 454.775 -275.193 c 128,-1,6
 465.129 -256.117 465.129 -256.117 463.309 -217.96 c 128,-1,7
 461.489 -179.804 461.489 -179.804 421.848 -118.766 c 128,-1,8
 382.207 -57.7292 382.207 -57.7292 300.62 13.0761 c 0,9,10
 291.624 20.8831 291.624 20.8831 285.758 31.7867 c 1,0,1
342.366 127.162 m 1,11,12
 367.209 127.415 367.209 127.415 385.827 111.258 c 0,13,14
 586.037 -62.4938 586.037 -62.4938 593.54 -219.714 c 0,15,16
 599.834 -351.6 599.834 -351.6 484.404 -422.205 c 0,17,18
 388.17 -481.069 388.17 -481.069 274.176 -457.809 c 0,19,20
 146.765 -431.812 146.765 -431.812 96.8388 -319.627 c 0,21,22
 21.4455 -150.217 21.4455 -150.217 186.008 118.17 c 1,23,24
 248.715 217.756 248.715 217.756 313.442 358.02 c 0,25,26
 458.806 673.025 458.806 673.025 445.748 826.557 c 0,27,28
 441.305 878.788 441.305 878.788 423.878 893.682 c 128,-1,29
 406.45 908.577 406.45 908.577 348.995 903.649 c 128,-1,30
 291.539 898.722 291.539 898.722 191.323 854.527 c 0,31,32
 167.016 843.81 167.016 843.81 141.677 853.642 c 128,-1,33
 116.337 863.474 116.337 863.474 105.621 887.772 c 128,-1,34
 94.9046 912.066 94.9046 912.066 104.734 937.411 c 128,-1,35
 114.563 962.755 114.563 962.755 138.866 973.473 c 0,36,37
 258.877 1026.4 258.877 1026.4 350.275 1034.24 c 128,-1,38
 441.673 1042.07 441.673 1042.07 504.335 988.503 c 0,39,40
 678.751 839.387 678.751 839.387 431.48 303.55 c 0,41,42
 386.729 206.574 386.729 206.574 342.366 127.162 c 1,11,12
EndSplineSet
EndChar

StartChar: u2
Encoding: 97 3394 96
Width: 639
GlyphClass: 2
Flags: MW
LayerCount: 2
Fore
SplineSet
229.569 -94.423 m 5,0,1
 201.134 -193.723 201.134 -193.723 243.939 -262.648 c 132,-1,2
 286.743 -331.574 286.743 -331.574 396.717 -353.25 c 132,-1,3
 506.692 -374.927 506.692 -374.927 596.027 -337.883 c 4,4,5
 666.915 -308.489 666.915 -308.489 674.482 -259.171 c 4,6,7
 687.52 -174.204 687.52 -174.204 537.32 -43.8523 c 4,8,9
 454.884 27.6898 454.884 27.6898 391.487 25.1001 c 4,10,11
 366.807 24.0919 366.807 24.0919 347.152 5.16588 c 5,12,13
 339.665 -18.0508 339.665 -18.0508 354.435 -58.5072 c 4,14,15
 383.664 -138.566 383.664 -138.566 440.008 -177.84 c 4,16,17
 475.855 -202.827 475.855 -202.827 512.837 -167.249 c 4,18,19
 531.971 -148.837 531.971 -148.837 559.149 -149.361 c 132,-1,20
 586.328 -149.885 586.328 -149.885 604.744 -169.026 c 132,-1,21
 623.159 -188.172 623.159 -188.172 622.631 -215.347 c 132,-1,22
 622.103 -242.522 622.103 -242.522 602.966 -260.933 c 4,23,24
 548.121 -313.697 548.121 -313.697 483.189 -317.421 c 4,25,26
 374.058 -323.679 374.058 -323.679 287.838 -207.47 c 4,27,28
 248.528 -154.489 248.528 -154.489 229.569 -94.423 c 5,0,1
355.704 151.409 m 5,29,30
 482.259 176.063 482.259 176.063 622.528 54.3289 c 4,31,32
 826.895 -123.03 826.895 -123.03 802.979 -278.888 c 4,33,34
 784.311 -400.542 784.311 -400.542 652.302 -455.282 c 132,-1,35
 520.292 -510.021 520.292 -510.021 363.169 -479.033 c 132,-1,36
 206.046 -448.045 206.046 -448.045 132.122 -329.009 c 4,37,38
 21.2651 -150.504 21.2651 -150.504 186.008 118.17 c 5,39,40
 248.712 217.748 248.712 217.748 313.442 358.02 c 4,41,42
 458.806 673.025 458.806 673.025 445.748 826.557 c 4,43,44
 441.305 878.788 441.305 878.788 423.878 893.682 c 132,-1,45
 406.45 908.577 406.45 908.577 348.995 903.649 c 132,-1,46
 291.539 898.722 291.539 898.722 191.323 854.527 c 4,47,48
 167.016 843.81 167.016 843.81 141.677 853.642 c 132,-1,49
 116.337 863.474 116.337 863.474 105.621 887.772 c 132,-1,50
 94.9046 912.066 94.9046 912.066 104.734 937.411 c 132,-1,51
 114.563 962.755 114.563 962.755 138.866 973.473 c 4,52,53
 258.877 1026.4 258.877 1026.4 350.275 1034.24 c 132,-1,54
 441.673 1042.07 441.673 1042.07 504.335 988.503 c 4,55,56
 678.751 839.387 678.751 839.387 431.48 303.55 c 4,57,58
 393.561 221.379 393.561 221.379 355.704 151.409 c 5,29,30
EndSplineSet
EndChar

StartChar: r1
Encoding: 98 3395 97
Width: 777
GlyphClass: 2
Flags: MW
LayerCount: 2
Fore
SplineSet
769 -180 m 4,0,1
 769 -354 769 -354 646 -437.5 c 132,-1,2
 523 -521 523 -521 379 -521 c 260,3,4
 235 -521 235 -521 158 -441.5 c 132,-1,5
 81 -362 81 -362 81 -249 c 260,6,7
 81 -136 81 -136 150.5 -67 c 132,-1,8
 220 2 220 2 326 2 c 260,9,10
 432 2 432 2 496.5 -73 c 132,-1,11
 561 -148 561 -148 561 -255 c 260,12,13
 561 -362 561 -362 481 -413 c 5,14,15
 659 -362 659 -362 659 -183 c 4,16,17
 659 -71 659 -71 465.5 132 c 132,-1,18
 272 335 272 335 272 757 c 4,19,20
 272 894 272 894 280 920 c 5,21,-1
 408 920 l 5,22,23
 406 800 406 800 406 751 c 4,24,25
 406 532 406 532 442.5 414.5 c 132,-1,26
 479 297 479 297 587 170.5 c 132,-1,27
 695 44 695 44 732 -25 c 132,-1,28
 769 -94 769 -94 769 -180 c 4,0,1
445 -251 m 4,29,30
 445 -185 445 -185 410.5 -139.5 c 132,-1,31
 376 -94 376 -94 317 -94 c 4,32,33
 192 -94 192 -94 192 -251 c 4,34,35
 192 -315 192 -315 230 -361.5 c 132,-1,36
 268 -408 268 -408 319 -408 c 4,37,38
 445 -408 445 -408 445 -251 c 4,29,30
EndSplineSet
Validated: 1
EndChar

StartChar: e1
Encoding: 100 3398 98
Width: 1199
GlyphClass: 2
Flags: MW
LayerCount: 2
Fore
SplineSet
232.648 449.217 m 1,0,1
 226.059 376.132 226.059 376.132 235.897 310.428 c 0,2,3
 254.233 187.97 254.233 187.97 314.715 138.259 c 0,4,5
 338.125 119.018 338.125 119.018 355.088 117.561 c 128,-1,6
 372.051 116.103 372.051 116.103 396.339 130.67 c 0,7,8
 436.183 154.114 436.183 154.114 473.48 219.94 c 128,-1,9
 510.778 285.767 510.778 285.767 538.233 394.631 c 0,10,11
 549.167 437.982 549.167 437.982 544.933 478.542 c 0,12,13
 536.397 555.207 536.397 555.207 482.312 595.606 c 0,14,15
 457.046 614.48 457.046 614.48 435.43 618.596 c 128,-1,16
 413.814 622.712 413.814 622.712 391.091 614.527 c 0,17,18
 330.152 594.584 330.152 594.584 300.995 495.593 c 0,19,20
 294.631 473.987 294.631 473.987 275.114 460.81 c 128,-1,21
 255.597 447.632 255.597 447.632 232.648 449.217 c 1,0,1
320.879 725.996 m 1,22,23
 335.496 733.117 335.496 733.117 350.654 738.078 c 0,24,25
 405.825 755.386 405.825 755.386 459.379 745.192 c 128,-1,26
 512.932 734.998 512.932 734.998 560.109 699.758 c 0,27,28
 659.854 625.254 659.854 625.254 674.184 492.465 c 0,29,30
 681.015 429.176 681.015 429.176 664.287 362.842 c 0,31,32
 597.563 98.2383 597.563 98.2383 462.268 18.6279 c 0,33,34
 405.22 -14.665 405.22 -14.665 344.252 -9.4248 c 128,-1,35
 283.285 -4.18555 283.285 -4.18555 232.169 37.8291 c 0,36,37
 133.07 119.28 133.07 119.28 107.33 291.175 c 0,38,39
 90.0508 406.567 90.0508 406.567 113.502 536.928 c 0,40,41
 123.379 591.831 123.379 591.831 138.824 640.775 c 0,42,43
 201.709 840.043 201.709 840.043 355.422 939.575 c 0,44,45
 511.255 1040.48 511.255 1040.48 699.802 1005.6 c 0,46,47
 872.901 973.587 872.901 973.587 985.42 843.335 c 0,48,49
 1123.17 683.871 1123.17 683.871 1094.96 461.454 c 0,50,51
 1065.69 230.809 1065.69 230.809 854.905 -8.08594 c 0,52,53
 837.336 -27.998 837.336 -27.998 810.208 -29.6953 c 128,-1,54
 783.081 -31.3936 783.081 -31.3936 763.16 -13.8193 c 128,-1,55
 743.243 3.75488 743.243 3.75488 741.55 30.8857 c 128,-1,56
 739.856 58.0156 739.856 58.0156 757.427 77.9258 c 0,57,58
 941.76 286.838 941.76 286.838 965.989 477.819 c 0,59,60
 986.912 642.743 986.912 642.743 887.043 758.353 c 0,61,62
 804.367 854.059 804.367 854.059 676.158 877.772 c 0,63,64
 538.484 903.238 538.484 903.238 426.08 830.454 c 0,65,66
 363.569 789.978 363.569 789.978 320.879 725.996 c 1,22,23
EndSplineSet
EndChar

